SplineFontDB: 3.2
FontName: SimplySerif-BookItalic
FullName: Simply Serif Book Italic
FamilyName: Simply Serif
Weight: Book
Copyright: Copyright (c) 2020-2024 by Wojciech Kalinowski "wmk69" with Reserved Font Name "SimplySerif-BookItalic".\nThis Font Software is licensed under the SIL Open Font License, Version 1.1.
Version: 1.0.0; 2022-02-18
ItalicAngle: -12
UnderlinePosition: -80
UnderlineWidth: 200
Ascent: 1638
Descent: 410
InvalidEm: 0
LayerCount: 2
Layer: 0 1 "Warstwa t+AUIA-a" 1
Layer: 1 1 "Plan pierwszy" 0
XUID: [1021 783 23647091 2952791]
StyleMap: 0x0001
FSType: 0
OS2Version: 3
OS2_WeightWidthSlopeOnly: 0
OS2_UseTypoMetrics: 1
CreationTime: 1260698820
ModificationTime: 1645187141
PfmFamily: 17
TTFWeight: 400
TTFWidth: 5
LineGap: 200
VLineGap: 0
Panose: 2 1 5 3 7 4 5 13 2 4
OS2TypoAscent: 2000
OS2TypoAOffset: 0
OS2TypoDescent: -500
OS2TypoDOffset: 0
OS2TypoLinegap: 200
OS2WinAscent: 2000
OS2WinAOffset: 0
OS2WinDescent: 500
OS2WinDOffset: 0
HheadAscent: 2000
HheadAOffset: 0
HheadDescent: -500
HheadDOffset: 0
OS2SubXSize: 1434
OS2SubYSize: 1331
OS2SubXOff: 0
OS2SubYOff: 287
OS2SupXSize: 1434
OS2SupYSize: 1331
OS2SupXOff: 0
OS2SupYOff: 977
OS2StrikeYSize: 102
OS2StrikeYPos: 512
OS2CapHeight: 1510
OS2XHeight: 1100
OS2Vendor: '    '
OS2CodePages: 20000093.00000000
OS2UnicodeRanges: 8000002f.4000204b.00000000.00000000
Lookup: 258 0 0 "'kern' Kerning poziomy w tablicy 0" { "Podtablica 'kern' Kerning poziomy w tablicy 0" [307,0,4] } ['kern' ('DFLT' <'dflt' > 'grek' <'dflt' > 'latn' <'dflt' > ) ]
MarkAttachClasses: 1
DEI: 91125
KernClass2: 74 55 "Podtablica 'kern' Kerning poziomy w tablicy 0"
 84 A Agrave Aacute Acircumflex Atilde Adieresis Aring Amacron Abreve Aogonek Aringacute
 17 B uni1E02 uni1E9E
 47 C Ccedilla Cacute Ccircumflex Cdotaccent Ccaron
 122 D O Q Eth Ograve Oacute Ocircumflex Otilde Odieresis Oslash Dcaron Dcroat Omacron Obreve Ohungarumlaut Oslashacute uni1E0A

StartChar: .notdef
Encoding: 65536 -1 0
Width: 994
Flags: W
HStem: 0 68<274 748> 1442 68<567 1041>
VStem: 150 694<0 694> 471 694<816 1510>
DStem2: 150 0 259.546 0 0.207912 0.978148<92.2951 1497.19> 733.546 0 844 0 0.207912 0.978148<69.5192 1474.41>
LayerCount: 2
Fore
SplineSet
150 0 m 1,0,-1
 471 1510 l 1,1,-1
 1165 1510 l 1,2,-1
 844 0 l 1,3,-1
 150 0 l 1,0,-1
274 68 m 1,4,-1
 748 68 l 1,5,-1
 1041 1442 l 1,6,-1
 567 1442 l 1,7,-1
 274 68 l 1,4,-1
EndSplineSet
Validated: 1
EndChar

StartChar: A
Encoding: 65 65 4
Width: 1475
GlyphClass: 2
Flags: W
HStem: 0 50<15.05 136.988 1368.88 1470> 635 80<614 1064> 1460 50<828 935.201>
DStem2: 149 90 566 635 0.50823 0.861221<-69.5987 681.298 774.59 1471.59> 1144 1434 967 1316 0.161541 -0.986866<87.8575 696.633 777.844 1409.72>
LayerCount: 2
Fore
SplineSet
102 0 m 2,0,1
 25 -2 l 2,2,3
 12 -2 12 -2 12 8 c 0,4,5
 12 10 12 10 13 15 c 2,6,-1
 17 35 l 2,7,8
 20 50 20 50 36 50 c 2,9,-1
 81 50 l 2,10,11
 125.394913987 50 125.394913987 50 149 90 c 2,12,-1
 938 1427 l 1,13,14
 931 1460 931 1460 882 1460 c 2,15,-1
 837 1460 l 2,16,17
 825 1460 825 1460 825 1468 c 0,18,19
 825 1470 825 1470 826 1475 c 2,20,-1
 830 1495 l 2,21,22
 833 1510 833 1510 848 1510 c 2,23,-1
 1042 1510 l 2,24,25
 1131.55952381 1510 1131.55952381 1510 1144 1434 c 2,26,-1
 1364 90 l 2,27,28
 1371 50 1371 50 1416 50 c 2,29,-1
 1461 50 l 2,30,31
 1473 50 1473 50 1473 42 c 0,32,33
 1473 40 1473 40 1472 35 c 2,34,-1
 1468 15 l 2,35,36
 1465 0 1465 0 1450 0 c 2,37,-1
 1271 0 l 2,38,39
 1181.37209302 2.22044604925e-16 1181.37209302 2.22044604925e-16 1169 76 c 2,40,-1
 1078 635 l 1,41,-1
 566 635 l 1,42,-1
 236 76 l 2,43,44
 193 2 193 2 102 0 c 2,0,1
967 1316 m 1,45,-1
 614 715 l 1,46,-1
 1064 715 l 1,47,-1
 967 1316 l 1,45,-1
EndSplineSet
Validated: 1
EndChar

StartChar: E
Encoding: 69 69 5
Width: 1143
GlyphClass: 2
Flags: W
HStem: 0 80<417 995.486> 0 50<55.05 194.887> 715 80<569 884.937> 1430 80<704 1212.5> 1460 50<366 483.594>
DStem2: 200.242 0 399.995 0 0.207912 0.978148<123.879 772.51 854.296 1429.05> 752.403 0 802.403 0 0.207912 0.978148<611.523 667.472 829.391 942.447>
LayerCount: 2
Fore
SplineSet
65 0 m 2,0,1
 52 0 52 0 52 8 c 0,2,3
 52 10 52 10 53 15 c 2,4,-1
 57 35 l 2,5,6
 60 50 60 50 76 50 c 2,7,-1
 121 50 l 2,8,9
 210.902439024 50 210.902439024 50 230 140 c 2,10,-1
 491 1370 l 2,11,12
 494 1384 494 1384 494 1399 c 0,13,14
 494 1460 494 1460 420 1460 c 2,15,-1
 375 1460 l 2,16,17
 363 1460 363 1460 363 1468 c 0,18,19
 363 1470 363 1470 364 1475 c 2,20,-1
 368 1495 l 2,21,22
 371 1510 371 1510 386 1510 c 2,23,-1
 1201 1510 l 2,24,25
 1271.76595745 1510 1271.76595745 1510 1295 1447 c 2,26,-1
 1347 1306 l 2,27,28
 1348 1303 1348 1303 1348 1300 c 0,29,30
 1348 1292.8 1348 1292.8 1342 1290 c 2,31,-1
 1312 1276 l 2,32,33
 1308 1274 1308 1274 1305 1274 c 0,34,35
 1298 1274 1298 1274 1294 1284 c 0,36,37
 1237 1430 1237 1430 1068 1430 c 2,38,-1
 704 1430 l 1,39,-1
 569 795 l 1,40,-1
 831 795 l 2,41,42
 922 795 922 795 940 885 c 2,43,-1
 944 905 l 2,44,45
 947 919 947 919 961 919 c 2,46,-1
 981 919 l 2,47,48
 995 919 995 919 995 912 c 0,49,50
 995 910 995 910 994 905 c 2,51,-1
 931 605 l 2,52,53
 928.06 591 928.06 591 912 591 c 2,54,-1
 892 591 l 2,55,56
 880 591 880 591 880 598 c 0,57,58
 880 600 880 600 881 605 c 2,59,-1
 885 625 l 2,60,61
 888 640 888 640 888 654 c 0,62,63
 888 715 888 715 814 715 c 2,64,-1
 552 715 l 1,65,-1
 417 80 l 1,66,-1
 833 80 l 2,67,68
 1005 80 1005 80 1121 226 c 0,69,70
 1129 236 1129 236 1136 236 c 0,71,72
 1139.72727273 236 1139.72727273 236 1143 234 c 2,73,-1
 1161 223 l 2,74,75
 1168 219 1168 219 1168 213 c 0,76,77
 1168 209.035714286 1168 209.035714286 1164 204 c 2,78,-1
 1052 63 l 2,79,80
 1002 0 1002 0 932 0 c 2,81,-1
 65 0 l 2,0,1
EndSplineSet
Validated: 1
EndChar

StartChar: F
Encoding: 70 70 6
Width: 1091
GlyphClass: 2
Flags: W
HStem: 0 21G<217.5 385> 715 80<569 884.937> 1430 80<704 1212.5> 1460 50<366 484.453>
DStem2: 199.623 0 399.623 0 0.207912 0.978148<32.2397 772.639 854.425 1429.53> 752.403 0 802.403 0 0.207912 0.978148<611.523 667.472 829.391 940.545>
LayerCount: 2
Fore
SplineSet
230 0 m 2,0,1
 205 0 205 0 205 20 c 0,2,3
 205 25.298245614 205 25.298245614 206 30 c 2,4,-1
 491 1370 l 2,5,6
 495 1389 495 1389 495 1399 c 0,7,8
 495 1460 495 1460 420 1460 c 2,9,-1
 375 1460 l 2,10,11
 363 1460 363 1460 363 1468 c 0,12,13
 363 1470 363 1470 364 1475 c 2,14,-1
 368 1495 l 2,15,16
 371 1510 371 1510 386 1510 c 2,17,-1
 1201 1510 l 2,18,19
 1271.76595745 1510 1271.76595745 1510 1295 1447 c 2,20,-1
 1347 1306 l 2,21,22
 1348 1303 1348 1303 1348 1300 c 0,23,24
 1348 1294 1348 1294 1342 1291 c 2,25,-1
 1312 1276 l 2,26,27
 1308 1274 1308 1274 1305 1274 c 0,28,29
 1298 1274 1298 1274 1294 1284 c 0,30,31
 1237 1430 1237 1430 1068 1430 c 2,32,-1
 704 1430 l 1,33,-1
 569 795 l 1,34,-1
 831 795 l 2,35,36
 922 795 922 795 940 885 c 2,37,-1
 944 905 l 2,38,39
 947 919 947 919 961 919 c 2,40,-1
 981 919 l 2,41,42
 995 919 995 919 995 910 c 0,43,44
 995 909.761904762 995 909.761904762 994 905 c 2,45,-1
 931 605 l 2,46,47
 928 591 928 591 912 591 c 2,48,-1
 892 591 l 2,49,50
 880 591 880 591 880 598 c 0,51,52
 880 600 880 600 881 605 c 2,53,-1
 885 625 l 2,54,55
 888 640 888 640 888 654 c 0,56,57
 888 715 888 715 814 715 c 2,58,-1
 552 715 l 1,59,-1
 406 30 l 2,60,61
 400 0 400 0 370 0 c 2,62,-1
 230 0 l 2,0,1
EndSplineSet
Validated: 1
EndChar

StartChar: H
Encoding: 72 72 7
Width: 1399
GlyphClass: 2
Flags: W
HStem: 0 50<55.05 194.887 1235.55 1354> 715 80<569 1151> 1460 50<366 484.453 1525.11 1664.95>
VStem: 495 201<1189.18 1456.61> 1024 201<53.3942 320.82>
DStem2: 200.242 0 400.242 0 0.207912 0.978148<59.7273 772.51 854.296 1429.25> 999.242 0 1199.24 0 0.207912 0.978148<155.977 730.928 812.714 1525.5>
CounterMasks: 1 e0
LayerCount: 2
Fore
SplineSet
260 0 m 2,0,-1
 65 0 l 2,1,2
 52 0 52 0 52 9 c 0,3,4
 52 10 52 10 53 15 c 2,5,-1
 57 35 l 2,6,7
 60 50 60 50 76 50 c 2,8,-1
 121 50 l 2,9,10
 210.902439024 50 210.902439024 50 230 140 c 2,11,-1
 491 1370 l 2,12,13
 494 1384 494 1384 495 1399 c 0,14,15
 495 1460 495 1460 420 1460 c 2,16,-1
 375 1460 l 2,17,18
 363 1460 363 1460 363 1468 c 0,19,20
 363 1470 363 1470 364 1475 c 2,21,-1
 368 1495 l 2,22,23
 371 1510 371 1510 386 1510 c 2,24,-1
 581 1510 l 2,25,26
 696 1510 696 1510 696 1415 c 0,27,28
 696 1393.56557377 696 1393.56557377 691 1370 c 2,29,-1
 569 795 l 1,30,-1
 1168 795 l 1,31,-1
 1290 1370 l 2,32,33
 1320 1510 1320 1510 1460 1510 c 2,34,-1
 1655 1510 l 2,35,36
 1668 1510 1668 1510 1668 1501 c 0,37,38
 1668 1500 1668 1500 1667 1495 c 2,39,-1
 1663 1475 l 2,40,41
 1660 1460 1660 1460 1644 1460 c 2,42,-1
 1599 1460 l 2,43,44
 1509.09756098 1460 1509.09756098 1460 1490 1370 c 2,45,-1
 1229 140 l 2,46,47
 1226 126 1226 126 1225 111 c 0,48,49
 1225 50 1225 50 1300 50 c 2,50,-1
 1345 50 l 2,51,52
 1357 50 1357 50 1357 42 c 0,53,54
 1357 40 1357 40 1356 35 c 2,55,-1
 1352 15 l 2,56,57
 1349 0 1349 0 1334 0 c 2,58,-1
 1139 0 l 2,59,60
 1024 0 1024 0 1024 95 c 0,61,62
 1024 116.43442623 1024 116.43442623 1029 140 c 2,63,-1
 1151 715 l 1,64,-1
 552 715 l 1,65,-1
 430 140 l 2,66,67
 400 0 400 0 260 0 c 2,0,-1
EndSplineSet
Validated: 1
EndChar

StartChar: I
Encoding: 73 73 8
Width: 600
GlyphClass: 2
Flags: W
HStem: 0 21G<217.5 385> 1460 50<366 484.453>
VStem: 495 201<1202.5 1456.61>
DStem2: 199.623 0 399.623 0 0.207912 0.978148<32.2397 1429.47>
LayerCount: 2
Fore
SplineSet
370 0 m 2,0,-1
 230 0 l 2,1,2
 205 0 205 0 205 20 c 0,3,4
 205 25.298245614 205 25.298245614 206 30 c 2,5,-1
 491 1370 l 2,6,7
 495 1387 495 1387 495 1399 c 0,8,9
 495 1460 495 1460 420 1460 c 2,10,-1
 375 1460 l 2,11,12
 363 1460 363 1460 363 1468 c 0,13,14
 363 1470 363 1470 364 1475 c 2,15,-1
 368 1495 l 2,16,17
 371 1510 371 1510 386 1510 c 2,18,-1
 581 1510 l 2,19,20
 696 1510 696 1510 696 1415 c 0,21,22
 696 1393.50877193 696 1393.50877193 691 1370 c 2,23,-1
 406 30 l 2,24,25
 400 0 400 0 370 0 c 2,0,-1
EndSplineSet
Validated: 1
EndChar

StartChar: L
Encoding: 76 76 9
Width: 1123
GlyphClass: 2
Flags: W
HStem: 0 80<417 974.987> 0 50<55.05 194.887> 1460 50<366 484.453>
VStem: 495 201<1192.81 1456.61>
DStem2: 200.242 0 399.995 0 0.207912 0.978148<123.879 1429.25>
LayerCount: 2
Fore
SplineSet
65 0 m 2,0,1
 52 0 52 0 52 7 c 0,2,3
 52 10 52 10 53 15 c 2,4,-1
 57 35 l 2,5,6
 60 50 60 50 76 50 c 2,7,-1
 121 50 l 2,8,9
 210.902439024 50 210.902439024 50 230 140 c 2,10,-1
 491 1370 l 2,11,12
 494 1384 494 1384 495 1399 c 0,13,14
 495 1460 495 1460 420 1460 c 2,15,-1
 375 1460 l 2,16,17
 363 1460 363 1460 363 1468 c 0,18,19
 363 1470 363 1470 364 1475 c 2,20,-1
 368 1495 l 2,21,22
 371 1510 371 1510 386 1510 c 2,23,-1
 581 1510 l 2,24,25
 696 1510 696 1510 696 1415 c 0,26,27
 696 1393.54014599 696 1393.54014599 691 1370 c 2,28,-1
 417 80 l 1,29,-1
 813 80 l 2,30,31
 984 80 984 80 1101 226 c 0,32,33
 1109 236 1109 236 1116 236 c 0,34,35
 1119.72727273 236 1119.72727273 236 1123 234 c 2,36,-1
 1141 223 l 2,37,38
 1148 219 1148 219 1148 213 c 0,39,40
 1148 209.035714286 1148 209.035714286 1144 204 c 2,41,-1
 1032 63 l 2,42,43
 982 0 982 0 912 0 c 2,44,-1
 65 0 l 2,0,1
EndSplineSet
Validated: 1
EndChar

StartChar: O
Encoding: 79 79 10
Width: 1514
GlyphClass: 2
Flags: W
HStem: -20 61<629.721 915.594> 1469 61<919.406 1205.28>
VStem: 237 215<291.408 813.805> 1383 215<696.521 1218.59>
LayerCount: 2
Fore
SplineSet
766 41 m 128,-1,1
 965 41 965 41 1123 238 c 0,2,3
 1286 442 1286 442 1353 756 c 0,4,5
 1383 897 1383 897 1383 1022 c 0,6,7
 1383 1162 1383 1162 1342 1272 c 0,8,9
 1268 1469 1268 1469 1069 1469 c 128,-1,10
 870 1469 870 1469 712 1272 c 0,11,12
 548 1067 548 1067 482 755 c 0,13,14
 452 614 452 614 452 488 c 0,15,16
 452 348 452 348 493 238 c 0,17,0
 567 41 567 41 766 41 c 128,-1,1
753 -20 m 128,-1,19
 453 -20 453 -20 322 206 c 0,20,21
 237 352 237 352 237 542 c 0,22,23
 237 642 237 642 260 755 c 0,24,25
 329 1080 329 1080 555 1304 c 0,26,27
 782 1530 782 1530 1082 1530 c 128,-1,28
 1382 1530 1382 1530 1513 1304 c 0,29,30
 1598 1158 1598 1158 1598 968 c 0,31,32
 1598 868 1598 868 1574 755 c 0,33,34
 1505 430 1505 430 1280 206 c 0,35,18
 1053 -20 1053 -20 753 -20 c 128,-1,19
EndSplineSet
Validated: 1
EndChar

StartChar: V
Encoding: 86 86 11
Width: 1476
GlyphClass: 2
Flags: W
HStem: 0 21G<631.432 844> 1460 50<326 427.803 1659.69 1781.95>
DStem2: 627 1434 432 1420 0.127722 -0.99181<-56.1338 1374.44> 804 71 877 30 0.485055 0.874484<0 1656.74>
LayerCount: 2
Fore
SplineSet
648 0 m 2,0,1
 614.863309353 0 614.863309353 0 611 30 c 2,2,-1
 432 1420 l 2,3,4
 427 1460 427 1460 380 1460 c 2,5,-1
 335 1460 l 2,6,7
 323 1460 323 1460 323 1468 c 0,8,9
 323 1470 323 1470 324 1475 c 2,10,-1
 328 1495 l 2,11,12
 331 1510 331 1510 346 1510 c 2,13,-1
 525 1510 l 2,14,15
 617.130594277 1510 617.130594277 1510 627 1434 c 2,16,-1
 804 71 l 1,17,-1
 1561 1434 l 2,18,19
 1603 1510 1603 1510 1695 1510 c 2,20,-1
 1772 1510 l 2,21,22
 1785 1510 1785 1510 1785 1502 c 0,23,24
 1785 1500 1785 1500 1784 1495 c 2,25,-1
 1780 1475 l 2,26,27
 1777 1460 1777 1460 1761 1460 c 2,28,-1
 1716 1460 l 2,29,30
 1670.18705036 1460 1670.18705036 1460 1648 1420 c 2,31,-1
 877 30 l 2,32,33
 860 0 860 0 828 0 c 2,34,-1
 648 0 l 2,0,1
EndSplineSet
Validated: 1
EndChar

StartChar: W
Encoding: 87 87 12
Width: 1993
GlyphClass: 2
Flags: W
HStem: 0 21G<631.5 844 1148.5 1361> 1460 50<326 427.803 843 944.803 1659.69 1781.95 2176.69 2298.95>
DStem2: 627 1434 432 1420 0.127722 -0.99181<-56.1421 1374.44> 804 71 877 30 0.485055 0.874484<0 419.442 862.599 1656.74> 1144 1434 949 1420 0.127722 -0.99181<-56.1421 614.102 754.263 879.308 1020.46 1374.44> 1321 71 1394 30 0.485055 0.874484<0 1656.74>
LayerCount: 2
Fore
SplineSet
648 0 m 2,0,1
 615 0 615 0 611 30 c 2,2,-1
 432 1420 l 2,3,4
 427 1460 427 1460 380 1460 c 2,5,-1
 335 1460 l 2,6,7
 323 1460 323 1460 323 1468 c 0,8,9
 323 1470 323 1470 324 1475 c 2,10,-1
 328 1495 l 2,11,12
 331 1510 331 1510 346 1510 c 2,13,-1
 525 1510 l 2,14,15
 617 1510 617 1510 627 1434 c 2,16,-1
 804 71 l 1,17,-1
 1063 537 l 1,18,-1
 949 1420 l 2,19,20
 944 1460 944 1460 897 1460 c 2,21,-1
 852 1460 l 2,22,23
 840 1460 840 1460 840 1468 c 0,24,25
 840 1470 840 1470 841 1475 c 2,26,-1
 845 1495 l 2,27,28
 848 1510 848 1510 863 1510 c 2,29,-1
 1042 1510 l 2,30,31
 1134 1510 1134 1510 1144 1434 c 2,32,-1
 1223 825 l 1,33,-1
 1561 1434 l 2,34,35
 1603 1510 1603 1510 1695 1510 c 2,36,-1
 1772 1510 l 2,37,38
 1785 1510 1785 1510 1785 1502 c 0,39,40
 1785 1500 1785 1500 1784 1495 c 2,41,-1
 1780 1475 l 2,42,43
 1777 1460 1777 1460 1761 1460 c 2,44,-1
 1716 1460 l 2,45,46
 1670 1460 1670 1460 1648 1420 c 2,47,-1
 1241 686 l 1,48,-1
 1321 71 l 1,49,-1
 2078 1434 l 2,50,51
 2120 1510 2120 1510 2212 1510 c 2,52,-1
 2289 1510 l 2,53,54
 2302 1510 2302 1510 2302 1502 c 0,55,56
 2302 1500 2302 1500 2301 1495 c 2,57,-1
 2297 1475 l 2,58,59
 2294 1460 2294 1460 2278 1460 c 2,60,-1
 2233 1460 l 2,61,62
 2187 1460 2187 1460 2165 1420 c 2,63,-1
 1394 30 l 2,64,65
 1377 0 1377 0 1345 0 c 2,66,-1
 1165 0 l 2,67,68
 1132 0 1132 0 1128 30 c 2,69,-1
 1081 397 l 1,70,-1
 877 30 l 2,71,72
 860 0 860 0 828 0 c 2,73,-1
 648 0 l 2,0,1
EndSplineSet
Validated: 1
EndChar

StartChar: Z
Encoding: 90 90 13
Width: 1198
GlyphClass: 2
Flags: W
HStem: 0 80<308 1020.49> 1430 80<507.514 1122>
DStem2: 91 104 308 80 0.613817 0.789448<114.252 1679.65>
LayerCount: 2
Fore
SplineSet
125 0 m 2,0,1
 58 0 58 0 58 37 c 0,2,3
 58 61.5577109602 58 61.5577109602 91 104 c 2,4,-1
 1122 1430 l 1,5,-1
 670 1430 l 2,6,7
 498 1430 498 1430 382 1284 c 0,8,9
 374 1274 374 1274 367 1274 c 0,10,11
 363.272727273 1274 363.272727273 1274 360 1276 c 2,12,-1
 342 1287 l 2,13,14
 335 1291 335 1291 335 1297 c 0,15,16
 335 1300.96428571 335 1300.96428571 339 1306 c 2,17,-1
 451 1447 l 2,18,19
 501 1510 501 1510 571 1510 c 2,20,-1
 1305 1510 l 2,21,22
 1372 1510 1372 1510 1372 1472 c 0,23,24
 1372 1448.44228904 1372 1448.44228904 1339 1406 c 2,25,-1
 308 80 l 1,26,-1
 858 80 l 2,27,28
 1030 80 1030 80 1146 226 c 0,29,30
 1154 236 1154 236 1161 236 c 0,31,32
 1164.72727273 236 1164.72727273 236 1168 234 c 2,33,-1
 1186 223 l 2,34,35
 1193 219 1193 219 1193 213 c 0,36,37
 1193 209.035714286 1193 209.035714286 1189 204 c 2,38,-1
 1077 63 l 2,39,40
 1027 0 1027 0 957 0 c 2,41,-1
 125 0 l 2,0,1
EndSplineSet
Validated: 1
EndChar

StartChar: c
Encoding: 99 99 14
Width: 1106
GlyphClass: 2
Flags: W
HStem: -20 50<520.762 772.187> 1070 50<731.926 974.755>
VStem: 199 188<182.775 622.671> 1088 89<769.109 982.988> 1088 53<769.289 849.77>
LayerCount: 2
Fore
SplineSet
590 -20 m 0,0,1
 377 -20 377 -20 280 119 c 0,2,3
 199 235 199 235 199 393 c 0,4,5
 199 467 199 467 217 550 c 0,6,7
 274 820 274 820 462 979 c 0,8,9
 629 1120 629 1120 831 1120 c 0,10,11
 1038 1120 1038 1120 1156 1012 c 0,12,13
 1177 993 1177 993 1177 962 c 0,14,15
 1177 951 1177 951 1174 938 c 2,16,-1
 1141 782 l 2,17,18
 1138 767 1138 767 1123 767 c 2,19,-1
 1100 767 l 2,20,21
 1088 767 1088 767 1088 782 c 0,22,23
 1088 788 1088 788 1088 795 c 0,24,25
 1088 1070 1088 1070 861 1070 c 0,26,27
 704 1070 704 1070 589 944 c 0,28,29
 469 814 469 814 413 550 c 0,30,31
 387 428 387 428 387 334 c 0,32,33
 387 225 387 225 422 154 c 0,34,35
 483 30 483 30 641 30 c 0,36,37
 891 30 891 30 991 318 c 0,38,39
 996 333 996 333 1009 333 c 2,40,-1
 1032 333 l 2,41,42
 1044 333 1044 333 1044 323 c 0,43,44
 1044 321 1044 321 1044 318 c 2,45,-1
 1010 162 l 2,46,47
 1000 114 1000 114 961 88 c 0,48,49
 797 -20 797 -20 590 -20 c 0,0,1
EndSplineSet
Validated: 1
EndChar

StartChar: d
Encoding: 100 100 15
Width: 1239
GlyphClass: 2
Flags: W
HStem: -20 55<499.943 692.156> 0 50<1075.55 1194> 1065 55<703.038 904.824> 1460 50<1025 1143.45>
VStem: 198 190<174.139 625.631> 884 181<53.3942 257.258> 1154 181<1191.5 1456.61>
DStem2: 854.991 -20 1034.99 -20 0.207912 0.978148<172.266 207.506 240.818 803.515 957.901 1449.69>
LayerCount: 2
Fore
SplineSet
590 35 m 128,-1,1
 702 35 702 35 814 161 c 0,2,3
 892 249 892 249 942 392 c 1,4,-1
 1010 709 l 1,5,6
 1012 740 1012 740 1012 769 c 0,7,8
 1012 875 1012 875 979 947 c 0,9,10
 926 1065 926 1065 809 1065 c 128,-1,11
 692 1065 692 1065 589 947 c 0,12,13
 469 809 469 809 414 550 c 0,14,15
 388 429 388 429 388 336 c 0,16,17
 388 232 388 232 420 161 c 0,18,0
 478 35 478 35 590 35 c 128,-1,1
217 550 m 0,19,20
 274 818 274 818 456 980 c 0,21,22
 614 1120 614 1120 791 1120 c 0,23,24
 891 1120 891 1120 951 1080 c 0,25,26
 1005 1043 1005 1043 1034 976 c 0,27,28
 1046 948 1046 948 1054 917 c 1,29,-1
 1150 1370 l 2,30,31
 1153 1384 1153 1384 1154 1399 c 0,32,33
 1154 1460 1154 1460 1079 1460 c 2,34,-1
 1034 1460 l 2,35,36
 1022 1460 1022 1460 1022 1468 c 0,37,38
 1022 1470 1022 1470 1023 1475 c 2,39,-1
 1027 1495 l 2,40,41
 1030 1510 1030 1510 1045 1510 c 2,42,-1
 1220 1510 l 2,43,44
 1335 1510 1335 1510 1335 1415 c 0,45,46
 1335 1393.56321839 1335 1393.56321839 1330 1370 c 2,47,-1
 1069 140 l 2,48,49
 1066 126 1066 126 1065 111 c 0,50,51
 1065 50 1065 50 1140 50 c 2,52,-1
 1185 50 l 2,53,54
 1197 50 1197 50 1197 42 c 4,55,56
 1197 40 1197 40 1196 35 c 2,57,-1
 1192 15 l 2,58,59
 1189 0 1189 0 1174 0 c 2,60,-1
 999 0 l 2,61,62
 884 0 884 0 884 95 c 0,63,64
 884 116.111111111 884 116.111111111 889 140 c 2,65,-1
 898 183 l 1,66,67
 877 152 877 152 853 124 c 0,68,69
 797 58 797 58 725 20 c 0,70,71
 648 -20 648 -20 549 -20 c 0,72,73
 370 -20 370 -20 274 120 c 0,74,75
 199 229 199 229 198 385 c 0,76,77
 198 462 198 462 217 550 c 0,19,20
EndSplineSet
Validated: 1
EndChar

StartChar: e
Encoding: 101 101 16
Width: 1140
GlyphClass: 2
Flags: W
HStem: -20 50<520.516 772.996> 425 63<406.139 798.995> 1070 50<711.905 913.182>
VStem: 199 187<182.857 470.681> 991 53<252.223 330.129> 1013 185<651.436 943.512>
LayerCount: 2
Fore
SplineSet
590 -20 m 0,0,1
 377 -20 377 -20 280 119 c 0,2,3
 199 235 199 235 199 392 c 0,4,5
 199 466 199 466 217 550 c 0,6,7
 274 820 274 820 462 979 c 0,8,9
 629 1120 629 1120 825 1120 c 0,10,11
 1025 1120 1025 1120 1131 978 c 0,12,13
 1198 888 1198 888 1198 777 c 0,14,15
 1198 751 1198 751 1196 734 c 0,16,17
 1189 666 1189 666 1154 616 c 0,18,19
 1025 426 1025 426 701 425 c 0,20,21
 472 425 472 425 395 444 c 1,22,23
 386 384 386 384 386 332 c 0,24,25
 386 226 386 226 422 154 c 0,26,27
 482 30 482 30 641 30 c 0,28,29
 895 30 895 30 991 318 c 0,30,31
 996 333 996 333 1009 333 c 2,32,-1
 1032 333 l 2,33,34
 1047.26923077 333 1047.26923077 333 1044 318 c 2,35,-1
 1010 162 l 2,36,37
 1000 114 1000 114 961 88 c 0,38,39
 797 -20 797 -20 590 -20 c 0,0,1
404 501 m 1,40,41
 502 488 502 488 588 488 c 0,42,43
 838 488 838 488 938 608 c 0,44,45
 999 681 999 681 1010 784 c 0,46,47
 1013 810 1013 810 1013 834 c 0,48,49
 1013 906 1013 906 988 959 c 0,50,51
 935 1070 935 1070 815 1070 c 0,52,53
 700 1070 700 1070 594 952 c 0,54,55
 479 824 479 824 415 550 c 0,56,57
 409 525 409 525 404 501 c 1,40,41
EndSplineSet
Validated: 1
EndChar

StartChar: h
Encoding: 104 104 17
Width: 1288
GlyphClass: 2
Flags: W
HStem: 0 50<1124.55 1243> 1020 100<841.785 1054.94> 1460 50<366 484.453>
VStem: 495 181<1182.5 1456.61> 933 181<53.3942 327.031> 1086 179<708.975 988.188>
DStem2: 199.623 0 379.623 0 0.207912 0.978148<28.1464 585.089 624.324 1429.38> 908.242 0 1088.24 0 0.207912 0.978148<151.819 897.325>
LayerCount: 2
Fore
SplineSet
350 0 m 2,0,-1
 230 0 l 2,1,2
 205 0 205 0 205 20 c 0,3,4
 205 25.298245614 205 25.298245614 206 30 c 2,5,-1
 491 1370 l 2,6,7
 494 1384 494 1384 495 1399 c 0,8,9
 495 1460 495 1460 420 1460 c 2,10,-1
 375 1460 l 2,11,12
 363 1460 363 1460 363 1468 c 0,13,14
 363 1470 363 1470 364 1475 c 2,15,-1
 368 1495 l 2,16,17
 371 1510 371 1510 386 1510 c 2,18,-1
 561 1510 l 2,19,20
 676 1510 676 1510 676 1415 c 0,21,22
 676 1393.55029586 676 1393.55029586 671 1370 c 2,23,-1
 502 574 l 1,24,25
 679 1120 679 1120 1016 1120 c 0,26,27
 1159 1120 1159 1120 1222 1036 c 0,28,29
 1265 979 1265 979 1265 886 c 0,30,31
 1265 831.119402985 1265 831.119402985 1252 770 c 2,32,-1
 1118 140 l 2,33,34
 1115 126 1115 126 1114 111 c 0,35,36
 1114 50 1114 50 1189 50 c 2,37,-1
 1234 50 l 2,38,39
 1246 50 1246 50 1246 42 c 0,40,41
 1246 40 1246 40 1245 35 c 2,42,-1
 1241 15 l 2,43,44
 1238 0 1238 0 1223 0 c 2,45,-1
 1048 0 l 2,46,47
 933 0 933 0 933 95 c 0,48,49
 933 116.492537313 933 116.492537313 938 140 c 2,50,-1
 1072 770 l 2,51,52
 1086 836 1086 836 1086 881 c 0,53,54
 1086 918 1086 918 1076 941 c 0,55,56
 1043 1020 1043 1020 942 1020 c 0,57,58
 584 1020 584 1020 386 30 c 0,59,60
 380 0 380 0 350 0 c 2,0,-1
EndSplineSet
Validated: 1
EndChar

StartChar: i
Encoding: 105 105 18
Width: 580
GlyphClass: 2
Flags: W
HStem: 0 50<416.547 535> 1050 50<278.669 396.594> 1272 245<477.097 644.903>
VStem: 225 181<53.4375 205.673> 407 182<780.625 1046.61> 441 240<1309.13 1479.87>
DStem2: 200.242 0 380.242 0 0.207912 0.978148<151.819 1009.92>
LayerCount: 2
Fore
SplineSet
561 1272 m 128,-1,1
 511 1272 511 1272 476 1308 c 128,-1,2
 441 1344 441 1344 441 1394.5 c 128,-1,3
 441 1445 441 1445 476 1481 c 128,-1,4
 511 1517 511 1517 561 1517 c 128,-1,5
 611 1517 611 1517 646 1481 c 128,-1,6
 681 1445 681 1445 681 1394.5 c 128,-1,7
 681 1344 681 1344 646 1308 c 128,-1,0
 611 1272 611 1272 561 1272 c 128,-1,1
340 0 m 2,8,9
 225 0 225 0 225 95 c 0,10,11
 225 116.436781609 225 116.436781609 230 140 c 2,12,-1
 404 960 l 2,13,14
 407 974 407 974 407 989 c 0,15,16
 407 1050 407 1050 333 1050 c 2,17,-1
 288 1050 l 2,18,19
 275 1050 275 1050 275 1059 c 0,20,21
 275 1061 275 1061 276 1065 c 2,22,-1
 281 1085 l 2,23,24
 284.75 1100 284.75 1100 299 1100 c 2,25,-1
 474 1100 l 2,26,27
 589 1100 589 1100 589 1005 c 0,28,29
 589 983.563218391 589 983.563218391 584 960 c 2,30,-1
 410 140 l 2,31,32
 407 126 407 126 406 111 c 0,33,34
 406 50 406 50 481 50 c 2,35,-1
 526 50 l 2,36,37
 538 50 538 50 538 41 c 0,38,39
 538 40 538 40 537 35 c 2,40,-1
 533 15 l 2,41,42
 530 0 530 0 515 0 c 2,43,-1
 340 0 l 2,8,9
EndSplineSet
Validated: 1
EndChar

StartChar: j
Encoding: 106 106 19
Width: 580
GlyphClass: 2
Flags: W
HStem: -410 50<-103.864 7.11377> 1050 50<278.669 396.594> 1272 245<477.097 644.903>
VStem: 407 182<778.125 1046.61> 441 240<1309.13 1479.87>
DStem2: 112.798 -410 292.977 -410 0.207912 0.978148<231.202 1429.14>
LayerCount: 2
Fore
SplineSet
561 1272 m 128,-1,1
 511 1272 511 1272 476 1308 c 128,-1,2
 441 1344 441 1344 441 1394.5 c 128,-1,3
 441 1445 441 1445 476 1481 c 128,-1,4
 511 1517 511 1517 561 1517 c 128,-1,5
 611 1517 611 1517 646 1481 c 128,-1,6
 681 1445 681 1445 681 1394.5 c 128,-1,7
 681 1344 681 1344 646 1308 c 128,-1,0
 611 1272 611 1272 561 1272 c 128,-1,1
-94 -410 m 0,8,9
 -106 -410 -106 -410 -106 -400 c 0,10,11
 -106 -398 -106 -398 -106 -395 c 2,12,-1
 -102 -375 l 2,13,14
 -99 -360 -99 -360 -84 -360 c 16,15,16
 1 -360 1 -360 75 -286 c 0,17,18
 156.746073298 -204.253926702 156.746073298 -204.253926702 198 -10 c 2,19,-1
 404 960 l 2,20,21
 407 974 407 974 407 989 c 0,22,23
 407 1050 407 1050 333 1050 c 2,24,-1
 288 1050 l 2,25,26
 275 1050 275 1050 275 1059 c 0,27,28
 275 1061 275 1061 276 1065 c 2,29,-1
 281 1085 l 2,30,31
 284.75 1100 284.75 1100 299 1100 c 2,32,-1
 474 1100 l 2,33,34
 589 1100 589 1100 589 1005 c 0,35,36
 589 983.54368932 589 983.54368932 584 960 c 2,37,-1
 378 -10 l 2,38,39
 338 -200 338 -200 194 -311 c 0,40,41
 65 -410 65 -410 -94 -410 c 0,8,9
EndSplineSet
Validated: 1
EndChar

StartChar: k
Encoding: 107 107 20
Width: 1187
GlyphClass: 2
Flags: W
HStem: 0 50<1048.46 1142.28> 1020 100<830.138 1020.69> 1460 50<366 484.453>
VStem: 495 181<1182.5 1456.61> 1067 169<734.01 973.813>
DStem2: 199.623 0 379.623 0 0.207912 0.978148<28.1464 584.54 624.324 1429.38> 776 453 607 393 0.582489 -0.812838<0 465.132>
LayerCount: 2
Fore
SplineSet
230 0 m 2,0,1
 205 0 205 0 205 20 c 0,2,3
 205 25.298245614 205 25.298245614 206 30 c 2,4,-1
 491 1370 l 2,5,6
 494 1384 494 1384 495 1399 c 0,7,8
 495 1460 495 1460 420 1460 c 2,9,-1
 375 1460 l 2,10,11
 363 1460 363 1460 363 1469 c 0,12,13
 363 1470 363 1470 364 1475 c 2,14,-1
 368 1495 l 2,15,16
 371 1510 371 1510 386 1510 c 2,17,-1
 561 1510 l 2,18,19
 676 1510 676 1510 676 1415 c 0,20,21
 676 1393.55029586 676 1393.55029586 671 1370 c 2,22,-1
 502 574 l 1,23,24
 679 1120 679 1120 995 1120 c 0,25,26
 1129 1120 1129 1120 1192 1036 c 0,27,28
 1236 978 1236 978 1236 885 c 0,29,30
 1236 764 1236 764 1132 659 c 0,31,32
 998 522 998 522 776 453 c 1,33,-1
 1036.12988281 90 l 2,34,35
 1065 50 1065 50 1087.62792969 50 c 2,36,-1
 1132.62792969 50 l 2,37,38
 1145 50 1145 50 1145 41 c 0,39,40
 1145 38 1145 38 1144.43945312 35 c 2,41,-1
 1140.18847656 15 l 2,42,43
 1137.00024414 1.01654795692e-15 1137.00024414 1.01654795692e-15 1122 0 c 2,44,-1
 947 0 l 2,45,46
 887.557023291 0 887.557023291 0 834.729492188 74 c 2,47,-1
 607 393 l 18,48,49
 594 411 594 411 594.185748118 423.581624459 c 0,50,51
 594 445 594 445 630 450.952151434 c 0,52,53
 869 493 869 493 1009 683 c 0,54,55
 1067 761 1067 761 1067 846 c 0,56,57
 1067 902 1067 902 1046 941 c 0,58,59
 1004 1020 1004 1020 912 1020 c 0,60,61
 584 1020 584 1020 386 30 c 0,62,63
 380 0 380 0 350 0 c 2,64,-1
 230 0 l 2,0,1
EndSplineSet
Validated: 1
EndChar

StartChar: l
Encoding: 108 108 21
Width: 580
GlyphClass: 2
Flags: W
HStem: 0 50<416.547 535> 1460 50<366 484.453>
VStem: 225 181<53.4375 206.291> 495 181<1197.03 1456.61>
DStem2: 200.242 0 380.242 0 0.207912 0.978148<151.819 1429.25>
LayerCount: 2
Fore
SplineSet
340 0 m 2,0,1
 225 0 225 0 225 95 c 0,2,3
 225 116.436781609 225 116.436781609 230 140 c 2,4,-1
 491 1370 l 2,5,6
 494 1384 494 1384 495 1399 c 0,7,8
 495 1460 495 1460 420 1460 c 2,9,-1
 375 1460 l 2,10,11
 363 1460 363 1460 363 1468 c 0,12,13
 363 1470 363 1470 364 1475 c 2,14,-1
 368 1495 l 2,15,16
 371 1510 371 1510 386 1510 c 2,17,-1
 561 1510 l 2,18,19
 676 1510 676 1510 676 1415 c 0,20,21
 676 1393.56321839 676 1393.56321839 671 1370 c 2,22,-1
 410 140 l 2,23,24
 407 126 407 126 406 111 c 0,25,26
 406 50 406 50 481 50 c 2,27,-1
 526 50 l 2,28,29
 538 50 538 50 538 42 c 0,30,31
 538 40 538 40 537 35 c 2,32,-1
 533 15 l 2,33,34
 530 0 530 0 515 0 c 2,35,-1
 340 0 l 2,0,1
EndSplineSet
Validated: 1
EndChar

StartChar: m
Encoding: 109 109 22
Width: 1976
GlyphClass: 2
Flags: W
HStem: 0 50<1812.55 1931> 1020 100<829.234 1034.94 1529.79 1742.94> 1050 50<278.669 396.594>
VStem: 407 182<779.328 1046.61> 1066 179<718.912 988.188> 1621 181<53.3942 327.031> 1774 179<708.975 988.188>
DStem2: 199.623 0 379.623 0 0.207912 0.978148<28.1464 584.723 624.324 1010.05> 887.623 0 1067.62 0 0.207912 0.978148<28.1464 585.089 624.324 897.453> 1596.24 0 1776.24 0 0.207912 0.978148<151.819 897.325>
LayerCount: 2
Fore
SplineSet
230 0 m 2,0,1
 205 0 205 0 205 20 c 0,2,3
 205 25.303030303 205 25.303030303 206 30 c 2,4,-1
 404 960 l 2,5,6
 407 974 407 974 407 989 c 0,7,8
 407 1050 407 1050 333 1050 c 2,9,-1
 288 1050 l 2,10,11
 275 1050 275 1050 275 1059 c 0,12,13
 275 1061 275 1061 276 1065 c 2,14,-1
 281 1085 l 2,15,16
 285 1100 285 1100 299 1100 c 2,17,-1
 474 1100 l 2,18,19
 589 1100 589 1100 589 1005 c 0,20,21
 589 983.536585366 589 983.536585366 584 960 c 2,22,-1
 502 574 l 1,23,24
 679 1120 679 1120 996 1120 c 0,25,26
 1139 1120 1139 1120 1202 1036 c 0,27,28
 1245 979 1245 979 1245 886 c 0,29,30
 1245 830.666666667 1245 830.666666667 1232 770 c 2,31,-1
 1190 574 l 1,32,33
 1367 1120 1367 1120 1704 1120 c 0,34,35
 1847 1120 1847 1120 1910 1036 c 0,36,37
 1953 979 1953 979 1953 886 c 0,38,39
 1953 831.119402985 1953 831.119402985 1940 770 c 2,40,-1
 1806 140 l 2,41,42
 1803 126 1803 126 1802 111 c 0,43,44
 1802 50 1802 50 1877 50 c 2,45,-1
 1922 50 l 2,46,47
 1934 50 1934 50 1934 42 c 0,48,49
 1934 40 1934 40 1933 35 c 2,50,-1
 1929 15 l 2,51,52
 1926 0 1926 0 1911 0 c 2,53,-1
 1736 0 l 2,54,55
 1621 0 1621 0 1621 95 c 0,56,57
 1621 116.492537313 1621 116.492537313 1626 140 c 2,58,-1
 1760 770 l 2,59,60
 1774 836 1774 836 1774 881 c 0,61,62
 1774 918 1774 918 1764 941 c 0,63,64
 1731 1020 1731 1020 1630 1020 c 0,65,66
 1272 1020 1272 1020 1074 30 c 0,67,68
 1068 0 1068 0 1038 0 c 2,69,-1
 918 0 l 2,70,71
 893 0 893 0 893 20 c 0,72,73
 893 25.3164556962 893 25.3164556962 894 30 c 2,74,-1
 1052 770 l 2,75,76
 1066 836 1066 836 1066 881 c 0,77,78
 1066 918 1066 918 1056 941 c 0,79,80
 1023 1020 1023 1020 922 1020 c 0,81,82
 584 1020 584 1020 386 30 c 24,83,84
 380 0 380 0 350 0 c 2,85,-1
 230 0 l 2,0,1
EndSplineSet
Validated: 1
EndChar

StartChar: n
Encoding: 110 110 23
Width: 1288
GlyphClass: 2
Flags: W
HStem: 0 50<1124.55 1243> 1020 100<841.785 1054.94> 1050 50<278.669 396.594>
VStem: 407 182<779.328 1046.61> 933 181<53.3942 327.031> 1086 179<708.975 988.188>
DStem2: 199.623 0 379.623 0 0.207912 0.978148<28.1464 585.089 624.324 1010.05> 908.242 0 1088.24 0 0.207912 0.978148<151.819 897.325>
LayerCount: 2
Fore
SplineSet
230 0 m 2,0,1
 205 0 205 0 205 21 c 0,2,3
 205 25.303030303 205 25.303030303 206 30 c 2,4,-1
 404 960 l 2,5,6
 407 974 407 974 407 989 c 0,7,8
 407 1050 407 1050 333 1050 c 2,9,-1
 288 1050 l 2,10,11
 275 1050 275 1050 275 1058 c 0,12,13
 275 1061 275 1061 276 1065 c 2,14,-1
 281 1085 l 2,15,16
 284.75 1100 284.75 1100 299 1100 c 2,17,-1
 474 1100 l 2,18,19
 589 1100 589 1100 589 1005 c 0,20,21
 589 983.536585366 589 983.536585366 584 960 c 2,22,-1
 502 574 l 1,23,24
 679 1120 679 1120 1016 1120 c 0,25,26
 1159 1120 1159 1120 1222 1036 c 0,27,28
 1265 979 1265 979 1265 886 c 0,29,30
 1265 831.119402985 1265 831.119402985 1252 770 c 2,31,-1
 1118 140 l 2,32,33
 1115 126 1115 126 1114 111 c 0,34,35
 1114 50 1114 50 1189 50 c 2,36,-1
 1234 50 l 2,37,38
 1246 50 1246 50 1246 42 c 0,39,40
 1246 40 1246 40 1245 35 c 2,41,-1
 1241 15 l 2,42,43
 1238 0 1238 0 1223 0 c 2,44,-1
 1048 0 l 2,45,46
 933 0 933 0 933 95 c 0,47,48
 933 116.492537313 933 116.492537313 938 140 c 2,49,-1
 1072 770 l 2,50,51
 1086 836 1086 836 1086 881 c 0,52,53
 1086 918 1086 918 1076 941 c 0,54,55
 1043 1020 1043 1020 942 1020 c 0,56,57
 584 1020 584 1020 386 30 c 0,58,59
 380 0 380 0 350 0 c 2,60,-1
 230 0 l 2,0,1
EndSplineSet
Validated: 1
EndChar

StartChar: o
Encoding: 111 111 24
Width: 1186
GlyphClass: 2
Flags: W
HStem: -20 50<507.824 699.448> 1070 50<714.136 915.219>
VStem: 199 190<182.215 622.75> 1031 190<474.978 919.457>
LayerCount: 2
Fore
SplineSet
599 30 m 0,0,1
 717 30 717 30 830 156 c 0,2,3
 949 289 949 289 1005 550 c 0,4,5
 1031 673 1031 673 1031 769 c 0,6,7
 1031 879 1031 879 996 952 c 0,8,9
 940 1070 940 1070 820 1070 c 128,-1,10
 700 1070 700 1070 594 952 c 0,11,12
 471 814 471 814 415 550 c 0,13,14
 389 426 389 426 389 332 c 0,15,16
 389 225 389 225 422 156 c 0,17,18
 483 30 483 30 599 30 c 0,0,1
589 -20 m 128,-1,20
 377 -20 377 -20 280 119 c 0,21,22
 199 235 199 235 199 393 c 0,23,24
 199 467 199 467 217 550 c 0,25,26
 274 820 274 820 462 979 c 0,27,28
 629 1120 629 1120 831 1120 c 128,-1,29
 1033 1120 1033 1120 1140 979 c 0,30,31
 1221 871 1221 871 1221 713 c 0,32,33
 1221 637 1221 637 1203 550 c 0,34,35
 1148 289 1148 289 956 119 c 0,36,19
 801 -20 801 -20 589 -20 c 128,-1,20
EndSplineSet
Validated: 1
EndChar

StartChar: r
Encoding: 114 114 25
Width: 1108
GlyphClass: 2
Flags: W
HStem: 0 21G<217.5 365> 1020 100<841.785 1054.94> 1050 50<278.669 396.594>
VStem: 407 182<779.328 1046.61> 1086 179<760.156 988.047>
DStem2: 199.623 0 379.623 0 0.207912 0.978148<28.1464 585.089 624.324 1010.05>
LayerCount: 2
Fore
SplineSet
350 0 m 2,0,-1
 230 0 l 2,1,2
 205 0 205 0 205 20 c 0,3,4
 205 25.303030303 205 25.303030303 206 30 c 2,5,-1
 404 960 l 2,6,7
 407 974 407 974 407 989 c 0,8,9
 407 1050 407 1050 333 1050 c 2,10,-1
 288 1050 l 2,11,12
 275 1050 275 1050 275 1059 c 0,13,14
 275 1061 275 1061 276 1065 c 2,15,-1
 281 1085 l 2,16,17
 284.75 1100 284.75 1100 299 1100 c 2,18,-1
 474 1100 l 2,19,20
 589 1100 589 1100 589 1005 c 0,21,22
 589 983.536585366 589 983.536585366 584 960 c 2,23,-1
 502 574 l 1,24,25
 679 1120 679 1120 1016 1120 c 0,26,27
 1159 1120 1159 1120 1222 1036 c 0,28,29
 1265 979 1265 979 1265 885 c 0,30,31
 1265 833 1265 833 1252 770 c 0,32,33
 1246 740 1246 740 1215 740 c 2,34,-1
 1095 740 l 2,35,36
 1071 740 1071 740 1071 760 c 0,37,38
 1071 765 1071 765 1072 770 c 0,39,40
 1086 835 1086 835 1086 880 c 0,41,42
 1086 918 1086 918 1076 941 c 0,43,44
 1043 1020 1043 1020 942 1020 c 0,45,46
 584 1020 584 1020 386 30 c 0,47,48
 380 0 380 0 350 0 c 2,0,-1
EndSplineSet
Validated: 1
EndChar

StartChar: t
Encoding: 116 116 26
Width: 640
GlyphClass: 2
Flags: W
HStem: 0 50<446.547 565> 1040 60<237.583 451 644 857.417> 1460 50<396 514.453>
VStem: 255 181<53.4375 205.829> 525 181<1184.38 1456.61>
DStem2: 230.242 0 410.242 0 0.207912 0.978148<151.819 1063.17 1161.99 1429.25>
LayerCount: 2
Fore
SplineSet
370 0 m 2,0,1
 255 0 255 0 255 95 c 0,2,3
 255 116.439790576 255 116.439790576 260 140 c 2,4,-1
 451 1040 l 1,5,-1
 246 1040 l 2,6,7
 233 1040 233 1040 233 1048 c 0,8,9
 233 1050.71428571 233 1050.71428571 234 1055 c 2,10,-1
 241 1085 l 2,11,12
 244 1100 244 1100 259 1100 c 2,13,-1
 464 1100 l 1,14,-1
 521 1370 l 2,15,16
 524 1384 524 1384 525 1399 c 0,17,18
 525 1460 525 1460 450 1460 c 2,19,-1
 405 1460 l 2,20,21
 393 1460 393 1460 393 1468 c 0,22,23
 393 1470 393 1470 394 1475 c 2,24,-1
 398 1495 l 2,25,26
 401 1510 401 1510 416 1510 c 2,27,-1
 591 1510 l 2,28,29
 706 1510 706 1510 706 1415 c 0,30,31
 706 1393.68421053 706 1393.68421053 701 1370 c 2,32,-1
 644 1100 l 1,33,-1
 849 1100 l 2,34,35
 862 1100 862 1100 862 1091 c 0,36,37
 862 1089.28571429 862 1089.28571429 861 1085 c 2,38,-1
 854 1055 l 2,39,40
 850 1040 850 1040 836 1040 c 2,41,-1
 631 1040 l 1,42,-1
 440 140 l 2,43,44
 437 126 437 126 436 111 c 0,45,46
 436 50 436 50 511 50 c 2,47,-1
 556 50 l 2,48,49
 568 50 568 50 568 42 c 0,50,51
 568 40 568 40 567 35 c 2,52,-1
 563 15 l 2,53,54
 560 0 560 0 545 0 c 2,55,-1
 370 0 l 2,0,1
EndSplineSet
Validated: 1
EndChar

StartChar: u
Encoding: 117 117 27
Width: 1288
GlyphClass: 2
Flags: W
HStem: -20 100<467.057 680.084> 0 50<1124.55 1243> 1050 50<278.669 396.594>
VStem: 257 179<111.812 391.025> 407 182<772.969 1046.61> 933 181<53.4375 203.606>
DStem2: 195.605 -20 375.605 -20 0.207912 0.978148<285.139 1030.44> 903.991 -20 1083.99 -20 0.207912 0.978148<172.266 558.188 597.234 1154.37>
LayerCount: 2
Fore
SplineSet
1048 0 m 2,0,1
 933 0 933 0 933 95 c 0,2,3
 933 116.463414634 933 116.463414634 938 140 c 2,4,-1
 1020 526 l 1,5,6
 843 -20 843 -20 506 -20 c 0,7,8
 363 -20 363 -20 300 64 c 0,9,10
 257 121 257 121 257 214 c 0,11,12
 257 268.880597015 257 268.880597015 270 330 c 2,13,-1
 404 960 l 2,14,15
 407 974 407 974 407 989 c 0,16,17
 407 1050 407 1050 333 1050 c 2,18,-1
 288 1050 l 2,19,20
 275 1050 275 1050 275 1058 c 0,21,22
 275 1061 275 1061 276 1065 c 2,23,-1
 281 1085 l 2,24,25
 284.75 1100 284.75 1100 299 1100 c 2,26,-1
 474 1100 l 2,27,28
 589 1100 589 1100 589 1005 c 0,29,30
 589 983.507462687 589 983.507462687 584 960 c 2,31,-1
 450 330 l 2,32,33
 436 264 436 264 436 219 c 0,34,35
 436 182 436 182 446 159 c 0,36,37
 479 80 479 80 580 80 c 0,38,39
 937 80 937 80 1135 1070 c 0,40,41
 1141 1100 1141 1100 1172 1100 c 2,42,-1
 1292 1100 l 2,43,44
 1317 1100 1317 1100 1317 1080 c 0,45,46
 1317 1079.44162437 1317 1079.44162437 1315 1070 c 2,47,-1
 1118 140 l 2,48,49
 1115 126 1115 126 1114 111 c 0,50,51
 1114 50 1114 50 1189 50 c 2,52,-1
 1234 50 l 2,53,54
 1246 50 1246 50 1246 42 c 0,55,56
 1246 40 1246 40 1245 35 c 2,57,-1
 1241 15 l 2,58,59
 1238 0 1238 0 1223 0 c 2,60,-1
 1048 0 l 2,0,1
EndSplineSet
Validated: 1
EndChar

StartChar: v
Encoding: 118 118 28
Width: 1188
GlyphClass: 2
Flags: W
HStem: -20 100<470.031 754.436> 1050 50<279 397.453>
VStem: 256 179<117.34 390.615> 408 181<782.812 1046.61> 1075 158<544.848 950.418>
DStem2: 194.605 -20 374.605 -20 0.207912 0.978148<285.17 1031.01>
LayerCount: 2
Fore
SplineSet
505 -20 m 0,0,1
 362 -20 362 -20 299 64 c 0,2,3
 256 121 256 121 256 214 c 0,4,5
 256 269.333333333 256 269.333333333 269 330 c 2,6,-1
 404 960 l 2,7,8
 408 979 408 979 408 989 c 0,9,10
 408 1050 408 1050 333 1050 c 2,11,-1
 288 1050 l 2,12,13
 276 1050 276 1050 276 1058 c 0,14,15
 276 1060 276 1060 277 1065 c 2,16,-1
 281 1085 l 2,17,18
 284 1100 284 1100 299 1100 c 2,19,-1
 474 1100 l 2,20,21
 589 1100 589 1100 589 1005 c 0,22,23
 589 983.333333333 589 983.333333333 584 960 c 2,24,-1
 449 330 l 2,25,26
 435 265 435 265 435 219 c 0,27,28
 435 182 435 182 445 159 c 0,29,30
 479 80 479 80 634 80 c 0,31,32
 815 80 815 80 939 218 c 0,33,34
 1016 303 1016 303 1050 453 c 0,35,36
 1075 562 1075 562 1075 707 c 0,37,38
 1075 860 1075 860 985 1070 c 0,39,40
 982 1077 982 1077 982 1082 c 0,41,42
 982 1100 982 1100 1021 1100 c 2,43,-1
 1171 1100 l 2,44,45
 1190 1100 1190 1100 1196 1080 c 0,46,47
 1233 950 1233 950 1233 822 c 0,48,49
 1233 663 1233 663 1176 507 c 0,50,51
 985 -20 985 -20 505 -20 c 0,0,1
EndSplineSet
Validated: 1
EndChar

StartChar: w
Encoding: 119 119 29
Width: 1897
GlyphClass: 2
Flags: W
HStem: -20 100<467.244 680.215 1179.03 1463.44> 1050 50<279 397.453>
VStem: 257 179<111.812 391.025> 408 181<772.969 1046.61> 965 179<116.797 471.344> 1784 158<544.848 950.418>
DStem2: 195.605 -20 375.605 -20 0.207912 0.978148<285.145 1030.8> 903.605 -20 1083.61 -20 0.207912 0.978148<285.152 558.268 597.503 1154.45>
LayerCount: 2
Fore
SplineSet
506 -20 m 0,0,1
 363 -20 363 -20 300 64 c 0,2,3
 257 121 257 121 257 214 c 0,4,5
 257 269 257 269 270 330 c 2,6,-1
 404 960 l 2,7,8
 408 979 408 979 408 989 c 0,9,10
 408 1050 408 1050 333 1050 c 2,11,-1
 288 1050 l 2,12,13
 276 1050 276 1050 276 1060 c 0,14,15
 276 1062 276 1062 277 1065 c 2,16,-1
 281 1085 l 2,17,18
 284 1100 284 1100 299 1100 c 2,19,-1
 474 1100 l 2,20,21
 589 1100 589 1100 589 1005 c 0,22,23
 589 984 589 984 584 960 c 2,24,-1
 450 330 l 2,25,26
 436 264.178710938 436 264.178710938 436 219 c 0,27,28
 436 182 436 182 446 159 c 0,29,30
 480 80 480 80 580 80 c 0,31,32
 938 80 938 80 1136 1070 c 0,33,34
 1142 1100 1142 1100 1172 1100 c 2,35,36
 1292 1100 l 2,37,38
 1317 1100 1317 1100 1317 1080 c 0,39,40
 1317 1075 1317 1075 1316 1070 c 2,41,-1
 1158 330 l 2,42,43
 1144 264.430664062 1144 264.430664062 1144 219 c 0,44,45
 1144 182 1144 182 1154 159 c 0,46,47
 1188 80 1188 80 1343 80 c 0,48,49
 1524 80 1524 80 1648 218 c 0,50,51
 1725 303 1725 303 1759 453 c 0,52,53
 1784 562 1784 562 1784 707 c 0,54,55
 1784 860 1784 860 1694 1070 c 0,56,57
 1691 1077 1691 1077 1691 1082 c 0,58,59
 1691 1100 1691 1100 1730 1100 c 2,60,-1
 1880 1100 l 2,61,62
 1899 1100 1899 1100 1905 1080 c 0,63,64
 1942 950 1942 950 1942 822 c 0,65,66
 1942 663 1942 663 1885 507 c 0,67,68
 1694 -20 1694 -20 1214 -20 c 0,69,70
 1071 -20 1071 -20 1008 64 c 0,71,72
 965 121 965 121 965 214 c 0,73,74
 965 269 965 269 978 330 c 2,75,-1
 1020 526 l 1,76,77
 843 -20 843 -20 506 -20 c 0,0,1
EndSplineSet
Validated: 1
EndChar

StartChar: y
Encoding: 121 121 30
Width: 1288
GlyphClass: 2
Flags: W
HStem: -430 50<367.875 619.417> -20 100<467.057 680.084> 1050 50<278.669 396.594>
VStem: 174 87<-298.448 -79.9688> 257 179<111.812 391.025> 407 182<772.969 1046.61>
DStem2: 108.457 -430 288.457 -430 0.207912 0.978148<704.299 1449.6> 817.055 -430 997.055 -430 0.207912 0.978148<337.507 977.304 1016.35 1573.48>
LayerCount: 2
Fore
SplineSet
506 -20 m 0,0,1
 363 -20 363 -20 300 64 c 0,2,3
 257 121 257 121 257 214 c 0,4,5
 257 268.880597015 257 268.880597015 270 330 c 2,6,-1
 404 960 l 2,7,8
 407 974 407 974 407 989 c 0,9,10
 407 1050 407 1050 333 1050 c 2,11,-1
 288 1050 l 2,12,13
 275 1050 275 1050 275 1058 c 0,14,15
 275 1061 275 1061 276 1065 c 2,16,-1
 281 1085 l 2,17,18
 284.75 1100 284.75 1100 299 1100 c 2,19,-1
 474 1100 l 2,20,21
 589 1100 589 1100 589 1005 c 0,22,23
 589 983.507462687 589 983.507462687 584 960 c 2,24,-1
 450 330 l 2,25,26
 436 264 436 264 436 219 c 0,27,28
 436 182 436 182 446 159 c 0,29,30
 479 80 479 80 580 80 c 0,31,32
 937 80 937 80 1135 1070 c 0,33,34
 1141 1100 1141 1100 1172 1100 c 2,35,-1
 1292 1100 l 2,36,37
 1316 1100 1316 1100 1316 1082 c 0,38,39
 1316 1074.72588832 1316 1074.72588832 1315 1070 c 2,40,-1
 1118 139 l 2,41,42
 1059 -140 1059 -140 880 -290 c 0,43,44
 712 -430 712 -430 520 -430 c 0,45,46
 314 -430 314 -430 195 -322 c 0,47,48
 174 -303 174 -303 174 -272 c 0,49,50
 174 -257.454545455 174 -257.454545455 176 -248 c 2,51,-1
 209 -92 l 2,52,53
 212 -78 212 -78 227 -78 c 2,54,-1
 250 -78 l 2,55,56
 262 -78 262 -78 262 -92 c 0,57,58
 262 -114 262 -114 261 -136 c 0,59,60
 261 -380 261 -380 489 -380 c 0,61,62
 646 -380 646 -380 762 -254 c 0,63,64
 882.355505869 -123.614868642 882.355505869 -123.614868642 938 139 c 2,65,-1
 1020 526 l 1,66,67
 843 -20 843 -20 506 -20 c 0,0,1
EndSplineSet
Validated: 1
EndChar

StartChar: z
Encoding: 122 122 31
Width: 990
GlyphClass: 2
Flags: W
HStem: 0 60<258 768.292> 1040 60<455.447 897>
LayerCount: 2
Fore
SplineSet
106 0 m 2,0,1
 71 0 71 0 71 18 c 0,2,3
 71 30 71 30 93 78 c 0,4,5
 265 451 265 451 500 614 c 0,6,7
 795 818 795 818 897 1040 c 1,8,-1
 598 1040 l 2,9,10
 419 1040 419 1040 286 874 c 0,11,12
 278 864 278 864 271 864 c 0,13,14
 267 864 267 864 264 866 c 2,15,-1
 245 877 l 2,16,17
 239 880 239 880 239 887 c 0,18,19
 239 892 239 892 242 896 c 2,20,-1
 354 1037 l 2,21,22
 404 1100 404 1100 475 1100 c 2,23,-1
 1058 1100 l 2,24,25
 1092 1100 1092 1100 1092 1080 c 0,26,27
 1092 1064 1092 1064 1078 1034 c 0,28,29
 939 738 939 738 706 575 c 0,30,31
 365 336 365 336 258 60 c 1,32,-1
 626 60 l 2,33,34
 805 60 805 60 938 226 c 0,35,36
 946 236 946 236 953 236 c 0,37,38
 957 236 957 236 960 234 c 2,39,-1
 978 223 l 2,40,41
 985 219 985 219 985 213 c 0,42,43
 985 209 985 209 981 204 c 2,44,-1
 869 63 l 2,45,46
 819 0 819 0 749 0 c 2,47,-1
 106 0 l 2,0,1
EndSplineSet
Validated: 1
EndChar

StartChar: figuredash
Encoding: 8210 8210 33
Width: 1133
GlyphClass: 2
Flags: W
HStem: 680 150<317.807 1136.19>
LayerCount: 2
Fore
SplineSet
376 830 m 2,0,-1
 1109 830 l 2,1,2
 1151 830 1151 830 1151 796 c 0,3,4
 1151 789 1151 789 1149 780 c 2,5,-1
 1138 730 l 2,6,7
 1127 680 1127 680 1078 680 c 2,8,-1
 345 680 l 2,9,10
 303 680 303 680 303 714 c 0,11,12
 303 721 303 721 305 730 c 2,13,-1
 316 780 l 2,14,15
 326 830 326 830 376 830 c 2,0,-1
EndSplineSet
Validated: 1
EndChar

StartChar: endash
Encoding: 8211 8211 34
Width: 1533
GlyphClass: 2
Flags: W
HStem: 680 150<317.525 1536.19>
LayerCount: 2
Fore
SplineSet
376 830 m 2,0,-1
 1509 830 l 2,1,2
 1551 830 1551 830 1551 796 c 0,3,4
 1551 789 1551 789 1549 780 c 2,5,-1
 1538 730 l 2,6,7
 1527 680 1527 680 1478 680 c 2,8,-1
 345 680 l 2,9,10
 304 680 304 680 303 714 c 0,11,12
 303 721 303 721 305 730 c 2,13,-1
 316 780 l 2,14,15
 326 830 326 830 376 830 c 2,0,-1
EndSplineSet
Validated: 1
EndChar

StartChar: emdash
Encoding: 8212 8212 35
Width: 1533
GlyphClass: 2
Flags: W
HStem: 680 150<317.525 1536.19>
LayerCount: 2
Fore
SplineSet
376 830 m 2,0,-1
 1509 830 l 2,1,2
 1551 830 1551 830 1551 796 c 0,3,4
 1551 789 1551 789 1549 780 c 2,5,-1
 1538 730 l 2,6,7
 1527 680 1527 680 1478 680 c 2,8,-1
 345 680 l 2,9,10
 304 680 304 680 303 714 c 0,11,12
 303 721 303 721 305 730 c 2,13,-1
 316 780 l 2,14,15
 326 830 326 830 376 830 c 2,0,-1
EndSplineSet
Validated: 1
EndChar

StartChar: quoteleft
Encoding: 8216 8216 36
Width: 336
GlyphClass: 2
Flags: W
HStem: 1044 566
VStem: 321 145<1182.07 1414.13>
LayerCount: 2
Fore
SplineSet
401 1044 m 0,0,1
 382 1044 382 1044 370 1062 c 0,2,3
 321 1132 321 1132 321 1234 c 0,4,5
 321 1264 321 1264 325 1296 c 0,6,7
 347 1467 347 1467 546 1601 c 24,8,9
 559 1610 559 1610 571 1610 c 0,10,11
 579 1610 579 1610 584 1603 c 2,12,-1
 594 1590 l 2,13,14
 597 1586 597 1586 597 1579 c 128,-1,15
 597 1572 597 1572 590 1567 c 0,16,17
 497 1490 497 1490 473 1377 c 0,18,19
 466 1343 466 1343 466 1313 c 0,20,21
 466 1228 466 1228 522 1168 c 0,22,23
 530 1159 530 1159 530 1148 c 0,24,25
 530 1128 530 1128 501 1107 c 2,26,-1
 422 1050 l 2,27,28
 414 1044 414 1044 401 1044 c 0,0,1
EndSplineSet
Validated: 1
EndChar

StartChar: quoteright
Encoding: 8217 8217 37
Width: 336
GlyphClass: 2
Flags: W
HStem: 1044 566
VStem: 433 145<1239.87 1471.93>
LayerCount: 2
Fore
SplineSet
498 1610 m 0,0,1
 517 1610 517 1610 529 1592 c 0,2,3
 578 1522 578 1522 578 1420 c 0,4,5
 578 1390 578 1390 574 1358 c 0,6,7
 552 1187 552 1187 353 1053 c 24,8,9
 340 1044 340 1044 328 1044 c 0,10,11
 320 1044 320 1044 315 1051 c 2,12,-1
 305 1064 l 2,13,14
 302 1068 302 1068 302 1075 c 128,-1,15
 302 1082 302 1082 309 1087 c 0,16,17
 402 1164 402 1164 426 1277 c 0,18,19
 433 1311 433 1311 433 1341 c 0,20,21
 433 1426 433 1426 377 1486 c 0,22,23
 369 1495 369 1495 369 1506 c 0,24,25
 369 1526 369 1526 398 1547 c 2,26,-1
 477 1604 l 2,27,28
 485 1610 485 1610 498 1610 c 0,0,1
EndSplineSet
Validated: 1
EndChar

StartChar: quotesinglbase
Encoding: 8218 8218 38
Width: 336
GlyphClass: 2
Flags: W
HStem: -280 566
VStem: 152 145<-84.1277 147.93>
LayerCount: 2
Fore
SplineSet
217 286 m 0,0,1
 236 286 236 286 248 268 c 0,2,3
 297 198 297 198 297 96 c 0,4,5
 297 66 297 66 293 34 c 0,6,7
 271 -137 271 -137 72 -271 c 24,8,9
 59 -280 59 -280 47 -280 c 0,10,11
 39 -280 39 -280 34 -273 c 2,12,-1
 24 -260 l 2,13,14
 21 -256 21 -256 21 -249 c 128,-1,15
 21 -242 21 -242 28 -237 c 0,16,17
 121 -160 121 -160 145 -47 c 0,18,19
 152 -13 152 -13 152 17 c 0,20,21
 152 102 152 102 96 162 c 0,22,23
 88 171 88 171 88 182 c 0,24,25
 88 202 88 202 117 223 c 2,26,-1
 196 280 l 2,27,28
 204 286 204 286 217 286 c 0,0,1
EndSplineSet
Validated: 1
EndChar

StartChar: quotereversed
Encoding: 8219 8219 39
Width: 336
GlyphClass: 2
Flags: W
HStem: 1044 566
VStem: 332 117<1120.71 1388.36>
LayerCount: 2
Fore
SplineSet
522 1610 m 0,0,1
 535 1610 535 1610 541 1604 c 2,2,-1
 596 1547 l 2,3,4
 608 1535 608 1535 608 1515 c 0,5,6
 608 1498 608 1498 590 1486 c 0,7,8
 468 1400 468 1400 452 1277 c 0,9,10
 449 1250 449 1250 449 1226 c 0,11,12
 449 1142 449 1142 489 1087 c 0,13,14
 492 1083 492 1083 492 1078 c 0,15,16
 492 1071 492 1071 483 1064 c 2,17,-1
 467 1051 l 2,18,19
 458 1044 458 1044 451 1044 c 0,20,21
 439 1044 439 1044 430 1053 c 16,22,23
 332 1151 332 1151 332 1285 c 0,24,25
 332 1320 332 1320 339 1358 c 0,26,27
 365 1504 365 1504 483 1592 c 0,28,29
 507 1610 507 1610 522 1610 c 0,0,1
EndSplineSet
Validated: 1
EndChar

StartChar: quotedblleft
Encoding: 8220 8220 40
Width: 642
GlyphClass: 2
Flags: W
HStem: 1044 566
VStem: 321 145<1182.07 1414.13> 627 145<1182.07 1414.13>
LayerCount: 2
Fore
SplineSet
401 1044 m 0,0,1
 382 1044 382 1044 370 1062 c 0,2,3
 321 1132 321 1132 321 1234 c 0,4,5
 321 1264 321 1264 325 1296 c 0,6,7
 347 1467 347 1467 546 1601 c 24,8,9
 559 1610 559 1610 571 1610 c 0,10,11
 579 1610 579 1610 584 1603 c 2,12,-1
 594 1590 l 2,13,14
 597 1586 597 1586 597 1579 c 128,-1,15
 597 1572 597 1572 590 1567 c 0,16,17
 497 1490 497 1490 473 1377 c 0,18,19
 466 1343 466 1343 466 1313 c 0,20,21
 466 1228 466 1228 522 1168 c 0,22,23
 530 1159 530 1159 530 1148 c 0,24,25
 530 1128 530 1128 501 1107 c 2,26,-1
 422 1050 l 2,27,28
 414 1044 414 1044 401 1044 c 0,0,1
707 1044 m 0,29,30
 688 1044 688 1044 676 1062 c 0,31,32
 627 1132 627 1132 627 1234 c 0,33,34
 627 1264 627 1264 631 1296 c 0,35,36
 653 1467 653 1467 852 1601 c 24,37,38
 865 1610 865 1610 877 1610 c 0,39,40
 885 1610 885 1610 890 1603 c 2,41,-1
 900 1590 l 2,42,43
 903 1586 903 1586 903 1579 c 128,-1,44
 903 1572 903 1572 896 1567 c 0,45,46
 803 1490 803 1490 779 1377 c 0,47,48
 772 1343 772 1343 772 1313 c 0,49,50
 772 1228 772 1228 828 1168 c 0,51,52
 836 1159 836 1159 836 1148 c 0,53,54
 836 1128 836 1128 807 1107 c 2,55,-1
 728 1050 l 2,56,57
 720 1044 720 1044 707 1044 c 0,29,30
EndSplineSet
Validated: 1
EndChar

StartChar: quotedblright
Encoding: 8221 8221 41
Width: 642
GlyphClass: 2
Flags: W
HStem: 1044 566
VStem: 434 145<1239.87 1471.93> 740 145<1239.87 1471.93>
LayerCount: 2
Fore
SplineSet
805 1610 m 0,0,1
 824 1610 824 1610 836 1592 c 0,2,3
 885 1522 885 1522 885 1420 c 0,4,5
 885 1390 885 1390 881 1358 c 0,6,7
 859 1187 859 1187 660 1053 c 24,8,9
 647 1044 647 1044 635 1044 c 0,10,11
 627 1044 627 1044 622 1051 c 2,12,-1
 612 1064 l 2,13,14
 609 1068 609 1068 609 1075 c 128,-1,15
 609 1082 609 1082 616 1087 c 0,16,17
 709 1164 709 1164 733 1277 c 0,18,19
 740 1311 740 1311 740 1341 c 0,20,21
 740 1426 740 1426 684 1486 c 0,22,23
 676 1495 676 1495 676 1506 c 0,24,25
 676 1526 676 1526 705 1547 c 2,26,-1
 784 1604 l 2,27,28
 792 1610 792 1610 805 1610 c 0,0,1
499 1610 m 0,29,30
 518 1610 518 1610 530 1592 c 0,31,32
 579 1522 579 1522 579 1420 c 0,33,34
 579 1390 579 1390 575 1358 c 0,35,36
 553 1187 553 1187 354 1053 c 24,37,38
 341 1044 341 1044 329 1044 c 0,39,40
 321 1044 321 1044 316 1051 c 2,41,-1
 306 1064 l 2,42,43
 303 1068 303 1068 303 1075 c 128,-1,44
 303 1082 303 1082 310 1087 c 0,45,46
 403 1164 403 1164 427 1277 c 0,47,48
 434 1311 434 1311 434 1341 c 0,49,50
 434 1426 434 1426 378 1486 c 0,51,52
 370 1495 370 1495 370 1506 c 0,53,54
 370 1526 370 1526 399 1547 c 2,55,-1
 478 1604 l 2,56,57
 486 1610 486 1610 499 1610 c 0,29,30
EndSplineSet
Validated: 1
EndChar

StartChar: quotedblbase
Encoding: 8222 8222 42
Width: 642
GlyphClass: 2
Flags: W
HStem: -280 566
VStem: 152 145<-84.1277 147.93> 458 145<-84.1277 147.93>
LayerCount: 2
Fore
SplineSet
523 286 m 0,0,1
 542 286 542 286 554 268 c 0,2,3
 603 198 603 198 603 96 c 0,4,5
 603 66 603 66 599 34 c 0,6,7
 577 -137 577 -137 378 -271 c 24,8,9
 365 -280 365 -280 353 -280 c 0,10,11
 345 -280 345 -280 340 -273 c 2,12,-1
 330 -260 l 2,13,14
 327 -256 327 -256 327 -249 c 128,-1,15
 327 -242 327 -242 334 -237 c 0,16,17
 427 -160 427 -160 451 -47 c 0,18,19
 458 -13 458 -13 458 17 c 0,20,21
 458 102 458 102 402 162 c 0,22,23
 394 171 394 171 394 182 c 0,24,25
 394 202 394 202 423 223 c 2,26,-1
 502 280 l 2,27,28
 510 286 510 286 523 286 c 0,0,1
217 286 m 0,29,30
 236 286 236 286 248 268 c 0,31,32
 297 198 297 198 297 96 c 0,33,34
 297 66 297 66 293 34 c 0,35,36
 271 -137 271 -137 72 -271 c 24,37,38
 59 -280 59 -280 47 -280 c 0,39,40
 39 -280 39 -280 34 -273 c 2,41,-1
 24 -260 l 2,42,43
 21 -256 21 -256 21 -249 c 128,-1,44
 21 -242 21 -242 28 -237 c 0,45,46
 121 -160 121 -160 145 -47 c 0,47,48
 152 -13 152 -13 152 17 c 0,49,50
 152 102 152 102 96 162 c 0,51,52
 88 171 88 171 88 182 c 0,53,54
 88 202 88 202 117 223 c 2,55,-1
 196 280 l 2,56,57
 204 286 204 286 217 286 c 0,29,30
EndSplineSet
Validated: 1
EndChar

StartChar: dagger
Encoding: 8224 8224 43
Width: 1150
GlyphClass: 2
Flags: W
HStem: 0 21G<493.5 659> 1044 100<383.913 697 918 1231.66> 1490 20G<813 976.5>
DStem2: 474.623 0 674.623 0 0.207912 0.978148<32.3566 1067.42 1211.18 1553.05>
LayerCount: 2
Fore
SplineSet
507 0 m 2,0,1
 480 0 480 0 480 21 c 0,2,3
 480 25 480 25 481 30 c 2,4,-1
 697 1044 l 1,5,-1
 403 1044 l 2,6,7
 377 1044 377 1044 377 1063 c 0,8,9
 377 1067 377 1067 378 1071 c 2,10,-1
 387 1116 l 2,11,12
 393 1144 393 1144 424 1144 c 2,13,-1
 718 1144 l 1,14,-1
 789 1477 l 2,15,16
 796 1510 796 1510 830 1510 c 2,17,-1
 963 1510 l 2,18,19
 990 1510 990 1510 990 1488 c 0,20,21
 990 1483 990 1483 989 1477 c 2,22,-1
 918 1144 l 1,23,-1
 1211 1144 l 2,24,25
 1238 1144 1238 1144 1238 1124 c 0,26,27
 1238 1120 1238 1120 1237 1115 c 2,28,-1
 1228 1071 l 2,29,30
 1222 1044 1222 1044 1190 1044 c 2,31,-1
 897 1044 l 1,32,-1
 681 30 l 2,33,34
 675 0 675 0 643 0 c 2,35,-1
 507 0 l 2,0,1
EndSplineSet
Validated: 1
EndChar

StartChar: daggerdbl
Encoding: 8225 8225 44
Width: 1150
GlyphClass: 2
Flags: W
HStem: 0 21G<493.5 659> 366 100<239.344 553 774 1087.09> 1044 100<383.913 697 918 1231.66> 1490 20G<813 976.5>
DStem2: 474.623 0 674.623 0 0.207912 0.978148<32.3566 374.297 518.061 1067.42 1211.18 1553.05>
LayerCount: 2
Fore
SplineSet
507 0 m 2,0,1
 480 0 480 0 480 21 c 0,2,3
 480 25 480 25 481 30 c 2,4,-1
 553 366 l 1,5,-1
 260 366 l 2,6,7
 233 366 233 366 233 386 c 0,8,9
 233 390 233 390 234 395 c 2,10,-1
 243 439 l 2,11,12
 249 466 249 466 281 466 c 2,13,-1
 574 466 l 1,14,-1
 697 1044 l 1,15,-1
 403 1044 l 2,16,17
 377 1044 377 1044 377 1063 c 0,18,19
 377 1067 377 1067 378 1071 c 2,20,-1
 387 1116 l 2,21,22
 393 1144 393 1144 424 1144 c 2,23,-1
 718 1144 l 1,24,-1
 789 1477 l 2,25,26
 796 1510 796 1510 830 1510 c 2,27,-1
 963 1510 l 2,28,29
 990 1510 990 1510 990 1488 c 0,30,31
 990 1483 990 1483 989 1477 c 2,32,-1
 918 1144 l 1,33,-1
 1211 1144 l 2,34,35
 1238 1144 1238 1144 1238 1124 c 0,36,37
 1238 1120 1238 1120 1237 1115 c 2,38,-1
 1228 1071 l 2,39,40
 1222 1044 1222 1044 1190 1044 c 2,41,-1
 897 1044 l 1,42,-1
 774 466 l 1,43,-1
 1068 466 l 2,44,45
 1094 466 1094 466 1094 447 c 0,46,47
 1094 443 1094 443 1093 439 c 2,48,-1
 1084 394 l 2,49,50
 1078 366 1078 366 1047 366 c 2,51,-1
 753 366 l 1,52,-1
 681 30 l 2,53,54
 675 0 675 0 643 0 c 2,55,-1
 507 0 l 2,0,1
EndSplineSet
Validated: 1
EndChar

StartChar: bullet
Encoding: 8226 8226 45
Width: 900
GlyphClass: 2
Flags: W
HStem: 437 625<455.516 762.484>
VStem: 309 600<586.886 913.114>
LayerCount: 2
Fore
SplineSet
612 1062 m 0,0,1
 734 1062 734 1062 821 971 c 0,2,3
 909 879 909 879 909 750 c 128,-1,4
 909 621 909 621 821 529 c 128,-1,5
 733 437 733 437 609 437 c 256,6,7
 485 437 485 437 397 529 c 128,-1,8
 309 621 309 621 309 750 c 128,-1,9
 309 879 309 879 397 971 c 0,10,11
 484 1062 484 1062 612 1062 c 0,0,1
EndSplineSet
Validated: 1
EndChar

StartChar: ellipsis
Encoding: 8230 8230 46
Width: 1012
GlyphClass: 2
Flags: W
HStem: -20 245<108.097 275.903 444.097 611.903 780.097 947.903>
VStem: 72 240<17.1285 187.871> 408 240<17.1285 187.871> 744 240<17.1285 187.871>
CounterMasks: 1 70
LayerCount: 2
Fore
SplineSet
864 -20 m 128,-1,1
 814 -20 814 -20 779 16 c 128,-1,2
 744 52 744 52 744 102.5 c 128,-1,3
 744 153 744 153 779 189 c 128,-1,4
 814 225 814 225 864 225 c 128,-1,5
 914 225 914 225 949 189 c 128,-1,6
 984 153 984 153 984 102.5 c 128,-1,7
 984 52 984 52 949 16 c 128,-1,0
 914 -20 914 -20 864 -20 c 128,-1,1
528 -20 m 128,-1,9
 478 -20 478 -20 443 16 c 128,-1,10
 408 52 408 52 408 102.5 c 128,-1,11
 408 153 408 153 443 189 c 128,-1,12
 478 225 478 225 528 225 c 128,-1,13
 578 225 578 225 613 189 c 128,-1,14
 648 153 648 153 648 102.5 c 128,-1,15
 648 52 648 52 613 16 c 128,-1,8
 578 -20 578 -20 528 -20 c 128,-1,9
192 -20 m 128,-1,17
 142 -20 142 -20 107 16 c 128,-1,18
 72 52 72 52 72 102.5 c 128,-1,19
 72 153 72 153 107 189 c 128,-1,20
 142 225 142 225 192 225 c 128,-1,21
 242 225 242 225 277 189 c 128,-1,22
 312 153 312 153 312 102.5 c 128,-1,23
 312 52 312 52 277 16 c 128,-1,16
 242 -20 242 -20 192 -20 c 128,-1,17
EndSplineSet
Validated: 1
EndChar

StartChar: perthousand
Encoding: 8240 8240 47
Width: 2247
GlyphClass: 2
Flags: W
HStem: -20 44<1035.81 1165.92 1735.81 1865.92> 552 44<1138.66 1268.9 1838.66 1968.9> 914 44<599.102 729.34> 1486 44<702.077 832.194>
VStem: 402 138<1011.85 1319.38> 840 138<78.8662 385.375> 890 138<1124.62 1431.13> 1328 138<190.625 498.153> 1540 138<78.8662 385.375> 2028 138<190.625 498.153>
DStem2: 304 65 421 -12 0.619557 0.784952<-37.6584 1904.37>
LayerCount: 2
Fore
SplineSet
375 -40 m 0,0,1
 362 -40 362 -40 349 -31 c 2,2,-1
 307 -3 l 2,3,4
 287 11 287 11 287 30 c 0,5,6
 287 44 287 44 304 65 c 2,7,-1
 1454 1522 l 2,8,9
 1476 1550 1476 1550 1497 1550 c 0,10,11
 1512 1550 1512 1550 1526 1541 c 2,12,-1
 1568 1513 l 2,13,14
 1587 1500 1587 1500 1587 1482 c 0,15,16
 1587 1465 1587 1465 1571 1445 c 2,17,-1
 421 -12 l 2,18,19
 399 -40 399 -40 375 -40 c 0,0,1
1909 552 m 128,-1,21
 1841 552 1841 552 1776 474 c 128,-1,22
 1711 396 1711 396 1688 288 c 16,23,24
 1678 243 1678 243 1678 203 c 0,25,26
 1678 147 1678 147 1697 102 c 0,27,28
 1729 24 1729 24 1797 24 c 128,-1,29
 1865 24 1865 24 1930 102 c 128,-1,30
 1995 180 1995 180 2018 288 c 16,31,32
 2028 333 2028 333 2028 373 c 0,33,34
 2028 429 2028 429 2009 474 c 0,35,20
 1977 552 1977 552 1909 552 c 128,-1,21
1788 -20 m 128,-1,37
 1661 -20 1661 -20 1591 70 c 0,38,39
 1540 135 1540 135 1540 220 c 0,40,41
 1540 253 1540 253 1548 288 c 8,42,43
 1575 415 1575 415 1683.5 505.5 c 128,-1,44
 1792 596 1792 596 1919 596 c 128,-1,45
 2046 596 2046 596 2116 506 c 0,46,47
 2166 441 2166 441 2166 356 c 0,48,49
 2166 323 2166 323 2158 288 c 8,50,51
 2131 161 2131 161 2023 70.5 c 128,-1,36
 1915 -20 1915 -20 1788 -20 c 128,-1,37
1209 552 m 128,-1,53
 1141 552 1141 552 1076 474 c 128,-1,54
 1011 396 1011 396 988 288 c 16,55,56
 978 243 978 243 978 203 c 0,57,58
 978 147 978 147 997 102 c 0,59,60
 1029 24 1029 24 1097 24 c 128,-1,61
 1165 24 1165 24 1230 102 c 128,-1,62
 1295 180 1295 180 1318 288 c 16,63,64
 1328 333 1328 333 1328 373 c 0,65,66
 1328 429 1328 429 1309 474 c 0,67,52
 1277 552 1277 552 1209 552 c 128,-1,53
1088 -20 m 128,-1,69
 961 -20 961 -20 891 70 c 0,70,71
 840 135 840 135 840 220 c 0,72,73
 840 253 840 253 848 288 c 8,74,75
 875 415 875 415 983.5 505.5 c 128,-1,76
 1092 596 1092 596 1219 596 c 128,-1,77
 1346 596 1346 596 1416 506 c 0,78,79
 1466 441 1466 441 1466 356 c 0,80,81
 1466 323 1466 323 1458 288 c 8,82,83
 1431 161 1431 161 1323 70.5 c 128,-1,68
 1215 -20 1215 -20 1088 -20 c 128,-1,69
771 1486 m 128,-1,85
 703 1486 703 1486 638 1408 c 128,-1,86
 573 1330 573 1330 550 1222 c 16,87,88
 540 1177 540 1177 540 1137 c 0,89,90
 540 1081 540 1081 559 1036 c 0,91,92
 591 958 591 958 659 958 c 128,-1,93
 727 958 727 958 792 1036 c 128,-1,94
 857 1114 857 1114 880 1222 c 16,95,96
 890 1267 890 1267 890 1307 c 0,97,98
 890 1363 890 1363 871 1408 c 0,99,84
 839 1486 839 1486 771 1486 c 128,-1,85
780 1530 m 128,-1,101
 907 1530 907 1530 977 1440 c 0,102,103
 1028 1375 1028 1375 1028 1290 c 0,104,105
 1028 1257 1028 1257 1020 1222 c 8,106,107
 993 1095 993 1095 884.5 1004.5 c 128,-1,108
 776 914 776 914 649 914 c 128,-1,109
 522 914 522 914 452 1004 c 0,110,111
 402 1069 402 1069 402 1154 c 0,112,113
 402 1187 402 1187 410 1222 c 8,114,115
 437 1349 437 1349 545 1439.5 c 128,-1,100
 653 1530 653 1530 780 1530 c 128,-1,101
EndSplineSet
Validated: 1
EndChar

StartChar: minute
Encoding: 8242 8242 48
Width: 326
GlyphClass: 2
Flags: W
HStem: 1149 381
VStem: 298 300
LayerCount: 2
Fore
SplineSet
447 1530 m 2,0,-1
 578 1530 l 2,1,2
 598 1530 598 1530 598 1515 c 0,3,4
 598 1509 598 1509 593 1500 c 2,5,-1
 398 1168 l 2,6,7
 387 1149 387 1149 363 1149 c 2,8,-1
 320 1149 l 2,9,10
 298 1149 298 1149 298 1163 c 0,11,12
 298 1170 298 1170 300 1175 c 2,13,-1
 404 1500 l 2,14,15
 413 1530 413 1530 447 1530 c 2,0,-1
EndSplineSet
Validated: 1
EndChar

StartChar: second
Encoding: 8243 8243 49
Width: 586
GlyphClass: 2
Flags: W
HStem: 1149 381<559 598>
VStem: 298 561
LayerCount: 2
Fore
SplineSet
708 1530 m 2,0,-1
 839 1530 l 2,1,2
 859 1530 859 1530 859 1515 c 0,3,4
 859 1509 859 1509 854 1500 c 2,5,-1
 659 1168 l 2,6,7
 648 1149 648 1149 624 1149 c 2,8,-1
 581 1149 l 2,9,10
 559 1149 559 1149 559 1163 c 0,11,12
 559 1170 559 1170 561 1175 c 2,13,-1
 665 1500 l 2,14,15
 674 1530 674 1530 708 1530 c 2,0,-1
447 1530 m 2,16,-1
 578 1530 l 2,17,18
 598 1530 598 1530 598 1515 c 0,19,20
 598 1509 598 1509 593 1500 c 2,21,-1
 398 1168 l 2,22,23
 387 1149 387 1149 363 1149 c 2,24,-1
 320 1149 l 2,25,26
 298 1149 298 1149 298 1163 c 0,27,28
 298 1170 298 1170 300 1175 c 2,29,-1
 404 1500 l 2,30,31
 413 1530 413 1530 447 1530 c 2,16,-1
EndSplineSet
Validated: 1
EndChar

StartChar: guilsinglleft
Encoding: 8249 8249 50
Width: 794
GlyphClass: 2
Flags: W
VStem: 308 509
DStem2: 456 801 315 720 0.442081 -0.896975<0 485.336> 330 791 456 801 0.677093 0.735898<92.6727 623.825>
LayerCount: 2
Fore
SplineSet
330 791 m 2,0,-1
 733 1229 l 2,1,2
 747 1244 747 1244 761 1244 c 0,3,4
 773 1244 773 1244 781 1236 c 2,5,-1
 810 1206 l 2,6,7
 817 1199 817 1199 817 1191 c 0,8,9
 817 1179 817 1179 806 1167 c 2,10,-1
 456 801 l 1,11,-1
 664 394 l 2,12,13
 672 378 672 378 672 366 c 0,14,15
 672 345 672 345 640 324 c 2,16,-1
 590 291 l 2,17,18
 570 278 570 278 555 278 c 0,19,20
 533 278 533 278 522 300 c 2,21,-1
 315 720 l 2,22,23
 308 734 308 734 308 745 c 0,24,25
 308 767 308 767 330 791 c 2,0,-1
EndSplineSet
Validated: 1
EndChar

StartChar: guilsinglright
Encoding: 8250 8250 51
Width: 794
GlyphClass: 2
Flags: W
VStem: 300 509
DStem2: 311 355 384 293 0.677093 0.735898<-24.8318 506.321> 595 1222 453 1128 0.442081 -0.896975<-6.77363 478.562>
LayerCount: 2
Fore
SplineSet
787 731 m 2,0,-1
 384 293 l 2,1,2
 370 278 370 278 356 278 c 0,3,4
 344 278 344 278 336 286 c 2,5,-1
 307 316 l 2,6,7
 300 323 300 323 300 331 c 0,8,9
 300 343 300 343 311 355 c 2,10,-1
 661 721 l 1,11,-1
 453 1128 l 2,12,13
 445 1144 445 1144 445 1156 c 0,14,15
 445 1177 445 1177 477 1198 c 2,16,-1
 527 1231 l 2,17,18
 547 1244 547 1244 562 1244 c 0,19,20
 584 1244 584 1244 595 1222 c 2,21,-1
 802 802 l 2,22,23
 809 788 809 788 809 777 c 0,24,25
 809 755 809 755 787 731 c 2,0,-1
EndSplineSet
Validated: 1
EndChar

StartChar: fraction
Encoding: 8260 8260 52
Width: 1012
GlyphClass: 2
Flags: W
DStem2: 34 65 151 -12 0.619557 0.784952<-37.6584 1904.37>
LayerCount: 2
Fore
SplineSet
105 -40 m 0,0,1
 92 -40 92 -40 79 -31 c 2,2,-1
 37 -3 l 2,3,4
 17 11 17 11 17 30 c 0,5,6
 17 44 17 44 34 65 c 2,7,-1
 1184 1522 l 2,8,9
 1206 1550 1206 1550 1227 1550 c 0,10,11
 1242 1550 1242 1550 1256 1541 c 2,12,-1
 1298 1513 l 2,13,14
 1317 1500 1317 1500 1317 1482 c 0,15,16
 1317 1465 1317 1465 1301 1445 c 2,17,-1
 151 -12 l 2,18,19
 129 -40 129 -40 105 -40 c 0,0,1
EndSplineSet
Validated: 1
EndChar

StartChar: Euro
Encoding: 8364 8364 53
Width: 1505
GlyphClass: 2
Flags: W
HStem: -20 61<745.721 1066.7> 614 80<239.078 356 586 1158.81> 814 80<281.599 390 634 1201.25> 1099 21G<1515 1551.5> 1469 61<1039.59 1354.56>
VStem: 353 215<291.408 614> 365 221<694 813.094> 1509 102<1134.34 1350.25> 1509 53<1101.29 1181.63>
LayerCount: 2
Fore
SplineSet
869 -20 m 0,0,1
 569 -20 569 -20 438 206 c 0,2,3
 353 352 353 352 353 542 c 0,4,5
 353 577 353 577 356 614 c 1,6,-1
 247 614 l 2,7,8
 234 614 234 614 234 625 c 0,9,10
 234 627 234 627 234 629 c 2,11,-1
 244 679 l 2,12,13
 247 694 247 694 264 694 c 2,14,-1
 365 694 l 1,15,16
 370 724 370 724 376 755 c 0,17,18
 382 785 382 785 390 814 c 1,19,-1
 289 814 l 2,20,21
 276 814 276 814 276 825 c 0,22,23
 276 827 276 827 276 829 c 2,24,-1
 287 879 l 2,25,26
 290 894 290 894 306 894 c 2,27,-1
 414 894 l 1,28,29
 494 1128 494 1128 671 1304 c 0,30,31
 897 1530 897 1530 1198 1530 c 0,32,33
 1452 1530 1452 1530 1590 1405 c 0,34,35
 1611 1386 1611 1386 1611 1355 c 0,36,37
 1611 1345 1611 1345 1608 1331 c 2,38,-1
 1562 1114 l 2,39,40
 1559 1099 1559 1099 1544 1099 c 2,41,-1
 1521 1099 l 2,42,43
 1509 1099 1509 1099 1509 1112 c 0,44,45
 1509 1113 1509 1113 1509 1114 c 0,46,47
 1511 1141 1511 1141 1511 1165 c 0,48,49
 1511 1469 1511 1469 1185 1469 c 0,50,51
 986 1469 986 1469 828 1272 c 0,52,53
 703 1115 703 1115 634 894 c 1,54,-1
 1196 894 l 2,55,56
 1208 894 1208 894 1208 884 c 0,57,58
 1208 882 1208 882 1207 879 c 2,59,-1
 1196 829 l 2,60,61
 1193 814 1193 814 1179 814 c 2,62,-1
 612 814 l 1,63,64
 605 785 605 785 598 755 c 0,65,66
 591 724 591 724 586 694 c 1,67,-1
 1154 694 l 2,68,69
 1165 694 1165 694 1165 684 c 0,70,71
 1165 682 1165 682 1164 679 c 2,72,-1
 1154 629 l 2,73,74
 1151 614 1151 614 1137 614 c 2,75,-1
 575 614 l 1,76,77
 568 549 568 549 568 488 c 0,78,79
 568 348 568 348 609 238 c 0,80,81
 683 41 683 41 882 41 c 0,82,83
 1238 41 1238 41 1356 396 c 0,84,85
 1361 411 1361 411 1374 411 c 2,86,-1
 1397 411 l 2,87,88
 1410 411 1410 411 1410 402 c 0,89,90
 1410 401 1410 401 1409 396 c 2,91,-1
 1363 179 l 2,92,93
 1353 131 1353 131 1313 105 c 0,94,95
 1119 -20 1119 -20 869 -20 c 0,0,1
EndSplineSet
Validated: 1
EndChar

StartChar: afii61248
Encoding: 8453 8453 54
Width: 1780
GlyphClass: 2
Flags: W
HStem: -20 70<1202.78 1395.16> 736 70<580.828 795.777 1352.51 1509.61> 1460 70<704.976 919.574>
VStem: 378 150<855.88 1235.46> 884 69<896.25 985.903> 953 66<1281.06 1323.62> 955 92<1281.06 1422.13> 1002 149<100.8 489.062> 1576 148<288.69 673.2>
DStem2: 400 65 517 -12 0.619557 0.784952<-37.6584 1904.37>
LayerCount: 2
Fore
SplineSet
471 -40 m 0,0,1
 458 -40 458 -40 445 -31 c 2,2,-1
 403 -3 l 2,3,4
 383 11 383 11 383 30 c 0,5,6
 383 44 383 44 400 65 c 2,7,-1
 1550 1522 l 2,8,9
 1572 1550 1572 1550 1593 1550 c 0,10,11
 1608 1550 1608 1550 1622 1541 c 2,12,-1
 1664 1513 l 2,13,14
 1683 1500 1683 1500 1683 1482 c 0,15,16
 1683 1465 1683 1465 1667 1445 c 2,17,-1
 517 -12 l 2,18,19
 495 -40 495 -40 471 -40 c 0,0,1
824 1530 m 0,20,21
 958 1530 958 1530 1031 1464 c 0,22,23
 1047 1450 1047 1450 1047 1427 c 0,24,25
 1047 1419 1047 1419 1045 1411 c 2,26,-1
 1019 1291 l 2,27,28
 1017 1283 1017 1283 1015 1281 c 0,29,30
 1010 1275 1010 1275 1002 1275 c 2,31,-1
 965 1275 l 2,32,33
 953 1275 953 1275 953 1285 c 0,34,-1
 954 1299 l 0,35,36
 955 1312 955 1312 955 1324 c 0,37,38
 955 1379 955 1379 932 1412 c 0,39,40
 897 1460 897 1460 809 1460 c 0,41,42
 720 1460 720 1460 650 1374 c 0,43,44
 573 1280 573 1280 542 1133 c 0,45,46
 528 1066 528 1066 528 1010 c 0,47,48
 528 943 528 943 548 892 c 0,49,50
 582 806 582 806 670 806 c 0,51,52
 760 806 760 806 814 854 c 0,53,54
 862 897 862 897 884 967 c 0,55,56
 889 983 889 983 893 986 c 0,57,58
 899 991 899 991 905 991 c 2,59,-1
 942 991 l 2,60,61
 953 991 953 991 953 983 c 0,62,63
 953 980 953 980 952 975 c 2,64,-1
 927 855 l 2,65,66
 920 821 920 821 890 802 c 0,67,68
 789 736 789 736 655 736 c 0,69,70
 495 736 495 736 424 853 c 0,71,72
 378 928 378 928 378 1026 c 0,73,74
 378 1076 378 1076 390 1133 c 0,75,76
 424 1296 424 1296 545 1414 c 0,77,78
 663 1530 663 1530 824 1530 c 0,20,21
1435 724 m 128,-1,80
 1347 724 1347 724 1276 636 c 0,81,82
 1198 539 1198 539 1166 387 c 0,83,84
 1151 315 1151 315 1151 256 c 0,85,86
 1151 189 1151 189 1170 138 c 0,87,88
 1203 50 1203 50 1291.5 50 c 128,-1,89
 1380 50 1380 50 1450 138 c 0,90,91
 1526 232 1526 232 1560 387 c 0,92,93
 1576 459 1576 459 1576 517 c 0,94,95
 1576 584 1576 584 1556 636 c 0,96,79
 1523 724 1523 724 1435 724 c 128,-1,80
1277 -20 m 128,-1,98
 1118 -20 1118 -20 1047 100 c 0,99,100
 1002 177 1002 177 1002 277 c 0,101,102
 1002 330 1002 330 1014 388 c 0,103,104
 1050 558 1050 558 1169 674 c 0,105,106
 1291 794 1291 794 1449 795 c 0,107,108
 1608 795 1608 795 1679 674 c 0,109,110
 1724 596 1724 596 1724 496 c 0,111,112
 1724 444 1724 444 1712 386 c 0,113,114
 1676 216 1676 216 1557 99 c 0,115,97
 1436 -20 1436 -20 1277 -20 c 128,-1,98
EndSplineSet
Validated: 1
EndChar

StartChar: afii61289
Encoding: 8467 8467 55
Width: 958
GlyphClass: 2
Flags: W
HStem: -20 136<493.285 605.003> 0 21G<50 267.222> 1500 20G<950 1017>
LayerCount: 2
Fore
SplineSet
486 466 m 1,0,1
 648 708 648 708 737 860 c 0,2,3
 896 1134 896 1134 944 1359 c 1,4,5
 856 1266 856 1266 707 1004 c 0,6,7
 537 704 537 704 486 466 c 1,0,1
50 0 m 1,8,9
 192 144 192 144 304 292 c 1,10,11
 309 362 309 362 326 443 c 0,12,13
 357 590 357 590 417 732 c 0,14,15
 634 1246 634 1246 822 1434 c 0,16,17
 908 1520 908 1520 992 1520 c 0,18,19
 1042 1520 1042 1520 1075 1488 c 0,20,21
 1099 1465 1099 1465 1099 1409 c 0,22,23
 1099 1371 1099 1371 1088 1318 c 0,24,25
 1068 1226 1068 1226 1006 1072 c 0,26,27
 862 722 862 722 480 271 c 1,28,29
 480 116 480 116 536 116 c 0,30,31
 555 116 555 116 583 140 c 0,32,33
 621 172 621 172 664 228 c 1,34,-1
 840 228 l 1,35,36
 736 100 736 100 659 40 c 128,-1,37
 582 -20 582 -20 498 -20 c 0,38,39
 378 -20 378 -20 324 90 c 1,40,-1
 251 0 l 1,41,-1
 50 0 l 1,8,9
EndSplineSet
Validated: 1
EndChar

StartChar: trademark
Encoding: 8482 8482 56
Width: 1870
GlyphClass: 2
Flags: W
HStem: 726 64<872.288 962.391 1764.72 1830.99> 1440 80<482.921 675 815 989.701> 1456 64<1108.29 1176 1818.19 1903.99>
VStem: 1624 138<790 948.882>
DStem2: 523.387 726 663.387 726 0.207912 0.978148<19.7492 729.92> 1176 1447 1197 1240 0.318872 0.947798<-706.363 -189.498> 1324 1468 1197 1240 0.0877006 -0.996147<215.984 604.329> 1377 866 1409 753 0.47279 0.881175<0 451.968>
LayerCount: 2
Fore
SplineSet
948 726 m 2,0,1
 882 726 l 2,2,3
 867 726 867 726 867 735 c 0,4,5
 867 736 867 736 868 740 c 2,6,-1
 876 774 l 2,7,8
 879 789 879 789 896 789 c 2,9,-1
 946 790 l 2,10,11
 955 790 955 790 959 802 c 10,12,-1
 1176 1447 l 1,13,14
 1176 1456 1176 1456 1168 1456 c 2,15,-1
 1118 1456 l 2,16,17
 1103 1456 1103 1456 1103 1465 c 0,18,19
 1103 1466 1103 1466 1104 1470 c 2,20,-1
 1112 1505 l 2,21,22
 1115 1520 1115 1520 1132 1520 c 2,23,-1
 1257 1520 l 2,24,25
 1319 1520 1319 1520 1324 1468 c 2,26,-1
 1377 866 l 1,27,-1
 1700 1468 l 2,28,29
 1728 1520 1728 1520 1789 1520 c 2,30,-1
 1894 1520 l 2,31,32
 1909 1520 1909 1520 1909 1511 c 0,33,34
 1909 1509 1909 1509 1908 1505 c 2,35,-1
 1900 1470 l 2,36,37
 1897 1456 1897 1456 1880 1456 c 2,38,-1
 1830 1456 l 2,39,40
 1821 1456 1821 1456 1820 1447 c 1,41,-1
 1762 798 l 2,42,43
 1762 797 l 0,44,45
 1762 790 1762 790 1771 790 c 2,46,-1
 1821 790 l 2,47,48
 1836 790 1836 790 1836 781 c 0,49,50
 1836 779 1836 779 1835 775 c 2,51,-1
 1827 740 l 2,52,53
 1824 726 1824 726 1807 726 c 2,54,-1
 1691 726 l 2,55,56
 1624 726 1624 726 1624 774 c 0,57,58
 1624 777 1624 777 1624 781 c 2,59,-1
 1662 1226 l 1,60,-1
 1409 753 l 2,61,62
 1395 726 1395 726 1362 726 c 2,63,-1
 1272 726 l 2,64,65
 1240 726 1240 726 1238 754 c 2,66,-1
 1197 1240 l 1,67,-1
 1039 781 l 2,68,69
 1020 726 1020 726 948 726 c 2,0,1
542 726 m 2,70,71
 526 726 526 726 526 735 c 0,72,73
 526 738 526 738 527 743 c 2,74,-1
 675 1440 l 1,75,-1
 584 1440 l 2,76,77
 515 1440 515 1440 460 1378 c 0,78,79
 443 1359 443 1359 437 1359 c 0,80,81
 432 1359 432 1359 429 1361 c 2,82,-1
 400 1379 l 2,83,84
 395 1382 395 1382 395 1387 c 0,85,86
 395 1391 395 1391 401 1399 c 2,87,-1
 463 1479 l 2,88,89
 495 1520 495 1520 543 1520 c 2,90,-1
 981 1520 l 2,91,92
 1029 1520 1029 1520 1043 1479 c 2,93,-1
 1071 1399 l 2,94,95
 1073 1393 1073 1393 1073 1391 c 0,96,97
 1073 1383 1073 1383 1064 1379 c 2,98,-1
 1027 1361 l 2,99,100
 1023 1359 1023 1359 1019 1359 c 0,101,102
 1013 1359 1013 1359 1004 1378 c 0,103,104
 975 1440 975 1440 906 1440 c 2,105,-1
 815 1440 l 1,106,-1
 667 743 l 2,107,108
 663 726 663 726 646 726 c 2,109,-1
 542 726 l 2,70,71
EndSplineSet
Validated: 1
EndChar

StartChar: uni2126
Encoding: 8486 8486 57
Width: 1582
GlyphClass: 2
Flags: W
HStem: 0 80<258.997 462 1153 1374.49> 1469 61<953.406 1239.28>
VStem: 270 216<291.127 813.309> 1417 216<696.351 1218.59>
LayerCount: 2
Fore
SplineSet
536 0 m 2,0,1
 271 0 l 2,2,3
 201 0 201 0 177 63 c 2,4,-1
 125 204 l 2,5,6
 124 208 124 208 124 209 c 0,7,8
 124 217 124 217 136 223 c 2,9,-1
 160 234 l 2,10,11
 164 236 164 236 167 236 c 0,12,13
 174 236 174 236 178 226 c 0,14,15
 234 80 234 80 404 80 c 2,16,-1
 462 80 l 1,17,18
 398 134 398 134 356 206 c 0,19,20
 270 351 270 351 270 540 c 0,21,22
 270 640 270 640 294 754 c 0,23,24
 364 1080 364 1080 589 1304 c 0,25,26
 816 1530 816 1530 1116 1530 c 128,-1,27
 1416 1530 1416 1530 1547 1304 c 0,28,29
 1632 1158 1632 1158 1633 968 c 0,30,31
 1633 867 1633 867 1608 755 c 0,32,33
 1539 428 1539 428 1314 206 c 0,34,35
 1242 135 1242 135 1153 80 c 1,36,-1
 1212 80 l 2,37,38
 1384 80 1384 80 1500 226 c 0,39,40
 1508 236 1508 236 1515 236 c 0,41,42
 1518 236 1518 236 1522 234 c 2,43,-1
 1540 223 l 2,44,45
 1547 219 1547 219 1547 213 c 0,46,47
 1547 209 1547 209 1543 204 c 2,48,-1
 1431 63 l 2,49,50
 1381 0 1381 0 1311 0 c 2,51,-1
 1045 0 l 2,52,53
 975 0 975 0 975 42 c 0,54,55
 975 75 975 75 1011 104 c 0,56,57
 1117 189 1117 189 1157 238 c 0,58,59
 1320 442 1320 442 1387 756 c 0,60,61
 1417 896 1417 896 1417 1022 c 0,62,63
 1417 1162 1417 1162 1376 1272 c 0,64,65
 1302 1469 1302 1469 1103 1469 c 128,-1,66
 904 1469 904 1469 746 1272 c 0,67,68
 581 1066 581 1066 516 755 c 0,69,70
 486 613 486 613 486 488 c 0,71,72
 486 348 486 348 527 238 c 0,73,74
 540 202 540 202 614 104 c 0,75,76
 626 88 626 88 626 53 c 0,77,78
 626 0 626 0 536 0 c 2,0,1
EndSplineSet
Validated: 1
EndChar

StartChar: estimated
Encoding: 8494 8494 58
Width: 1258
GlyphClass: 2
Flags: W
HStem: 0 73<474.72 827.898> 565 74<467 1063> 1057 73<671.387 1017.88>
VStem: 204 1088<418 714>
LayerCount: 2
Fore
SplineSet
451 565 m 1,0,-1
 372 194 l 1,1,2
 466 73 466 73 645 73 c 0,3,4
 899 73 899 73 1092 319 c 1,5,-1
 1155 276 l 1,6,7
 998 103 998 103 875 51.5 c 128,-1,8
 752 0 752 0 629 0 c 0,9,10
 392 0 392 0 280 160 c 0,11,12
 204 269 204 269 204 418 c 0,13,14
 204 487 204 487 220 565 c 0,15,16
 273 812 273 812 453.5 971 c 128,-1,17
 634 1130 634 1130 869 1130 c 0,18,19
 1083 1130 1083 1130 1205 988 c 0,20,21
 1292 887 1292 887 1292 714 c 0,22,23
 1292 645 1292 645 1278 565 c 1,24,-1
 451 565 l 1,0,-1
1063 639 m 1,25,-1
 1126 936 l 1,26,27
 1024 1057 1024 1057 852 1057 c 0,28,29
 677 1057 677 1057 530 935 c 1,30,-1
 467 639 l 1,31,-1
 1063 639 l 1,25,-1
EndSplineSet
Validated: 1
EndChar

StartChar: partialdiff
Encoding: 8706 8706 59
Width: 1285
GlyphClass: 2
Flags: W
HStem: -20 153<437.638 699.363> 870 140<723.688 998.914> 1325 152<765.721 1101.14>
VStem: 214 192<164.14 476.53> 1167 191<870.209 1262.43>
LayerCount: 2
Fore
SplineSet
721 1415 m 1,0,1
 868 1477 868 1477 1017 1477 c 0,2,3
 1358 1477 1358 1477 1358 1139 c 0,4,5
 1358 1049 1358 1049 1334 934 c 0,6,7
 1251 545 1251 545 1022.5 262.5 c 128,-1,8
 794 -20 794 -20 508 -20 c 0,9,10
 214 -20 214 -20 214 240 c 0,11,12
 214 300 214 300 230 375 c 0,13,14
 283 624 283 624 462 817 c 128,-1,15
 641 1010 641 1010 885 1010 c 0,16,17
 1069 1010 1069 1010 1136 862 c 1,18,19
 1167 1008 1167 1008 1167 1102 c 0,20,21
 1167 1164 1167 1164 1154 1204 c 0,22,23
 1114 1325 1114 1325 960 1325 c 0,24,25
 829 1325 829 1325 684 1241 c 1,26,-1
 721 1415 l 1,0,1
1065 680 m 1,27,28
 1061 765 1061 765 1008.5 817.5 c 128,-1,29
 956 870 956 870 880 870 c 0,30,31
 720 870 720 870 588 710 c 0,32,33
 454 548 454 548 416 369 c 0,34,35
 406 322 406 322 406 280 c 0,36,37
 406 133 406 133 553 133 c 0,38,39
 691 133 691 133 833.5 286 c 128,-1,40
 976 439 976 439 1065 680 c 1,27,28
EndSplineSet
Validated: 1
EndChar

StartChar: uni2206
Encoding: 8710 8710 60
Width: 1476
GlyphClass: 2
Flags: W
HStem: 0 80<251 1167> 0 50<15.05 138.227 1369.2 1471> 1490 20G<953 1165.5>
DStem2: 149 90 251 80 0.485055 0.874484<40.7308 1569.83> 1365 90 1167 80 0.127722 -0.99181<-1363.64 -15.3709>
LayerCount: 2
Fore
SplineSet
25 0 m 2,0,1
 12 0 12 0 12 9 c 0,2,3
 12 10 12 10 13 15 c 2,4,-1
 17 35 l 2,5,6
 20 50 20 50 36 50 c 2,7,-1
 81 50 l 2,8,9
 127 50 127 50 149 90 c 2,10,-1
 920 1480 l 2,11,12
 937 1510 937 1510 969 1510 c 2,13,-1
 1149 1510 l 2,14,15
 1182 1510 1182 1510 1186 1480 c 2,16,-1
 1365 90 l 2,17,18
 1370 50 1370 50 1417 50 c 2,19,-1
 1462 50 l 2,20,21
 1474 50 1474 50 1474 41 c 0,22,23
 1474 40 1474 40 1473 35 c 2,24,-1
 1469 15 l 2,25,26
 1466 0 1466 0 1451 0 c 2,27,-1
 25 0 l 2,0,1
1167 80 m 1,28,-1
 993 1417 l 1,29,-1
 251 80 l 1,30,-1
 1167 80 l 1,28,-1
EndSplineSet
Validated: 1
EndChar

StartChar: product
Encoding: 8719 8719 61
Width: 1549
GlyphClass: 2
Flags: W
HStem: -410 50<-31.95 107.701 1298.41 1416.95> 1460 50<366 484.453 1675.06 1814.95>
VStem: 1086 202<-356.606 -100.625>
DStem2: 113.242 -410 313.242 -410 0.207912 0.978148<59.7273 1848.38> 1062.24 -410 1262.24 -410 0.207912 0.978148<155.977 1880.47>
LayerCount: 2
Fore
SplineSet
173 -410 m 2,0,-1
 -22 -410 l 2,1,2
 -35 -410 -35 -410 -35 -401 c 0,3,4
 -35 -400 -35 -400 -34 -395 c 2,5,-1
 -30 -375 l 2,6,7
 -27 -360 -27 -360 -12 -360 c 2,8,-1
 33 -360 l 2,9,10
 124 -360 124 -360 143 -270 c 2,11,-1
 491 1370 l 2,12,13
 494 1384 494 1384 495 1399 c 0,14,15
 495 1460 495 1460 420 1460 c 2,16,-1
 375 1460 l 2,17,18
 363 1460 363 1460 363 1469 c 0,19,20
 363 1470 363 1470 364 1475 c 2,21,-1
 368 1495 l 2,22,23
 371 1510 371 1510 386 1510 c 2,24,-1
 1805 1510 l 2,25,26
 1818 1510 1818 1510 1818 1501 c 0,27,28
 1818 1500 1818 1500 1817 1495 c 2,29,-1
 1813 1475 l 2,30,31
 1810 1460 1810 1460 1794 1460 c 2,32,-1
 1749 1460 l 2,33,34
 1659 1460 1659 1460 1640 1370 c 2,35,-1
 1292 -270 l 2,36,37
 1289 -284 1289 -284 1288 -299 c 0,38,39
 1288 -360 1288 -360 1362 -360 c 2,40,-1
 1407 -360 l 2,41,42
 1420 -360 1420 -360 1420 -369 c 0,43,44
 1420 -370 1420 -370 1419 -375 c 2,45,-1
 1415 -395 l 2,46,47
 1412 -410 1412 -410 1397 -410 c 2,48,-1
 1202 -410 l 2,49,50
 1087 -410 1087 -410 1086 -315 c 0,51,52
 1086 -298 1086 -298 1092 -270 c 2,53,-1
 1453 1430 l 1,54,-1
 704 1430 l 1,55,-1
 343 -270 l 2,56,57
 313 -410 313 -410 173 -410 c 2,0,-1
EndSplineSet
Validated: 1
EndChar

StartChar: summation
Encoding: 8721 8721 62
Width: 1200
GlyphClass: 2
Flags: W
HStem: -410 80<276 933.988> 1430 80<639 1267.5>
DStem2: 639 1430 416 1461 0.32302 -0.946392<0 780.927>
LayerCount: 2
Fore
SplineSet
74 -410 m 2,0,1
 41 -410 41 -410 41 -388 c 0,2,3
 41 -378 41 -378 52 -361 c 2,4,-1
 701 626 l 1,5,-1
 416 1461 l 2,6,7
 412 1471 412 1471 412 1481 c 0,8,9
 412 1510 412 1510 458 1510 c 2,10,-1
 1256 1510 l 2,11,12
 1326 1510 1326 1510 1350 1447 c 2,13,-1
 1402 1306 l 2,14,15
 1403 1302 1403 1302 1403 1299 c 0,16,17
 1403 1293 1403 1293 1391 1287 c 2,18,-1
 1367 1276 l 2,19,20
 1363 1274 1363 1274 1360 1274 c 0,21,22
 1353 1274 1353 1274 1349 1284 c 0,23,24
 1292 1430 1292 1430 1123 1430 c 2,25,-1
 639 1430 l 1,26,-1
 911 636 l 2,27,28
 916 622 916 622 916 606 c 0,29,30
 915 581 915 581 896 554 c 2,31,-1
 276 -330 l 1,32,-1
 773 -330 l 2,33,34
 942 -330 942 -330 1061 -184 c 0,35,36
 1069 -174 1069 -174 1076 -174 c 0,37,38
 1079 -174 1079 -174 1083 -176 c 2,39,-1
 1101 -187 l 2,40,41
 1108 -191 1108 -191 1108 -197 c 0,42,43
 1108 -201 1108 -201 1104 -206 c 2,44,-1
 992 -347 l 2,45,46
 942 -410 942 -410 872 -410 c 2,47,-1
 74 -410 l 2,0,1
EndSplineSet
Validated: 1
EndChar

StartChar: minus
Encoding: 8722 8722 63
Width: 1133
GlyphClass: 2
Flags: W
HStem: 680 150<317.807 1136.19>
LayerCount: 2
Fore
SplineSet
376 830 m 2,0,-1
 1109 830 l 2,1,2
 1151 830 1151 830 1151 796 c 0,3,4
 1151 789 1151 789 1149 780 c 2,5,-1
 1138 730 l 2,6,7
 1127 680 1127 680 1078 680 c 2,8,-1
 345 680 l 2,9,10
 303 680 303 680 303 714 c 0,11,12
 303 721 303 721 305 730 c 2,13,-1
 316 780 l 2,14,15
 326 830 326 830 376 830 c 2,0,-1
EndSplineSet
Validated: 1
EndChar

StartChar: uni2215
Encoding: 8725 8725 64
Width: 1012
GlyphClass: 2
Flags: W
DStem2: 34 65 151 -12 0.619557 0.784952<-37.6584 1904.37>
LayerCount: 2
Fore
SplineSet
105 -40 m 4,0,1
 92 -40 92 -40 79 -31 c 6,2,-1
 37 -3 l 6,3,4
 17 11 17 11 17 30 c 4,5,6
 17 44 17 44 34 65 c 6,7,-1
 1184 1522 l 6,8,9
 1206 1550 1206 1550 1227 1550 c 4,10,11
 1242 1550 1242 1550 1256 1541 c 6,12,-1
 1298 1513 l 6,13,14
 1317 1500 1317 1500 1317 1482 c 4,15,16
 1317 1465 1317 1465 1301 1445 c 6,17,-1
 151 -12 l 6,18,19
 129 -40 129 -40 105 -40 c 4,0,1
EndSplineSet
Validated: 1
EndChar

StartChar: uni2219
Encoding: 8729 8729 65
Width: 340
GlyphClass: 2
Flags: W
HStem: 632 245<246.097 413.903>
VStem: 210 240<669.129 839.871>
LayerCount: 2
Fore
SplineSet
330 877 m 128,-1,1
 380 877 380 877 415 841 c 128,-1,2
 450 805 450 805 450 754.5 c 128,-1,3
 450 704 450 704 415 668 c 128,-1,4
 380 632 380 632 330 632 c 128,-1,5
 280 632 280 632 245 668 c 128,-1,6
 210 704 210 704 210 754.5 c 128,-1,7
 210 805 210 805 245 841 c 128,-1,0
 280 877 280 877 330 877 c 128,-1,1
EndSplineSet
Validated: 1
EndChar

StartChar: radical
Encoding: 8730 8730 66
Width: 1187
GlyphClass: 2
Flags: W
HStem: 0 21G<443 588> 730 50<210.669 318.042> 1460 50<1321.03 1452.95>
DStem2: 499 746 340 642 0.12907 -0.991635<-9.04776 635.314> 581 116 625 35 0.438736 0.898616<0 1546.27>
LayerCount: 2
Fore
SplineSet
462 0 m 2,0,1
 424 0 424 0 419 35 c 2,2,-1
 340 642 l 2,3,4
 329 730 329 730 265 730 c 2,5,-1
 220 730 l 2,6,7
 207 730 207 730 207 740 c 0,8,9
 207 741 207 741 208 745 c 2,10,-1
 213 765 l 2,11,12
 217 780 217 780 231 780 c 2,13,-1
 457 780 l 2,14,15
 495 780 495 780 499 746 c 2,16,-1
 581 116 l 1,17,-1
 1245 1476 l 2,18,19
 1262 1510 1262 1510 1302 1510 c 2,20,-1
 1443 1510 l 2,21,22
 1456 1510 1456 1510 1456 1502 c 0,23,24
 1456 1500 1456 1500 1455 1495 c 2,25,-1
 1451 1475 l 2,26,27
 1448 1460 1448 1460 1432 1460 c 2,28,-1
 1387 1460 l 2,29,30
 1318 1460 1318 1460 1275 1372 c 2,31,-1
 625 35 l 2,32,33
 608 0 608 0 568 0 c 2,34,-1
 462 0 l 2,0,1
EndSplineSet
Validated: 1
EndChar

StartChar: infinity
Encoding: 8734 8734 67
Width: 1476
GlyphClass: 2
Flags: W
HStem: 430 46<512.567 661.459 1026.57 1175.46> 1033 47<620.812 770.298 1134.59 1284.3>
VStem: 302 146<532.938 856.722> 835 127<651.948 860.427> 1349 146<655.079 976.594>
CounterMasks: 1 38
LayerCount: 2
Fore
SplineSet
582 476 m 0,0,1
 660 476 660 476 732 558 c 0,2,3
 799 635 799 635 824 755 c 0,4,5
 835 806 835 806 835 849 c 0,6,7
 835 908 835 908 815 951 c 0,8,9
 776 1033 776 1033 701 1033 c 0,10,11
 623 1033 623 1033 551 951 c 0,12,13
 483 874 483 874 458 755 c 0,14,15
 448 708 448 708 448 660 c 0,16,17
 448 601 448 601 468 558 c 0,18,19
 505 476 505 476 582 476 c 0,0,1
711 1080 m 0,20,21
 854 1080 854 1080 924 994 c 0,22,23
 934 981 934 981 944 967 c 1,24,25
 959 981 959 981 974 994 c 0,26,27
 1083 1080 1083 1080 1225 1080 c 0,28,29
 1368 1080 1368 1080 1438 994 c 0,30,31
 1495 926 1495 926 1495 832 c 0,32,33
 1495 796 1495 796 1486 755 c 0,34,35
 1456 612 1456 612 1337 516 c 0,36,37
 1229 430 1229 430 1086 430 c 0,38,39
 940 430 940 430 873 516 c 0,40,41
 863 529 863 529 853 543 c 1,42,43
 838 529 838 529 823 516 c 0,44,45
 715 430 715 430 572 430 c 0,46,47
 426 430 426 430 359 516 c 0,48,49
 302 585 302 585 302 679 c 0,50,51
 302 715 302 715 310 755 c 0,52,53
 341 899 341 899 460 994 c 0,54,55
 570 1080 570 1080 711 1080 c 0,20,21
1096 476 m 0,56,57
 1174 476 1174 476 1246 558 c 0,58,59
 1313 635 1313 635 1338 755 c 0,60,61
 1349 806 1349 806 1349 849 c 0,62,63
 1349 908 1349 908 1329 951 c 0,64,65
 1290 1033 1290 1033 1215 1033 c 0,66,67
 1137 1033 1137 1033 1065 951 c 0,68,69
 997 874 997 874 972 755 c 0,70,71
 962 707 962 707 962 660 c 0,72,73
 962 601 962 601 982 558 c 0,74,75
 1019 476 1019 476 1096 476 c 0,56,57
EndSplineSet
Validated: 1
EndChar

StartChar: approxequal
Encoding: 8776 8776 68
Width: 1128
GlyphClass: 2
Flags: W
HStem: 376 147<781.139 977.363> 590 147<388.041 585.625> 776 147<866.139 1062.36> 990 147<473.041 670.625> 1096 20G<1158.5 1198>
LayerCount: 2
Fore
SplineSet
538 737 m 0,0,1
 658 737 658 737 746 610 c 0,2,3
 806 523 806 523 870 523 c 0,4,5
 1018 523 1018 523 1052 686 c 8,6,7
 1058 716 1058 716 1089 716 c 2,8,-1
 1101 716 l 2,9,10
 1125 716 1125 716 1125 696 c 0,11,12
 1125 692 1125 692 1124 686 c 0,13,14
 1058 376 1058 376 827 376 c 0,15,16
 704 376 704 376 619 503 c 0,17,18
 561 590 561 590 496 590 c 0,19,20
 348 590 348 590 313 427 c 8,21,22
 307 397 307 397 277 397 c 2,23,-1
 265 397 l 2,24,25
 240 397 240 397 240 417 c 0,26,27
 240 421 240 421 241 427 c 0,28,29
 307 737 307 737 538 737 c 0,0,1
623 1137 m 0,30,31
 743 1137 743 1137 831 1010 c 0,32,33
 891 923 891 923 955 923 c 0,34,35
 1103 923 1103 923 1137 1086 c 8,36,37
 1143 1116 1143 1116 1174 1116 c 2,38,-1
 1186 1116 l 2,39,40
 1210 1116 1210 1116 1210 1096 c 0,41,42
 1210 1092 1210 1092 1209 1086 c 0,43,44
 1143 776 1143 776 912 776 c 0,45,46
 789 776 789 776 704 903 c 0,47,48
 646 990 646 990 581 990 c 0,49,50
 433 990 433 990 398 827 c 8,51,52
 392 797 392 797 362 797 c 2,53,-1
 350 797 l 2,54,55
 325 797 325 797 325 817 c 0,56,57
 325 821 325 821 326 827 c 0,58,59
 392 1137 392 1137 623 1137 c 0,30,31
EndSplineSet
Validated: 1
EndChar

StartChar: notequal
Encoding: 8800 8800 69
Width: 1133
GlyphClass: 2
Flags: W
HStem: 490 150<276.703 461 577 579 696 1096.3> 870 150<357.703 761 878 880 997 1177.3>
DStem2: 265 242 342 192 0.619763 0.784789<-28.9735 316.101 579.464 800.25 1064.23 1401.55>
LayerCount: 2
Fore
SplineSet
1147 1334 m 0,0,1
 1159 1334 1159 1334 1169 1327 c 2,2,-1
 1185 1316 l 2,3,4
 1201 1305 1201 1305 1201 1289 c 0,5,6
 1201 1280 1201 1280 1187 1262 c 2,7,-1
 997 1020 l 1,8,-1
 1150 1020 l 2,9,10
 1191 1020 1191 1020 1191 986 c 0,11,12
 1191 980 1191 980 1189 970 c 2,13,-1
 1179 920 l 2,14,15
 1169 870 1169 870 1118 870 c 2,16,-1
 878 870 l 1,17,-1
 696 640 l 1,18,-1
 1069 640 l 2,19,20
 1110 640 1110 640 1110 606 c 0,21,22
 1110 600 1110 600 1108 590 c 2,23,-1
 1098 540 l 2,24,25
 1088 490 1088 490 1037 490 c 2,26,-1
 577 490 l 1,27,-1
 342 192 l 2,28,29
 325 170 325 170 306 170 c 0,30,31
 294 170 294 170 284 177 c 2,32,-1
 268 188 l 2,33,34
 252 199 252 199 252 215 c 0,35,36
 252 226 252 226 265 242 c 2,37,-1
 461 490 l 1,38,-1
 304 490 l 2,39,40
 263 490 263 490 263 524 c 0,41,42
 263 530 263 530 265 540 c 2,43,-1
 275 590 l 2,44,45
 285 640 285 640 336 640 c 2,46,-1
 579 640 l 1,47,-1
 761 870 l 1,48,-1
 385 870 l 2,49,50
 344 870 344 870 344 902 c 0,51,52
 344 910 344 910 346 920 c 2,53,-1
 356 970 l 2,54,55
 366 1020 366 1020 417 1020 c 2,56,-1
 880 1020 l 1,57,-1
 1111 1312 l 2,58,59
 1128 1334 1128 1334 1147 1334 c 0,0,1
EndSplineSet
Validated: 1
EndChar

StartChar: lessequal
Encoding: 8804 8804 70
Width: 1233
GlyphClass: 2
Flags: W
HStem: 190 150<263.807 1082.19>
DStem2: 527 914 417 788 0.851441 -0.52445<0 632.854> 456 969 527 914 0.898341 0.439299<39.6208 834.736>
LayerCount: 2
Fore
SplineSet
391 899 m 2,0,1
 400 942 400 942 456 969 c 2,2,-1
 1184 1325 l 2,3,4
 1198 1332 1198 1332 1208 1332 c 0,5,6
 1222 1332 1222 1332 1228 1317 c 2,7,-1
 1238 1292 l 2,8,9
 1244 1277 1244 1277 1244 1272 c 0,10,11
 1244 1258 1244 1258 1232 1252 c 2,12,-1
 527 914 l 1,13,-1
 1064 594 l 2,14,15
 1085 581 1085 581 1085 563 c 0,16,17
 1085 548 1085 548 1068 526 c 2,18,-1
 1027 474 l 2,19,20
 1006 447 1006 447 983 447 c 0,21,22
 971 447 971 447 956 456 c 2,23,-1
 417 788 l 2,24,25
 381 810 381 810 381 844 c 0,26,27
 381 853 381 853 382 858 c 2,28,-1
 391 899 l 2,0,1
322 340 m 2,29,-1
 1055 340 l 2,30,31
 1097 340 1097 340 1097 306 c 0,32,33
 1097 299 1097 299 1095 290 c 2,34,-1
 1084 240 l 2,35,36
 1073 190 1073 190 1024 190 c 2,37,-1
 291 190 l 2,38,39
 249 190 249 190 249 224 c 0,40,41
 249 231 249 231 251 240 c 2,42,-1
 262 290 l 2,43,44
 272 340 272 340 322 340 c 2,29,-1
EndSplineSet
Validated: 1
EndChar

StartChar: greaterequal
Encoding: 8805 8805 71
Width: 1233
GlyphClass: 2
Flags: W
HStem: 190 150<263.807 1082.19>
DStem2: 382 540 430 467 0.898341 0.439299<-13.3013 781.813> 1197 1004 550 1198 0.851441 -0.52445<-660.432 -27.5779>
LayerCount: 2
Fore
SplineSet
1223 893 m 2,0,1
 1214 850 1214 850 1158 823 c 2,2,-1
 430 467 l 2,3,4
 416 460 416 460 406 460 c 0,5,6
 392 460 392 460 386 475 c 2,7,-1
 376 500 l 2,8,9
 370 515 370 515 370 520 c 0,10,11
 370 534 370 534 382 540 c 2,12,-1
 1087 878 l 1,13,-1
 550 1198 l 2,14,15
 529 1211 529 1211 529 1229 c 0,16,17
 529 1244 529 1244 546 1266 c 2,18,-1
 587 1318 l 2,19,20
 608 1345 608 1345 631 1345 c 0,21,22
 643 1345 643 1345 658 1336 c 2,23,-1
 1197 1004 l 2,24,25
 1233 982 1233 982 1233 948 c 0,26,27
 1233 939 1233 939 1232 934 c 2,28,-1
 1223 893 l 2,0,1
322 340 m 2,29,-1
 1055 340 l 2,30,31
 1097 340 1097 340 1097 306 c 0,32,33
 1097 299 1097 299 1095 290 c 2,34,-1
 1084 240 l 2,35,36
 1073 190 1073 190 1024 190 c 2,37,-1
 291 190 l 2,38,39
 249 190 249 190 249 224 c 0,40,41
 249 231 249 231 251 240 c 2,42,-1
 262 290 l 2,43,44
 272 340 272 340 322 340 c 2,29,-1
EndSplineSet
Validated: 1
EndChar

StartChar: lozenge
Encoding: 9674 9674 72
Width: 1134
GlyphClass: 2
Flags: W
HStem: -20 21G<554.926 579.531> 1510 20G<875.965 899.605>
DStem2: 257 738 427 845 0.625536 0.780196<189.822 741.896> 427 845 257 738 0.374342 -0.927291<35.582 672.572> 673 219 563 -20 0.637091 0.770789<0 543.292> 892 1530 772 1276 0.355404 -0.934713<194.769 844.11>
LayerCount: 2
Fore
SplineSet
673 219 m 1,0,-1
 1014 642 l 1,1,-1
 772 1276 l 1,2,-1
 427 845 l 1,3,-1
 673 219 l 1,0,-1
563 -20 m 1,4,-1
 257 738 l 1,5,-1
 892 1530 l 1,6,-1
 1192 741 l 1,7,-1
 563 -20 l 1,4,-1
EndSplineSet
Validated: 1
EndChar

StartChar: uni1E02
Encoding: 7682 7682 73
Width: 1270
Flags: W
HStem: 0 61<56.125 209.887 413 780.141> 806 60<584 920.051> 1449 61<364.98 492.363 708 1030.9> 1630 245<854.097 1021.9>
VStem: 818 240<1667.13 1837.87> 1066 214<358.22 703.827> 1127 206<1057.36 1378.36>
DStem2: 200.242 0 400.034 0 0.207912 0.978148<104.035 865.472 926.864 1429.28>
LayerCount: 2
Fore
SplineSet
938 1875 m 128,-1,1
 988 1875 988 1875 1023 1839 c 128,-1,2
 1058 1803 1058 1803 1058 1752.5 c 128,-1,3
 1058 1702 1058 1702 1023 1666 c 128,-1,4
 988 1630 988 1630 938 1630 c 128,-1,5
 888 1630 888 1630 853 1666 c 128,-1,6
 818 1702 818 1702 818 1752.5 c 128,-1,7
 818 1803 818 1803 853 1839 c 128,-1,0
 888 1875 888 1875 938 1875 c 128,-1,1
708 1449 m 1,8,-1
 584 866 l 1,9,-1
 759 866 l 2,10,11
 921 866 921 866 1016 958 c 0,12,13
 1089 1028 1089 1028 1116 1158 c 0,14,15
 1127 1208 1127 1208 1127 1249 c 0,16,17
 1127 1314 1127 1314 1100 1357 c 0,18,19
 1044 1449 1044 1449 883 1449 c 2,20,-1
 708 1449 l 1,8,-1
413 61 m 1,21,-1
 588 61 l 2,22,23
 785 61 785 61 904 161 c 0,24,25
 1014 253 1014 253 1052 435 c 0,26,27
 1065 498 1065 498 1066 550 c 0,28,29
 1066 646 1066 646 1020 706 c 0,30,31
 943 806 943 806 746 806 c 2,32,-1
 571 806 l 1,33,-1
 413 61 l 1,21,-1
65 0 m 2,34,35
 52 0 52 0 52 8 c 0,36,37
 52 10 52 10 53 15 c 2,38,-1
 57 35 l 2,39,40
 60 50 60 50 76 50 c 2,41,-1
 121 50 l 2,42,43
 211 50 211 50 230 140 c 2,44,-1
 491 1370 l 2,45,46
 494 1385 494 1385 495 1399 c 0,47,48
 495 1460 495 1460 420 1460 c 2,49,-1
 375 1460 l 2,50,51
 363 1460 363 1460 363 1469 c 0,52,53
 363 1470 363 1470 364 1475 c 2,54,-1
 368 1495 l 2,55,56
 371 1510 371 1510 386 1510 c 2,57,-1
 986 1510 l 2,58,59
 1156 1510 1156 1510 1250 1422 c 0,60,61
 1333 1344 1333 1344 1333 1232 c 0,62,63
 1333 1197 1333 1197 1325 1158 c 0,64,65
 1283 959 1283 959 1059 855 c 1,66,67
 1132 833 1132 833 1185 785 c 0,68,69
 1280 699 1280 699 1280 563 c 0,70,71
 1280 516 1280 516 1268 463 c 0,72,73
 1226 264 1226 264 1071 137 c 0,74,75
 905 0 905 0 665 0 c 2,76,-1
 65 0 l 2,34,35
EndSplineSet
Validated: 1
EndChar

StartChar: uni1E03
Encoding: 7683 7683 74
Width: 1239
Flags: W
HStem: -20 55<571.439 763.388> 0 21G<217.5 365> 1065 55<775.254 978.284> 1220 245<884.097 1051.9> 1460 50<366 484.453>
VStem: 495 181<1183.77 1456.61> 848 240<1257.13 1427.87> 1085 190<472.502 936.916>
DStem2: 195.372 -20 375.372 -20 0.207912 0.978148<48.5932 245.059 404.274 967.786 995.453 1449.79>
LayerCount: 2
Fore
SplineSet
968 1465 m 128,-1,1
 1018 1465 1018 1465 1053 1429 c 128,-1,2
 1088 1393 1088 1393 1088 1342.5 c 128,-1,3
 1088 1292 1088 1292 1053 1256 c 128,-1,4
 1018 1220 1018 1220 968 1220 c 128,-1,5
 918 1220 918 1220 883 1256 c 128,-1,6
 848 1292 848 1292 848 1342.5 c 128,-1,7
 848 1393 848 1393 883 1429 c 128,-1,0
 918 1465 918 1465 968 1465 c 128,-1,1
663 35 m 128,-1,9
 775 35 775 35 887 161 c 0,10,11
 1004 294 1004 294 1059 550 c 0,12,13
 1085 672 1085 672 1085 767 c 0,14,15
 1085 874 1085 874 1052 947 c 0,16,17
 999 1065 999 1065 882 1065 c 128,-1,18
 765 1065 765 1065 662 947 c 0,19,20
 581 855 581 855 531 709 c 1,21,-1
 463 392 l 1,22,23
 461 363 461 363 461 336 c 0,24,25
 461 231 461 231 493 161 c 0,26,8
 551 35 551 35 663 35 c 128,-1,9
230 0 m 2,27,28
 205 0 205 0 205 20 c 0,29,30
 205 25 205 25 206 30 c 2,31,-1
 491 1370 l 2,32,33
 494 1383 494 1383 495 1399 c 0,34,35
 495 1460 495 1460 420 1460 c 2,36,-1
 375 1460 l 2,37,38
 363 1460 363 1460 363 1469 c 0,39,40
 363 1470 363 1470 364 1475 c 2,41,-1
 368 1495 l 2,42,43
 371 1510 371 1510 386 1510 c 2,44,-1
 561 1510 l 2,45,46
 676 1510 676 1510 676 1415 c 0,47,48
 676 1394 676 1394 671 1370 c 2,49,-1
 575 917 l 1,50,51
 596 948 596 948 619 976 c 0,52,53
 675 1042 675 1042 748 1080 c 0,54,55
 825 1120 825 1120 924 1120 c 0,56,57
 1128 1120 1128 1120 1209 980 c 0,58,59
 1275 866 1275 866 1275 719 c 0,60,61
 1275 640 1275 640 1256 550 c 0,62,63
 1202 294 1202 294 1027 120 c 0,64,65
 886 -20 886 -20 682 -20 c 0,66,67
 582 -20 582 -20 522 20 c 0,68,69
 466 58 466 58 438 124 c 0,70,71
 426 152 426 152 419 183 c 1,72,-1
 386 30 l 2,73,74
 380 0 380 0 350 0 c 2,75,-1
 230 0 l 2,27,28
EndSplineSet
Validated: 1
EndChar

StartChar: uni1E0A
Encoding: 7690 7690 75
Width: 1447
Flags: W
HStem: 0 61<56.125 209.887 413 852.213> 1449 61<364.98 492.363 708 1133.82> 1630 245<954.097 1121.9>
VStem: 918 240<1667.13 1837.87> 1313 216<686.688 1195.55>
DStem2: 200.242 0 400.034 0 0.207912 0.978148<104.035 1429.25>
LayerCount: 2
Fore
SplineSet
1038 1875 m 128,-1,1
 1088 1875 1088 1875 1123 1839 c 128,-1,2
 1158 1803 1158 1803 1158 1752.5 c 128,-1,3
 1158 1702 1158 1702 1123 1666 c 128,-1,4
 1088 1630 1088 1630 1038 1630 c 128,-1,5
 988 1630 988 1630 953 1666 c 128,-1,6
 918 1702 918 1702 918 1752.5 c 128,-1,7
 918 1803 918 1803 953 1839 c 128,-1,0
 988 1875 988 1875 1038 1875 c 128,-1,1
413 61 m 1,8,-1
 703 61 l 2,9,10
 902 61 902 61 1060 258 c 0,11,12
 1224 463 1224 463 1286 756 c 0,13,14
 1313 883 1313 883 1313 1000 c 0,15,16
 1313 1140 1313 1140 1271 1252 c 0,17,18
 1197 1449 1197 1449 998 1449 c 2,19,-1
 708 1449 l 1,20,-1
 413 61 l 1,8,-1
65 0 m 2,21,22
 52 0 52 0 52 8 c 0,23,24
 52 10 52 10 53 15 c 2,25,-1
 57 35 l 2,26,27
 60 50 60 50 76 50 c 2,28,-1
 121 50 l 2,29,30
 211 50 211 50 230 140 c 2,31,-1
 491 1370 l 2,32,33
 494 1384 494 1384 495 1399 c 0,34,35
 495 1460 495 1460 420 1460 c 2,36,-1
 375 1460 l 2,37,38
 363 1460 363 1460 363 1468 c 0,39,40
 363 1470 363 1470 364 1475 c 2,41,-1
 368 1495 l 2,42,43
 371 1510 371 1510 386 1510 c 2,44,-1
 1011 1510 l 2,45,46
 1310 1510 1310 1510 1442 1284 c 0,47,48
 1529 1134 1529 1134 1529 949 c 0,49,50
 1529 857 1529 857 1507 755 c 0,51,52
 1442 450 1442 450 1217 226 c 0,53,54
 989 0 989 0 690 0 c 2,55,-1
 65 0 l 2,21,22
EndSplineSet
Validated: 1
EndChar

StartChar: uni1E0B
Encoding: 7691 7691 76
Width: 1239
Flags: W
HStem: -20 55<499.943 692.156> 0 50<1075.55 1194> 1065 55<703.038 904.824> 1220 245<724.097 891.903> 1460 50<1025 1143.45>
VStem: 198 190<174.139 625.631> 688 240<1257.13 1427.87> 884 181<53.3942 257.258> 1154 181<1191.5 1456.61>
DStem2: 854.991 -20 1034.99 -20 0.207912 0.978148<172.266 207.506 240.818 803.515 957.901 1449.69>
LayerCount: 2
Fore
SplineSet
808 1465 m 128,-1,1
 858 1465 858 1465 893 1429 c 128,-1,2
 928 1393 928 1393 928 1342.5 c 128,-1,3
 928 1292 928 1292 893 1256 c 128,-1,4
 858 1220 858 1220 808 1220 c 128,-1,5
 758 1220 758 1220 723 1256 c 128,-1,6
 688 1292 688 1292 688 1342.5 c 128,-1,7
 688 1393 688 1393 723 1429 c 128,-1,0
 758 1465 758 1465 808 1465 c 128,-1,1
590 35 m 128,-1,9
 702 35 702 35 814 161 c 0,10,11
 892 249 892 249 942 392 c 1,12,-1
 1010 709 l 1,13,14
 1012 740 1012 740 1012 769 c 0,15,16
 1012 875 1012 875 979 947 c 0,17,18
 926 1065 926 1065 809 1065 c 128,-1,19
 692 1065 692 1065 589 947 c 0,20,21
 469 809 469 809 414 550 c 0,22,23
 388 429 388 429 388 336 c 0,24,25
 388 232 388 232 420 161 c 0,26,8
 478 35 478 35 590 35 c 128,-1,9
217 550 m 0,27,28
 274 818 274 818 456 980 c 0,29,30
 614 1120 614 1120 791 1120 c 0,31,32
 891 1120 891 1120 951 1080 c 0,33,34
 1005 1043 1005 1043 1034 976 c 0,35,36
 1046 948 1046 948 1054 917 c 1,37,-1
 1150 1370 l 2,38,39
 1153 1384 1153 1384 1154 1399 c 0,40,41
 1154 1460 1154 1460 1079 1460 c 2,42,-1
 1034 1460 l 2,43,44
 1022 1460 1022 1460 1022 1468 c 0,45,46
 1022 1470 1022 1470 1023 1475 c 2,47,-1
 1027 1495 l 2,48,49
 1030 1510 1030 1510 1045 1510 c 2,50,-1
 1220 1510 l 2,51,52
 1335 1510 1335 1510 1335 1415 c 0,53,54
 1335 1394 1335 1394 1330 1370 c 2,55,-1
 1069 140 l 2,56,57
 1066 126 1066 126 1065 111 c 0,58,59
 1065 50 1065 50 1140 50 c 2,60,-1
 1185 50 l 2,61,62
 1197 50 1197 50 1197 42 c 0,63,64
 1197 40 1197 40 1196 35 c 2,65,-1
 1192 15 l 2,66,67
 1189 0 1189 0 1174 0 c 2,68,-1
 999 0 l 2,69,70
 884 0 884 0 884 95 c 0,71,72
 884 116 884 116 889 140 c 2,73,-1
 898 183 l 1,74,75
 877 152 877 152 853 124 c 0,76,77
 797 58 797 58 725 20 c 0,78,79
 648 -20 648 -20 549 -20 c 0,80,81
 370 -20 370 -20 274 120 c 0,82,83
 199 229 199 229 198 385 c 0,84,85
 198 462 198 462 217 550 c 0,27,28
EndSplineSet
Validated: 1
EndChar

StartChar: uni1E1E
Encoding: 7710 7710 77
Width: 1091
Flags: W
HStem: 0 21G<217.5 385> 715 80<569 884.937> 1430 80<704 1212.5> 1460 50<366 484.453> 1630 245<854.097 1021.9>
VStem: 818 240<1667.13 1837.87>
DStem2: 199.623 0 399.623 0 0.207912 0.978148<32.2397 772.639 854.425 1429.53> 752.403 0 802.403 0 0.207912 0.978148<611.523 667.472 829.391 944.578>
LayerCount: 2
Fore
SplineSet
938 1875 m 128,-1,1
 988 1875 988 1875 1023 1839 c 128,-1,2
 1058 1803 1058 1803 1058 1752.5 c 128,-1,3
 1058 1702 1058 1702 1023 1666 c 128,-1,4
 988 1630 988 1630 938 1630 c 128,-1,5
 888 1630 888 1630 853 1666 c 128,-1,6
 818 1702 818 1702 818 1752.5 c 128,-1,7
 818 1803 818 1803 853 1839 c 128,-1,0
 888 1875 888 1875 938 1875 c 128,-1,1
230 0 m 2,8,9
 205 0 205 0 205 20 c 0,10,11
 205 25 205 25 206 30 c 2,12,-1
 491 1370 l 2,13,14
 495 1389 495 1389 495 1399 c 0,15,16
 495 1460 495 1460 420 1460 c 2,17,-1
 375 1460 l 2,18,19
 363 1460 363 1460 363 1468 c 0,20,21
 363 1470 363 1470 364 1475 c 2,22,-1
 368 1495 l 2,23,24
 371 1510 371 1510 386 1510 c 2,25,-1
 1201 1510 l 2,26,27
 1272 1510 1272 1510 1295 1447 c 2,28,-1
 1347 1306 l 2,29,30
 1348 1303 1348 1303 1348 1300 c 0,31,32
 1348 1294 1348 1294 1342 1291 c 2,33,-1
 1312 1276 l 2,34,35
 1308 1274 1308 1274 1305 1274 c 0,36,37
 1298 1274 1298 1274 1294 1284 c 0,38,39
 1237 1430 1237 1430 1068 1430 c 2,40,-1
 704 1430 l 1,41,-1
 569 795 l 1,42,-1
 831 795 l 2,43,44
 922 795 922 795 940 885 c 2,45,-1
 944 905 l 2,46,47
 947 919 947 919 961 919 c 2,48,-1
 981 919 l 2,49,50
 995 919 995 919 995 910 c 0,51,-1
 994 905 l 2,52,-1
 931 605 l 2,53,54
 928 591 928 591 912 591 c 2,55,-1
 892 591 l 2,56,57
 880 591 880 591 880 598 c 0,58,59
 880 600 880 600 881 605 c 2,60,-1
 885 625 l 2,61,62
 888 640 888 640 888 654 c 0,63,64
 888 715 888 715 814 715 c 2,65,-1
 552 715 l 1,66,-1
 406 30 l 2,67,68
 400 0 400 0 370 0 c 2,69,-1
 230 0 l 2,8,9
EndSplineSet
Validated: 1
EndChar

StartChar: uni1E1F
Encoding: 7711 7711 78
Width: 875
Flags: W
HStem: -410 50<-103.95 7.11377> 740 60<213.589 357 550 833.417> 1480 50<813.746 1011.05> 1630 245<854.097 1021.9>
VStem: 818 240<1667.13 1837.87> 1067 88<1232.03 1444.4> 1067 53<1232.32 1313.77>
DStem2: 112.56 -410 292.977 -410 0.207912 0.978148<230.474 1175.69 1274.51 1802.95>
LayerCount: 2
Fore
SplineSet
938 1875 m 128,-1,1
 988 1875 988 1875 1023 1839 c 128,-1,2
 1058 1803 1058 1803 1058 1752.5 c 128,-1,3
 1058 1702 1058 1702 1023 1666 c 128,-1,4
 988 1630 988 1630 938 1630 c 128,-1,5
 888 1630 888 1630 853 1666 c 128,-1,6
 818 1702 818 1702 818 1752.5 c 128,-1,7
 818 1803 818 1803 853 1839 c 128,-1,0
 888 1875 888 1875 938 1875 c 128,-1,1
-84 -360 m 16,8,9
 1 -360 1 -360 75 -286 c 0,10,11
 157 -204 157 -204 198 -10 c 2,12,-1
 357 740 l 1,13,-1
 222 740 l 2,14,15
 210 740 210 740 210 750 c 0,16,17
 210 753 210 753 210 755 c 2,18,-1
 217 785 l 2,19,20
 220 800 220 800 235 800 c 2,21,-1
 370 800 l 1,22,-1
 440 1130 l 2,23,24
 482 1329 482 1329 614 1431 c 0,25,26
 743 1530 743 1530 902 1530 c 0,27,28
 1052 1530 1052 1530 1140 1454 c 0,29,30
 1155 1441 1155 1441 1155 1419 c 0,31,32
 1155 1411 1155 1411 1153 1402 c 2,33,-1
 1120 1246 l 2,34,35
 1117 1231 1117 1231 1106 1231 c 2,36,-1
 1079 1231 l 2,37,38
 1067 1231 1067 1231 1067 1244 c 0,39,40
 1067 1245 1067 1245 1067 1246 c 0,41,42
 1069 1271 1069 1271 1069 1294 c 0,43,44
 1069 1480 1069 1480 931 1480 c 0,45,46
 817 1480 817 1480 743 1406 c 0,47,48
 661 1324 661 1324 620 1130 c 2,49,-1
 550 800 l 1,50,-1
 825 800 l 2,51,52
 838 800 838 800 838 790 c 0,53,54
 838 789 838 789 837 785 c 2,55,-1
 830 755 l 2,56,57
 826 740 826 740 812 740 c 2,58,-1
 537 740 l 1,59,-1
 378 -10 l 2,60,61
 338 -200 338 -200 194 -311 c 0,62,63
 65 -410 65 -410 -94 -410 c 0,64,65
 -107 -410 -107 -410 -107 -402 c 0,66,67
 -107 -400 -107 -400 -106 -395 c 2,68,-1
 -102 -375 l 2,69,70
 -99 -360 -99 -360 -84 -360 c 16,8,9
EndSplineSet
Validated: 1
EndChar

StartChar: uni1E41
Encoding: 7745 7745 79
Width: 1976
Flags: W
HStem: 0 50<1812.55 1931> 1020 100<829.234 1034.94 1529.79 1742.94> 1050 50<278.669 396.594> 1220 245<1154.1 1321.9>
VStem: 407 182<779.328 1046.61> 1066 179<718.912 988.188> 1118 240<1257.13 1427.87> 1621 181<53.3942 327.031> 1774 179<708.975 988.188>
DStem2: 199.623 0 379.623 0 0.207912 0.978148<28.1464 584.723 624.324 1010.05> 887.623 0 1067.62 0 0.207912 0.978148<28.1464 585.089 624.324 897.453> 1596.24 0 1776.24 0 0.207912 0.978148<151.819 897.325>
LayerCount: 2
Fore
SplineSet
1238 1465 m 128,-1,1
 1288 1465 1288 1465 1323 1429 c 128,-1,2
 1358 1393 1358 1393 1358 1342.5 c 128,-1,3
 1358 1292 1358 1292 1323 1256 c 128,-1,4
 1288 1220 1288 1220 1238 1220 c 128,-1,5
 1188 1220 1188 1220 1153 1256 c 128,-1,6
 1118 1292 1118 1292 1118 1342.5 c 128,-1,7
 1118 1393 1118 1393 1153 1429 c 128,-1,0
 1188 1465 1188 1465 1238 1465 c 128,-1,1
230 0 m 2,8,9
 205 0 205 0 205 20 c 0,10,11
 205 25 205 25 206 30 c 2,12,-1
 404 960 l 2,13,14
 407 974 407 974 407 989 c 0,15,16
 407 1050 407 1050 333 1050 c 2,17,-1
 288 1050 l 2,18,19
 275 1050 275 1050 275 1059 c 0,20,21
 275 1061 275 1061 276 1065 c 2,22,-1
 281 1085 l 2,23,24
 285 1100 285 1100 299 1100 c 2,25,-1
 474 1100 l 2,26,27
 589 1100 589 1100 589 1005 c 0,28,29
 589 984 589 984 584 960 c 2,30,-1
 502 574 l 1,31,32
 679 1120 679 1120 996 1120 c 0,33,34
 1139 1120 1139 1120 1202 1036 c 0,35,36
 1245 979 1245 979 1245 886 c 0,37,38
 1245 831 1245 831 1232 770 c 2,39,-1
 1190 574 l 1,40,41
 1367 1120 1367 1120 1704 1120 c 0,42,43
 1847 1120 1847 1120 1910 1036 c 0,44,45
 1953 979 1953 979 1953 886 c 0,46,47
 1953 831 1953 831 1940 770 c 2,48,-1
 1806 140 l 2,49,50
 1803 126 1803 126 1802 111 c 0,51,52
 1802 50 1802 50 1877 50 c 2,53,-1
 1922 50 l 2,54,55
 1934 50 1934 50 1934 42 c 0,56,57
 1934 40 1934 40 1933 35 c 2,58,-1
 1929 15 l 2,59,60
 1926 0 1926 0 1911 0 c 2,61,-1
 1736 0 l 2,62,63
 1621 0 1621 0 1621 95 c 0,64,65
 1621 116 1621 116 1626 140 c 2,66,-1
 1760 770 l 2,67,68
 1774 836 1774 836 1774 881 c 0,69,70
 1774 918 1774 918 1764 941 c 0,71,72
 1731 1020 1731 1020 1630 1020 c 0,73,74
 1272 1020 1272 1020 1074 30 c 0,75,76
 1068 0 1068 0 1038 0 c 2,77,-1
 918 0 l 2,78,79
 893 0 893 0 893 20 c 0,80,81
 893 25 893 25 894 30 c 2,82,-1
 1052 770 l 2,83,84
 1066 836 1066 836 1066 881 c 0,85,86
 1066 918 1066 918 1056 941 c 0,87,88
 1023 1020 1023 1020 922 1020 c 0,89,90
 584 1020 584 1020 386 30 c 24,91,92
 380 0 380 0 350 0 c 2,93,-1
 230 0 l 2,8,9
EndSplineSet
Validated: 1
EndChar

StartChar: uni1E56
Encoding: 7766 7766 80
Width: 1208
Flags: W
HStem: 0 21G<229 375> 548 61<529 814.405> 1449 61<364.98 492.363 708 977.992> 1630 245<854.097 1021.9>
VStem: 818 240<1667.13 1837.87> 1132 208<926.487 1325.32>
DStem2: 199.585 0 399.585 0 0.207912 0.978148<33.2952 601.811 664.181 1429.38>
LayerCount: 2
Fore
SplineSet
938 1875 m 128,-1,1
 988 1875 988 1875 1023 1839 c 128,-1,2
 1058 1803 1058 1803 1058 1752.5 c 128,-1,3
 1058 1702 1058 1702 1023 1666 c 128,-1,4
 988 1630 988 1630 938 1630 c 128,-1,5
 888 1630 888 1630 853 1666 c 128,-1,6
 818 1702 818 1702 818 1752.5 c 128,-1,7
 818 1803 818 1803 853 1839 c 128,-1,0
 888 1875 888 1875 938 1875 c 128,-1,1
250 0 m 2,8,9
 208 0 208 0 208 32 c 0,10,11
 208 40 208 40 210 49 c 2,12,-1
 491 1370 l 2,13,14
 494 1384 494 1384 495 1399 c 0,15,16
 495 1460 495 1460 420 1460 c 2,17,-1
 375 1460 l 2,18,19
 363 1460 363 1460 363 1469 c 0,20,21
 363 1470 363 1470 364 1475 c 2,22,-1
 368 1495 l 2,23,24
 371 1510 371 1510 386 1510 c 2,25,-1
 944 1510 l 2,26,27
 1166 1510 1166 1510 1274 1361 c 0,28,29
 1340 1270 1340 1270 1340 1146 c 0,30,31
 1340 1091 1340 1091 1327 1029 c 0,32,33
 1284 829 1284 829 1133 697 c 0,34,35
 963 548 963 548 739 548 c 2,36,-1
 516 548 l 1,37,-1
 410 49 l 2,38,39
 400 0 400 0 350 0 c 2,40,-1
 250 0 l 2,8,9
708 1449 m 1,41,-1
 529 609 l 1,42,-1
 632 609 l 2,43,44
 853 609 853 609 987 755 c 0,45,46
 1081 861 1081 861 1117 1029 c 0,47,48
 1132 1099 1132 1099 1132 1163 c 0,49,50
 1132 1245 1132 1245 1104 1303 c 0,51,52
 1032 1449 1032 1449 811 1449 c 2,53,-1
 708 1449 l 1,41,-1
EndSplineSet
Validated: 1
EndChar

StartChar: uni1E57
Encoding: 7767 7767 81
Width: 1239
Flags: W
HStem: -410 21G<130.5 278> -20 55<568.105 769.104> 1050 50<278.669 396.594> 1065 55<779.177 972.848> 1220 245<854.097 1021.9>
VStem: 407 182<844.617 1046.61> 818 240<1257.13 1427.87> 1085 190<472.141 937.69>
DStem2: 112.623 -410 292.623 -410 0.207912 0.978148<28.1464 643.741 798.126 1360.8 1394.14 1429.17>
LayerCount: 2
Fore
SplineSet
938 1465 m 128,-1,1
 988 1465 988 1465 1023 1429 c 128,-1,2
 1058 1393 1058 1393 1058 1342.5 c 128,-1,3
 1058 1292 1058 1292 1023 1256 c 128,-1,4
 988 1220 988 1220 938 1220 c 128,-1,5
 888 1220 888 1220 853 1256 c 128,-1,6
 818 1292 818 1292 818 1342.5 c 128,-1,7
 818 1393 818 1393 853 1429 c 128,-1,0
 888 1465 888 1465 938 1465 c 128,-1,1
882 1065 m 128,-1,9
 770 1065 770 1065 659 939 c 0,10,11
 581 851 581 851 530 708 c 1,12,-1
 463 391 l 1,13,14
 461 360 461 360 461 331 c 0,15,16
 461 225 461 225 494 153 c 0,17,18
 547 35 547 35 663.5 35 c 128,-1,19
 780 35 780 35 884 153 c 0,20,21
 1004 291 1004 291 1059 550 c 0,22,23
 1085 671 1085 671 1085 764 c 0,24,25
 1085 868 1085 868 1053 939 c 0,26,8
 994 1065 994 1065 882 1065 c 128,-1,9
682 -20 m 0,27,28
 582 -20 582 -20 522 20 c 0,29,30
 466 58 466 58 438 124 c 0,31,32
 426 152 426 152 419 183 c 1,33,-1
 299 -380 l 2,34,35
 293 -410 293 -410 263 -410 c 2,36,-1
 143 -410 l 2,37,38
 118 -410 118 -410 118 -390 c 0,39,40
 118 -386 118 -386 119 -380 c 2,41,-1
 404 960 l 2,42,43
 407 974 407 974 407 989 c 0,44,45
 407 1050 407 1050 333 1050 c 2,46,-1
 288 1050 l 2,47,48
 275 1050 275 1050 275 1059 c 0,49,50
 275 1061 275 1061 276 1065 c 2,51,-1
 281 1085 l 2,52,53
 285 1100 285 1100 299 1100 c 2,54,-1
 474 1100 l 2,55,56
 589 1100 589 1100 589 1005 c 0,57,58
 589 984 589 984 584 960 c 2,59,-1
 575 917 l 1,60,61
 596 948 596 948 619 976 c 0,62,63
 675 1042 675 1042 748 1080 c 0,64,65
 825 1120 825 1120 924 1120 c 0,66,67
 1128 1120 1128 1120 1209 980 c 0,68,69
 1275 867 1275 867 1275 719 c 0,70,71
 1275 639 1275 639 1256 550 c 0,72,73
 1202 295 1202 295 1027 120 c 0,74,75
 886 -20 886 -20 682 -20 c 0,27,28
EndSplineSet
Validated: 1
EndChar

StartChar: uni1E60
Encoding: 7776 7776 82
Width: 1160
Flags: W
HStem: -20 61<364.124 661.271> 1469 61<759.468 995.747> 1630 245<854.097 1021.9>
VStem: 112 101<139 381> 422 183<1059.34 1283.03> 818 240<1667.13 1837.87> 944 204<357.585 635.148> 1110 102<1160.34 1364.9>
DStem2: 767 964 619 815 0.888744 -0.458405<-177.107 290.2>
LayerCount: 2
Fore
SplineSet
938 1875 m 128,-1,1
 988 1875 988 1875 1023 1839 c 128,-1,2
 1058 1803 1058 1803 1058 1752.5 c 128,-1,3
 1058 1702 1058 1702 1023 1666 c 128,-1,4
 988 1630 988 1630 938 1630 c 128,-1,5
 888 1630 888 1630 853 1666 c 128,-1,6
 818 1702 818 1702 818 1752.5 c 128,-1,7
 818 1803 818 1803 853 1839 c 128,-1,0
 888 1875 888 1875 938 1875 c 128,-1,1
502 -20 m 0,8,9
 254 -20 254 -20 133 89 c 0,10,11
 112 108 112 108 112 139 c 0,12,13
 112 149 112 149 115 163 c 2,14,-1
 161 380 l 2,15,16
 164 395 164 395 179 395 c 2,17,-1
 202 395 l 2,18,19
 213 395 213 395 213 381 c 0,20,21
 213 41 213 41 515 41 c 0,22,23
 663 41 663 41 779 149 c 0,24,25
 907 268 907 268 935 402 c 0,26,27
 944 446 944 446 944 486 c 0,28,29
 944 646 944 646 794 724 c 2,30,-1
 619 815 l 2,31,32
 422 917 422 917 422 1105 c 0,33,34
 422 1132 422 1132 426 1162 c 0,35,36
 449 1332 449 1332 627 1456 c 0,37,38
 735 1530 735 1530 890 1530 c 0,39,40
 1082 1530 1082 1530 1191 1431 c 0,41,42
 1212 1412 1212 1412 1212 1381 c 0,43,44
 1212 1371 1212 1371 1209 1357 c 2,45,-1
 1163 1140 l 2,46,47
 1160 1125 1160 1125 1145 1125 c 2,48,-1
 1122 1125 l 2,49,50
 1110 1125 1110 1125 1110 1140 c 0,51,52
 1110 1469 1110 1469 877 1469 c 0,53,54
 788 1469 788 1469 715 1408 c 0,55,56
 636 1341 636 1341 611 1231 c 0,57,58
 605 1204 605 1204 605 1180 c 0,59,60
 605 1048 605 1048 767 964 c 2,61,-1
 957 866 l 2,62,63
 1148 767 1148 767 1148 562 c 0,64,65
 1148 519 1148 519 1140 472 c 0,66,67
 1111 303 1111 303 947 149 c 0,68,69
 767 -20 767 -20 502 -20 c 0,8,9
EndSplineSet
Validated: 1
EndChar

StartChar: uni1E61
Encoding: 7777 7777 83
Width: 956
Flags: W
HStem: -20 50<316.62 534.677> 1070 50<609.245 780> 1220 245<674.097 841.903>
VStem: 111 90<121.125 330.524> 326 179<736.828 946.323> 638 240<1257.13 1427.87> 730 184<232.22 466.936> 852 88<792.937 1015.79>
DStem2: 616 693 527 544 0.921071 -0.389396<-122.937 200.343>
LayerCount: 2
Fore
SplineSet
758 1465 m 128,-1,1
 808 1465 808 1465 843 1429 c 128,-1,2
 878 1393 878 1393 878 1342.5 c 128,-1,3
 878 1292 878 1292 843 1256 c 128,-1,4
 808 1220 808 1220 758 1220 c 128,-1,5
 708 1220 708 1220 673 1256 c 128,-1,6
 638 1292 638 1292 638 1342.5 c 128,-1,7
 638 1393 638 1393 673 1429 c 128,-1,0
 708 1465 708 1465 758 1465 c 128,-1,1
422 -20 m 0,8,9
 251 -20 251 -20 133 88 c 0,10,11
 111 107 111 107 111 139 c 0,12,13
 111 150 111 150 114 162 c 2,14,-1
 148 318 l 2,15,16
 151 333 151 333 166 333 c 2,17,-1
 189 333 l 2,18,19
 201 333 201 333 201 318 c 0,20,21
 201 30 201 30 427 30 c 0,22,23
 536 30 536 30 624 118 c 0,24,25
 704 199 704 199 724 298 c 0,26,27
 730 328 730 328 730 354 c 0,28,29
 730 462 730 462 626 504 c 2,30,-1
 527 544 l 2,31,32
 326 625 326 625 326 797 c 0,33,34
 326 820 326 820 330 845 c 0,35,36
 348 958 348 958 471 1050 c 0,37,38
 566 1120 566 1120 701 1120 c 0,39,40
 854 1120 854 1120 920 1036 c 16,41,42
 940 1010 940 1010 940 982 c 0,43,44
 940 972 940 972 938 962 c 2,45,-1
 905 806 l 2,46,47
 902 791 902 791 887 791 c 2,48,-1
 864 791 l 2,49,50
 852 791 852 791 852 806 c 0,51,52
 852 1070 852 1070 706 1070 c 0,53,54
 620 1070 620 1070 567 1011 c 0,55,56
 525 965 525 965 511 900 c 0,57,58
 505 872 505 872 505 848 c 0,59,60
 505 740 505 740 616 693 c 2,61,-1
 739 641 l 2,62,63
 914 567 914 567 914 404 c 0,64,65
 914 378 914 378 910 350 c 0,66,67
 888 203 888 203 748 92 c 0,68,69
 605 -20 605 -20 422 -20 c 0,8,9
EndSplineSet
Validated: 1
EndChar

StartChar: uni1E6A
Encoding: 7786 7786 84
Width: 1278
Flags: W
HStem: 0 21G<556.5 724> 1430 80<458.514 843 1043 1409.5> 1630 245<934.097 1101.9>
VStem: 898 240<1667.13 1837.87>
DStem2: 538.623 0 738.623 0 0.207912 0.978148<32.2397 1462.03>
LayerCount: 2
Fore
SplineSet
1018 1875 m 128,-1,1
 1068 1875 1068 1875 1103 1839 c 128,-1,2
 1138 1803 1138 1803 1138 1752.5 c 128,-1,3
 1138 1702 1138 1702 1103 1666 c 128,-1,4
 1068 1630 1068 1630 1018 1630 c 128,-1,5
 968 1630 968 1630 933 1666 c 128,-1,6
 898 1702 898 1702 898 1752.5 c 128,-1,7
 898 1803 898 1803 933 1839 c 128,-1,0
 968 1875 968 1875 1018 1875 c 128,-1,1
569 0 m 2,8,9
 544 0 544 0 544 20 c 0,10,11
 544 24 544 24 545 30 c 2,12,-1
 843 1430 l 1,13,-1
 621 1430 l 2,14,15
 449 1430 449 1430 333 1284 c 0,16,17
 325 1274 325 1274 318 1274 c 0,18,19
 315 1274 315 1274 311 1276 c 2,20,-1
 293 1287 l 2,21,22
 286 1291 286 1291 286 1297 c 0,23,24
 286 1302 286 1302 290 1306 c 2,25,-1
 402 1447 l 2,26,27
 452 1510 452 1510 522 1510 c 2,28,-1
 1398 1510 l 2,29,30
 1468 1510 1468 1510 1492 1447 c 2,31,-1
 1544 1306 l 2,32,33
 1545 1302 1545 1302 1545 1301 c 0,34,35
 1545 1293 1545 1293 1533 1287 c 2,36,-1
 1509 1276 l 2,37,38
 1505 1274 1505 1274 1502 1274 c 0,39,40
 1495 1274 1495 1274 1491 1284 c 0,41,42
 1434 1430 1434 1430 1265 1430 c 2,43,-1
 1043 1430 l 1,44,-1
 745 30 l 2,45,46
 739 0 739 0 709 0 c 2,47,-1
 569 0 l 2,8,9
EndSplineSet
Validated: 1
EndChar

StartChar: uni1E6B
Encoding: 7787 7787 85
Width: 640
Flags: W
HStem: 0 50<446.547 565> 1040 60<237.583 451 644 857.417> 1460 50<396 514.453> 1630 245<584.097 751.903>
VStem: 255 181<53.4375 205.829> 525 181<1184.38 1456.61> 548 240<1667.13 1837.87>
DStem2: 230.242 0 410.242 0 0.207912 0.978148<151.819 1063.17 1161.99 1429.25>
LayerCount: 2
Fore
SplineSet
668 1875 m 128,-1,1
 718 1875 718 1875 753 1839 c 128,-1,2
 788 1803 788 1803 788 1752.5 c 128,-1,3
 788 1702 788 1702 753 1666 c 128,-1,4
 718 1630 718 1630 668 1630 c 128,-1,5
 618 1630 618 1630 583 1666 c 128,-1,6
 548 1702 548 1702 548 1752.5 c 128,-1,7
 548 1803 548 1803 583 1839 c 128,-1,0
 618 1875 618 1875 668 1875 c 128,-1,1
370 0 m 2,8,9
 255 0 255 0 255 95 c 0,10,11
 255 116 255 116 260 140 c 2,12,-1
 451 1040 l 1,13,-1
 246 1040 l 2,14,15
 233 1040 233 1040 233 1048 c 0,16,17
 233 1051 233 1051 234 1055 c 2,18,-1
 241 1085 l 2,19,20
 244 1100 244 1100 259 1100 c 2,21,-1
 464 1100 l 1,22,-1
 521 1370 l 2,23,24
 524 1384 524 1384 525 1399 c 0,25,26
 525 1460 525 1460 450 1460 c 2,27,-1
 405 1460 l 2,28,29
 393 1460 393 1460 393 1468 c 0,30,31
 393 1470 393 1470 394 1475 c 2,32,-1
 398 1495 l 2,33,34
 401 1510 401 1510 416 1510 c 2,35,-1
 591 1510 l 2,36,37
 706 1510 706 1510 706 1415 c 0,38,39
 706 1394 706 1394 701 1370 c 2,40,-1
 644 1100 l 1,41,-1
 849 1100 l 2,42,43
 862 1100 862 1100 862 1091 c 0,44,45
 862 1089 862 1089 861 1085 c 2,46,-1
 854 1055 l 2,47,48
 850 1040 850 1040 836 1040 c 2,49,-1
 631 1040 l 1,50,-1
 440 140 l 2,51,52
 437 126 437 126 436 111 c 0,53,54
 436 50 436 50 511 50 c 2,55,-1
 556 50 l 2,56,57
 568 50 568 50 568 42 c 0,58,59
 568 40 568 40 567 35 c 2,60,-1
 563 15 l 2,61,62
 560 0 560 0 545 0 c 2,63,-1
 370 0 l 2,8,9
EndSplineSet
Validated: 1
EndChar

StartChar: Wgrave
Encoding: 7808 7808 86
Width: 1993
Flags: W
HStem: 0 21G<631.5 844 1148.5 1361> 1460 50<326 427.803 843 944.803 1659.69 1781.95 2176.69 2298.95>
VStem: 1174 214<1793.66 1901>
DStem2: 627 1434 432 1420 0.127722 -0.99181<-56.1421 1374.44> 804 71 877 30 0.485055 0.874484<0 419.442 862.599 1656.74> 1144 1434 949 1420 0.127722 -0.99181<-56.1421 614.102 754.263 879.308 1020.46 1374.44> 1321 71 1394 30 0.485055 0.874484<0 1656.74>
LayerCount: 2
Fore
SplineSet
1202 1901 m 2,0,1
 1352 1901 l 2,2,3
 1383 1901 1383 1901 1388 1871 c 2,4,-1
 1430 1600 l 2,5,6
 1432 1589 1432 1589 1432 1586 c 0,7,8
 1432 1570 1432 1570 1406 1570 c 2,9,-1
 1365 1570 l 2,10,11
 1336 1570 1336 1570 1322 1596 c 2,12,-1
 1178 1871 l 2,13,14
 1174 1878 1174 1878 1174 1883 c 0,15,16
 1174 1901 1174 1901 1202 1901 c 2,0,1
648 0 m 2,17,18
 615 0 615 0 611 30 c 2,19,-1
 432 1420 l 2,20,21
 427 1460 427 1460 380 1460 c 2,22,-1
 335 1460 l 2,23,24
 323 1460 323 1460 323 1468 c 0,25,26
 323 1470 323 1470 324 1475 c 2,27,-1
 328 1495 l 2,28,29
 331 1510 331 1510 346 1510 c 2,30,-1
 525 1510 l 2,31,32
 617 1510 617 1510 627 1434 c 2,33,-1
 804 71 l 1,34,-1
 1063 537 l 1,35,-1
 949 1420 l 2,36,37
 944 1460 944 1460 897 1460 c 2,38,-1
 852 1460 l 2,39,40
 840 1460 840 1460 840 1468 c 0,41,42
 840 1470 840 1470 841 1475 c 2,43,-1
 845 1495 l 2,44,45
 848 1510 848 1510 863 1510 c 2,46,-1
 1042 1510 l 2,47,48
 1134 1510 1134 1510 1144 1434 c 2,49,-1
 1223 825 l 1,50,-1
 1561 1434 l 2,51,52
 1603 1510 1603 1510 1695 1510 c 2,53,-1
 1772 1510 l 2,54,55
 1785 1510 1785 1510 1785 1502 c 0,56,57
 1785 1500 1785 1500 1784 1495 c 2,58,-1
 1780 1475 l 2,59,60
 1777 1460 1777 1460 1761 1460 c 2,61,-1
 1716 1460 l 2,62,63
 1670 1460 1670 1460 1648 1420 c 2,64,-1
 1241 686 l 1,65,-1
 1321 71 l 1,66,-1
 2078 1434 l 2,67,68
 2120 1510 2120 1510 2212 1510 c 2,69,-1
 2289 1510 l 2,70,71
 2302 1510 2302 1510 2302 1502 c 0,72,73
 2302 1500 2302 1500 2301 1495 c 2,74,-1
 2297 1475 l 2,75,76
 2294 1460 2294 1460 2278 1460 c 2,77,-1
 2233 1460 l 2,78,79
 2187 1460 2187 1460 2165 1420 c 2,80,-1
 1394 30 l 2,81,82
 1377 0 1377 0 1345 0 c 2,83,-1
 1165 0 l 2,84,85
 1132 0 1132 0 1128 30 c 2,86,-1
 1081 397 l 1,87,-1
 877 30 l 2,88,89
 860 0 860 0 828 0 c 2,90,-1
 648 0 l 2,17,18
EndSplineSet
Validated: 1
EndChar

StartChar: wgrave
Encoding: 7809 7809 87
Width: 1897
Flags: W
HStem: -20 100<467.244 680.215 1179.03 1463.44> 1050 50<279 397.453>
VStem: 257 179<111.812 391.025> 408 181<772.969 1046.61> 965 179<116.797 471.344> 1028 214<1383.66 1491> 1784 158<544.848 950.418>
DStem2: 195.605 -20 375.605 -20 0.207912 0.978148<285.139 1030.8> 903.605 -20 1083.61 -20 0.207912 0.978148<285.139 558.268 597.503 1154.45>
LayerCount: 2
Fore
SplineSet
1056 1491 m 2,0,1
 1206 1491 l 2,2,3
 1237 1491 1237 1491 1242 1461 c 2,4,-1
 1284 1190 l 2,5,6
 1286 1179 1286 1179 1286 1176 c 0,7,8
 1286 1160 1286 1160 1260 1160 c 2,9,-1
 1219 1160 l 2,10,11
 1190 1160 1190 1160 1176 1186 c 2,12,-1
 1032 1461 l 2,13,14
 1028 1468 1028 1468 1028 1473 c 0,15,16
 1028 1491 1028 1491 1056 1491 c 2,0,1
506 -20 m 0,17,18
 363 -20 363 -20 300 64 c 0,19,20
 257 121 257 121 257 214 c 0,21,22
 257 269 257 269 270 330 c 2,23,-1
 404 960 l 2,24,25
 408 979 408 979 408 989 c 0,26,27
 408 1050 408 1050 333 1050 c 2,28,-1
 288 1050 l 2,29,30
 276 1050 276 1050 276 1060 c 0,31,32
 276 1062 276 1062 277 1065 c 2,33,-1
 281 1085 l 2,34,35
 284 1100 284 1100 299 1100 c 2,36,-1
 474 1100 l 2,37,38
 589 1100 589 1100 589 1005 c 0,39,40
 589 984 589 984 584 960 c 2,41,-1
 450 330 l 2,42,43
 436 264 436 264 436 219 c 0,44,45
 436 182 436 182 446 159 c 0,46,47
 480 80 480 80 580 80 c 0,48,49
 938 80 938 80 1136 1070 c 0,50,51
 1142 1100 1142 1100 1172 1100 c 2,52,-1
 1292 1100 l 2,53,54
 1317 1100 1317 1100 1317 1080 c 0,55,56
 1317 1075 1317 1075 1316 1070 c 2,57,-1
 1158 330 l 2,58,59
 1144 264 1144 264 1144 219 c 0,60,61
 1144 182 1144 182 1154 159 c 0,62,63
 1188 80 1188 80 1343 80 c 0,64,65
 1524 80 1524 80 1648 218 c 0,66,67
 1725 303 1725 303 1759 453 c 0,68,69
 1784 562 1784 562 1784 707 c 0,70,71
 1784 860 1784 860 1694 1070 c 0,72,73
 1691 1077 1691 1077 1691 1082 c 0,74,75
 1691 1100 1691 1100 1730 1100 c 2,76,-1
 1880 1100 l 2,77,78
 1899 1100 1899 1100 1905 1080 c 0,79,80
 1942 950 1942 950 1942 822 c 0,81,82
 1942 663 1942 663 1885 507 c 0,83,84
 1694 -20 1694 -20 1214 -20 c 0,85,86
 1071 -20 1071 -20 1008 64 c 0,87,88
 965 121 965 121 965 214 c 0,89,90
 965 269 965 269 978 330 c 2,91,-1
 1020 526 l 1,92,93
 843 -20 843 -20 506 -20 c 0,17,18
EndSplineSet
Validated: 1
EndChar

StartChar: Wacute
Encoding: 7810 7810 88
Width: 1993
Flags: W
HStem: 0 21G<631.5 844 1148.5 1361> 1460 50<326 427.803 843 944.803 1659.69 1781.95 2176.69 2298.95>
DStem2: 627 1434 432 1420 0.127722 -0.99181<-56.1421 1374.44> 804 71 877 30 0.485055 0.874484<0 419.442 862.599 1656.74> 1144 1434 949 1420 0.127722 -0.99181<-56.1421 614.102 754.263 879.308 1020.46 1374.44> 1321 71 1394 30 0.485055 0.874484<0 1656.74>
LayerCount: 2
Fore
SplineSet
1705 1901 m 2,0,1
 1726 1901 1726 1901 1726 1888 c 0,2,3
 1726 1881 1726 1881 1717 1871 c 2,4,-1
 1455 1596 l 2,5,6
 1430 1570 1430 1570 1402 1570 c 2,7,-1
 1361 1570 l 2,8,9
 1342 1570 1342 1570 1342 1581 c 0,10,11
 1342 1588 1342 1588 1349 1600 c 2,12,-1
 1507 1871 l 2,13,14
 1524 1901 1524 1901 1555 1901 c 2,15,-1
 1705 1901 l 2,0,1
648 0 m 2,16,17
 615 0 615 0 611 30 c 2,18,-1
 432 1420 l 2,19,20
 427 1460 427 1460 380 1460 c 2,21,-1
 335 1460 l 2,22,23
 323 1460 323 1460 323 1468 c 0,24,25
 323 1470 323 1470 324 1475 c 2,26,-1
 328 1495 l 2,27,28
 331 1510 331 1510 346 1510 c 2,29,-1
 525 1510 l 2,30,31
 617 1510 617 1510 627 1434 c 2,32,-1
 804 71 l 1,33,-1
 1063 537 l 1,34,-1
 949 1420 l 2,35,36
 944 1460 944 1460 897 1460 c 2,37,-1
 852 1460 l 2,38,39
 840 1460 840 1460 840 1468 c 0,40,41
 840 1470 840 1470 841 1475 c 2,42,-1
 845 1495 l 2,43,44
 848 1510 848 1510 863 1510 c 2,45,-1
 1042 1510 l 2,46,47
 1134 1510 1134 1510 1144 1434 c 2,48,-1
 1223 825 l 1,49,-1
 1561 1434 l 2,50,51
 1603 1510 1603 1510 1695 1510 c 2,52,-1
 1772 1510 l 2,53,54
 1785 1510 1785 1510 1785 1502 c 0,55,56
 1785 1500 1785 1500 1784 1495 c 2,57,-1
 1780 1475 l 2,58,59
 1777 1460 1777 1460 1761 1460 c 2,60,-1
 1716 1460 l 2,61,62
 1670 1460 1670 1460 1648 1420 c 2,63,-1
 1241 686 l 1,64,-1
 1321 71 l 1,65,-1
 2078 1434 l 2,66,67
 2120 1510 2120 1510 2212 1510 c 2,68,-1
 2289 1510 l 2,69,70
 2302 1510 2302 1510 2302 1502 c 0,71,72
 2302 1500 2302 1500 2301 1495 c 2,73,-1
 2297 1475 l 2,74,75
 2294 1460 2294 1460 2278 1460 c 2,76,-1
 2233 1460 l 2,77,78
 2187 1460 2187 1460 2165 1420 c 2,79,-1
 1394 30 l 2,80,81
 1377 0 1377 0 1345 0 c 2,82,-1
 1165 0 l 2,83,84
 1132 0 1132 0 1128 30 c 2,85,-1
 1081 397 l 1,86,-1
 877 30 l 2,87,88
 860 0 860 0 828 0 c 2,89,-1
 648 0 l 2,16,17
EndSplineSet
Validated: 1
EndChar

StartChar: wacute
Encoding: 7811 7811 89
Width: 1897
Flags: W
HStem: -20 100<467.244 680.215 1179.03 1463.44> 1050 50<279 397.453>
VStem: 257 179<111.812 391.025> 408 181<772.969 1046.61> 965 179<116.797 471.344> 1784 158<544.848 950.418>
DStem2: 195.605 -20 375.605 -20 0.207912 0.978148<285.139 1030.8> 903.605 -20 1083.61 -20 0.207912 0.978148<285.139 558.268 597.503 1154.45>
LayerCount: 2
Fore
SplineSet
1566 1491 m 2,0,1
 1587 1491 1587 1491 1587 1478 c 0,2,3
 1587 1471 1587 1471 1578 1461 c 2,4,-1
 1316 1186 l 2,5,6
 1291 1160 1291 1160 1263 1160 c 2,7,-1
 1222 1160 l 2,8,9
 1203 1160 1203 1160 1203 1171 c 0,10,11
 1203 1178 1203 1178 1210 1190 c 2,12,-1
 1368 1461 l 2,13,14
 1385 1491 1385 1491 1416 1491 c 2,15,-1
 1566 1491 l 2,0,1
506 -20 m 0,16,17
 363 -20 363 -20 300 64 c 0,18,19
 257 121 257 121 257 214 c 0,20,21
 257 269 257 269 270 330 c 2,22,-1
 404 960 l 2,23,24
 408 979 408 979 408 989 c 0,25,26
 408 1050 408 1050 333 1050 c 2,27,-1
 288 1050 l 2,28,29
 276 1050 276 1050 276 1060 c 0,30,31
 276 1062 276 1062 277 1065 c 2,32,-1
 281 1085 l 2,33,34
 284 1100 284 1100 299 1100 c 2,35,-1
 474 1100 l 2,36,37
 589 1100 589 1100 589 1005 c 0,38,39
 589 984 589 984 584 960 c 2,40,-1
 450 330 l 2,41,42
 436 264 436 264 436 219 c 0,43,44
 436 182 436 182 446 159 c 0,45,46
 480 80 480 80 580 80 c 0,47,48
 938 80 938 80 1136 1070 c 0,49,50
 1142 1100 1142 1100 1172 1100 c 2,51,-1
 1292 1100 l 2,52,53
 1317 1100 1317 1100 1317 1080 c 0,54,55
 1317 1075 1317 1075 1316 1070 c 2,56,-1
 1158 330 l 2,57,58
 1144 264 1144 264 1144 219 c 0,59,60
 1144 182 1144 182 1154 159 c 0,61,62
 1188 80 1188 80 1343 80 c 0,63,64
 1524 80 1524 80 1648 218 c 0,65,66
 1725 303 1725 303 1759 453 c 0,67,68
 1784 562 1784 562 1784 707 c 0,69,70
 1784 860 1784 860 1694 1070 c 0,71,72
 1691 1077 1691 1077 1691 1082 c 0,73,74
 1691 1100 1691 1100 1730 1100 c 2,75,-1
 1880 1100 l 2,76,77
 1899 1100 1899 1100 1905 1080 c 0,78,79
 1942 950 1942 950 1942 822 c 0,80,81
 1942 663 1942 663 1885 507 c 0,82,83
 1694 -20 1694 -20 1214 -20 c 0,84,85
 1071 -20 1071 -20 1008 64 c 0,86,87
 965 121 965 121 965 214 c 0,88,89
 965 269 965 269 978 330 c 2,90,-1
 1020 526 l 1,91,92
 843 -20 843 -20 506 -20 c 0,16,17
EndSplineSet
Validated: 1
EndChar

StartChar: Wdieresis
Encoding: 7812 7812 90
Width: 1993
Flags: W
HStem: 0 21G<631.5 844 1148.5 1361> 1460 50<326 427.803 843 944.803 1659.69 1781.95 2176.69 2298.95> 1640 227<1187.03 1342.97 1464 1620>
VStem: 1153 224<1674.55 1832.45> 1431 222<1675.07 1832.93>
DStem2: 627 1434 432 1420 0.127722 -0.99181<-56.1421 1374.44> 804 71 877 30 0.485055 0.874484<0 419.442 862.599 1656.74> 1144 1434 949 1420 0.127722 -0.99181<-56.1421 614.102 754.263 879.308 1020.46 1374.44> 1321 71 1394 30 0.485055 0.874484<0 1656.74>
LayerCount: 2
Fore
SplineSet
1542 1868 m 128,-1,1
 1589 1868 1589 1868 1621 1834 c 128,-1,2
 1653 1800 1653 1800 1653 1754 c 128,-1,3
 1653 1708 1653 1708 1621 1674 c 128,-1,4
 1589 1640 1589 1640 1542 1640 c 128,-1,5
 1495 1640 1495 1640 1463 1674 c 128,-1,6
 1431 1708 1431 1708 1431 1754 c 128,-1,7
 1431 1800 1431 1800 1463 1834 c 128,-1,0
 1495 1868 1495 1868 1542 1868 c 128,-1,1
1265 1867 m 128,-1,9
 1311 1867 1311 1867 1344 1833.5 c 128,-1,10
 1377 1800 1377 1800 1377 1753.5 c 128,-1,11
 1377 1707 1377 1707 1344 1673.5 c 128,-1,12
 1311 1640 1311 1640 1265 1640 c 128,-1,13
 1219 1640 1219 1640 1186 1673.5 c 128,-1,14
 1153 1707 1153 1707 1153 1753.5 c 128,-1,15
 1153 1800 1153 1800 1186 1833.5 c 128,-1,8
 1219 1867 1219 1867 1265 1867 c 128,-1,9
648 0 m 2,16,17
 615 0 615 0 611 30 c 2,18,-1
 432 1420 l 2,19,20
 427 1460 427 1460 380 1460 c 2,21,-1
 335 1460 l 2,22,23
 323 1460 323 1460 323 1468 c 0,24,25
 323 1470 323 1470 324 1475 c 2,26,-1
 328 1495 l 2,27,28
 331 1510 331 1510 346 1510 c 2,29,-1
 525 1510 l 2,30,31
 617 1510 617 1510 627 1434 c 2,32,-1
 804 71 l 1,33,-1
 1063 537 l 1,34,-1
 949 1420 l 2,35,36
 944 1460 944 1460 897 1460 c 2,37,-1
 852 1460 l 2,38,39
 840 1460 840 1460 840 1468 c 0,40,41
 840 1470 840 1470 841 1475 c 2,42,-1
 845 1495 l 2,43,44
 848 1510 848 1510 863 1510 c 2,45,-1
 1042 1510 l 2,46,47
 1134 1510 1134 1510 1144 1434 c 2,48,-1
 1223 825 l 1,49,-1
 1561 1434 l 2,50,51
 1603 1510 1603 1510 1695 1510 c 2,52,-1
 1772 1510 l 2,53,54
 1785 1510 1785 1510 1785 1502 c 0,55,56
 1785 1500 1785 1500 1784 1495 c 2,57,-1
 1780 1475 l 2,58,59
 1777 1460 1777 1460 1761 1460 c 2,60,-1
 1716 1460 l 2,61,62
 1670 1460 1670 1460 1648 1420 c 2,63,-1
 1241 686 l 1,64,-1
 1321 71 l 1,65,-1
 2078 1434 l 2,66,67
 2120 1510 2120 1510 2212 1510 c 2,68,-1
 2289 1510 l 2,69,70
 2302 1510 2302 1510 2302 1502 c 0,71,72
 2302 1500 2302 1500 2301 1495 c 2,73,-1
 2297 1475 l 2,74,75
 2294 1460 2294 1460 2278 1460 c 2,76,-1
 2233 1460 l 2,77,78
 2187 1460 2187 1460 2165 1420 c 2,79,-1
 1394 30 l 2,80,81
 1377 0 1377 0 1345 0 c 2,82,-1
 1165 0 l 2,83,84
 1132 0 1132 0 1128 30 c 2,85,-1
 1081 397 l 1,86,-1
 877 30 l 2,87,88
 860 0 860 0 828 0 c 2,89,-1
 648 0 l 2,16,17
EndSplineSet
Validated: 1
EndChar

StartChar: wdieresis
Encoding: 7813 7813 91
Width: 1897
Flags: W
HStem: -20 100<467.244 680.215 1179.03 1463.44> 1050 50<279 397.453> 1230 227<1060.03 1215.97 1337 1493>
VStem: 257 179<111.812 391.025> 408 181<772.969 1046.61> 965 179<116.797 471.344> 1026 224<1264.55 1422.45> 1304 222<1265.07 1422.93> 1784 158<544.848 950.418>
DStem2: 195.605 -20 375.605 -20 0.207912 0.978148<285.139 1030.8> 903.605 -20 1083.61 -20 0.207912 0.978148<285.139 558.268 597.503 1154.45>
LayerCount: 2
Fore
SplineSet
1415 1458 m 128,-1,1
 1462 1458 1462 1458 1494 1424 c 128,-1,2
 1526 1390 1526 1390 1526 1344 c 128,-1,3
 1526 1298 1526 1298 1494 1264 c 128,-1,4
 1462 1230 1462 1230 1415 1230 c 128,-1,5
 1368 1230 1368 1230 1336 1264 c 128,-1,6
 1304 1298 1304 1298 1304 1344 c 128,-1,7
 1304 1390 1304 1390 1336 1424 c 128,-1,0
 1368 1458 1368 1458 1415 1458 c 128,-1,1
1138 1457 m 128,-1,9
 1184 1457 1184 1457 1217 1423.5 c 128,-1,10
 1250 1390 1250 1390 1250 1343.5 c 128,-1,11
 1250 1297 1250 1297 1217 1263.5 c 128,-1,12
 1184 1230 1184 1230 1138 1230 c 128,-1,13
 1092 1230 1092 1230 1059 1263.5 c 128,-1,14
 1026 1297 1026 1297 1026 1343.5 c 128,-1,15
 1026 1390 1026 1390 1059 1423.5 c 128,-1,8
 1092 1457 1092 1457 1138 1457 c 128,-1,9
506 -20 m 0,16,17
 363 -20 363 -20 300 64 c 0,18,19
 257 121 257 121 257 214 c 0,20,21
 257 269 257 269 270 330 c 2,22,-1
 404 960 l 2,23,24
 408 979 408 979 408 989 c 0,25,26
 408 1050 408 1050 333 1050 c 2,27,-1
 288 1050 l 2,28,29
 276 1050 276 1050 276 1060 c 0,30,31
 276 1062 276 1062 277 1065 c 2,32,-1
 281 1085 l 2,33,34
 284 1100 284 1100 299 1100 c 2,35,-1
 474 1100 l 2,36,37
 589 1100 589 1100 589 1005 c 0,38,39
 589 984 589 984 584 960 c 2,40,-1
 450 330 l 2,41,42
 436 264 436 264 436 219 c 0,43,44
 436 182 436 182 446 159 c 0,45,46
 480 80 480 80 580 80 c 0,47,48
 938 80 938 80 1136 1070 c 0,49,50
 1142 1100 1142 1100 1172 1100 c 2,51,-1
 1292 1100 l 2,52,53
 1317 1100 1317 1100 1317 1080 c 0,54,55
 1317 1075 1317 1075 1316 1070 c 2,56,-1
 1158 330 l 2,57,58
 1144 264 1144 264 1144 219 c 0,59,60
 1144 182 1144 182 1154 159 c 0,61,62
 1188 80 1188 80 1343 80 c 0,63,64
 1524 80 1524 80 1648 218 c 0,65,66
 1725 303 1725 303 1759 453 c 0,67,68
 1784 562 1784 562 1784 707 c 0,69,70
 1784 860 1784 860 1694 1070 c 0,71,72
 1691 1077 1691 1077 1691 1082 c 0,73,74
 1691 1100 1691 1100 1730 1100 c 2,75,-1
 1880 1100 l 2,76,77
 1899 1100 1899 1100 1905 1080 c 0,78,79
 1942 950 1942 950 1942 822 c 0,80,81
 1942 663 1942 663 1885 507 c 0,82,83
 1694 -20 1694 -20 1214 -20 c 0,84,85
 1071 -20 1071 -20 1008 64 c 0,86,87
 965 121 965 121 965 214 c 0,88,89
 965 269 965 269 978 330 c 2,90,-1
 1020 526 l 1,91,92
 843 -20 843 -20 506 -20 c 0,16,17
EndSplineSet
Validated: 1
EndChar

StartChar: Ygrave
Encoding: 7922 7922 92
Width: 1321
Flags: W
HStem: 0 21G<579.5 747> 1460 50<326 424.727 1507.61 1626.95>
VStem: 874 214<1793.66 1901>
DStem2: 622 1434 432 1420 0.322773 -0.946476<-89.1443 752.971> 561.623 0 761.623 0 0.207912 0.978148<32.2397 654.369> 867 722 898 640 0.606504 0.795081<0 1012.17>
LayerCount: 2
Fore
SplineSet
902 1901 m 2,0,1
 1052 1901 l 2,2,3
 1083 1901 1083 1901 1088 1871 c 2,4,-1
 1130 1600 l 2,5,6
 1132 1589 1132 1589 1132 1586 c 0,7,8
 1132 1570 1132 1570 1106 1570 c 2,9,-1
 1065 1570 l 2,10,11
 1036 1570 1036 1570 1022 1596 c 2,12,-1
 878 1871 l 2,13,14
 874 1878 874 1878 874 1883 c 0,15,16
 874 1901 874 1901 902 1901 c 2,0,1
592 0 m 2,17,18
 567 0 567 0 567 20 c 0,19,20
 567 25 567 25 568 30 c 2,21,-1
 698 640 l 1,22,-1
 432 1420 l 2,23,24
 418 1460 418 1460 380 1460 c 2,25,-1
 335 1460 l 2,26,27
 323 1460 323 1460 323 1467 c 0,28,29
 323 1470 323 1470 324 1475 c 2,30,-1
 328 1495 l 2,31,32
 331 1510 331 1510 346 1510 c 2,33,-1
 505 1510 l 2,34,35
 596 1510 596 1510 622 1434 c 2,36,-1
 867 722 l 1,37,-1
 1406 1434 l 2,38,39
 1464 1510 1464 1510 1540 1510 c 2,40,-1
 1617 1510 l 2,41,42
 1630 1510 1630 1510 1630 1502 c 0,43,44
 1630 1500 1630 1500 1629 1495 c 2,45,-1
 1625 1475 l 2,46,47
 1622 1460 1622 1460 1606 1460 c 2,48,-1
 1561 1460 l 2,49,50
 1524 1460 1524 1460 1493 1420 c 2,51,-1
 898 640 l 1,52,-1
 768 30 l 2,53,54
 762 0 762 0 732 0 c 2,55,-1
 592 0 l 2,17,18
EndSplineSet
Validated: 1
EndChar

StartChar: ygrave
Encoding: 7923 7923 93
Width: 1288
Flags: W
HStem: -430 50<367.875 619.417> -20 100<467.057 680.084> 1050 50<278.669 396.594>
VStem: 174 87<-298.448 -79.9688> 257 179<111.812 391.025> 407 182<772.969 1046.61> 678 214<1383.66 1491>
DStem2: 108.457 -430 288.457 -430 0.207912 0.978148<704.299 1449.6> 817.055 -430 997.055 -430 0.207912 0.978148<337.507 977.304 1016.35 1573.48>
LayerCount: 2
Fore
SplineSet
706 1491 m 2,0,1
 856 1491 l 2,2,3
 887 1491 887 1491 892 1461 c 2,4,-1
 934 1190 l 2,5,6
 936 1179 936 1179 936 1176 c 0,7,8
 936 1160 936 1160 910 1160 c 2,9,-1
 869 1160 l 2,10,11
 840 1160 840 1160 826 1186 c 2,12,-1
 682 1461 l 2,13,14
 678 1468 678 1468 678 1473 c 0,15,16
 678 1491 678 1491 706 1491 c 2,0,1
506 -20 m 0,17,18
 363 -20 363 -20 300 64 c 0,19,20
 257 121 257 121 257 214 c 0,21,22
 257 269 257 269 270 330 c 2,23,-1
 404 960 l 2,24,25
 407 974 407 974 407 989 c 0,26,27
 407 1050 407 1050 333 1050 c 2,28,-1
 288 1050 l 2,29,30
 275 1050 275 1050 275 1058 c 0,31,32
 275 1061 275 1061 276 1065 c 2,33,-1
 281 1085 l 2,34,35
 285 1100 285 1100 299 1100 c 2,36,-1
 474 1100 l 2,37,38
 589 1100 589 1100 589 1005 c 0,39,40
 589 984 589 984 584 960 c 2,41,-1
 450 330 l 2,42,43
 436 264 436 264 436 219 c 0,44,45
 436 182 436 182 446 159 c 0,46,47
 479 80 479 80 580 80 c 0,48,49
 937 80 937 80 1135 1070 c 0,50,51
 1141 1100 1141 1100 1172 1100 c 2,52,-1
 1292 1100 l 2,53,54
 1316 1100 1316 1100 1316 1082 c 0,55,56
 1316 1075 1316 1075 1315 1070 c 2,57,-1
 1118 139 l 2,58,59
 1059 -140 1059 -140 880 -290 c 0,60,61
 712 -430 712 -430 520 -430 c 0,62,63
 314 -430 314 -430 195 -322 c 0,64,65
 174 -303 174 -303 174 -272 c 0,66,67
 174 -257 174 -257 176 -248 c 2,68,-1
 209 -92 l 2,69,70
 212 -78 212 -78 227 -78 c 2,71,-1
 250 -78 l 2,72,73
 262 -78 262 -78 262 -92 c 0,74,75
 262 -114 262 -114 261 -136 c 0,76,77
 261 -380 261 -380 489 -380 c 0,78,79
 646 -380 646 -380 762 -254 c 0,80,81
 882 -124 882 -124 938 139 c 2,82,-1
 1020 526 l 1,83,84
 843 -20 843 -20 506 -20 c 0,17,18
EndSplineSet
Validated: 1
EndChar

StartChar: uni1E40
Encoding: 7744 7744 94
Width: 1871
Flags: W
HStem: 0 50<55.05 179.617 1721.54 1826> 1460 50<529 631.145 1848.77 1971.86> 1630 245<1234.1 1401.9>
VStem: 1198 240<1667.13 1837.87> 1525 195<50.2197 251.584>
DStem2: 635 1420 668 1217 0.317938 0.948111<-1458.84 -181.975> 845 1434 668 1217 0.0878281 -0.996136<200.616 1332.15> 962 107 1020 30 0.472793 0.881174<0 1224.75> 1527 76 1720 90 0.0883747 0.996087<27.0172 1073.68>
LayerCount: 2
Fore
SplineSet
1318 1875 m 128,-1,1
 1368 1875 1368 1875 1403 1839 c 128,-1,2
 1438 1803 1438 1803 1438 1752.5 c 128,-1,3
 1438 1702 1438 1702 1403 1666 c 128,-1,4
 1368 1630 1368 1630 1318 1630 c 128,-1,5
 1268 1630 1268 1630 1233 1666 c 128,-1,6
 1198 1702 1198 1702 1198 1752.5 c 128,-1,7
 1198 1803 1198 1803 1233 1839 c 128,-1,0
 1268 1875 1268 1875 1318 1875 c 128,-1,1
142 0 m 2,8,-1
 65 0 l 2,9,10
 52 0 52 0 52 8 c 0,11,12
 52 10 52 10 53 15 c 2,13,-1
 57 35 l 2,14,15
 60 50 60 50 76 50 c 2,16,-1
 121 50 l 2,17,18
 176 50 176 50 189 90 c 2,19,-1
 635 1420 l 1,20,21
 631 1460 631 1460 583 1460 c 2,22,-1
 538 1460 l 2,23,24
 526 1460 526 1460 526 1468 c 0,25,26
 526 1470 526 1470 527 1475 c 2,27,-1
 531 1495 l 2,28,29
 534 1510 534 1510 549 1510 c 2,30,-1
 743 1510 l 2,31,32
 838 1510 838 1510 845 1434 c 2,33,-1
 962 107 l 1,34,-1
 1674 1434 l 2,35,36
 1715 1510 1715 1510 1808 1510 c 2,37,-1
 1962 1510 l 2,38,39
 1974 1510 1974 1510 1974 1500 c 0,40,41
 1974 1498 1974 1498 1974 1495 c 2,42,-1
 1970 1475 l 2,43,44
 1967 1460 1967 1460 1951 1460 c 2,45,-1
 1906 1460 l 2,46,47
 1860 1460 1860 1460 1838 1420 c 1,48,-1
 1720 90 l 2,49,50
 1720 88 1720 88 1720 86 c 0,51,52
 1720 50 1720 50 1772 50 c 2,53,-1
 1817 50 l 2,54,55
 1829 50 1829 50 1829 42 c 0,56,57
 1829 40 1829 40 1828 35 c 2,58,-1
 1824 15 l 2,59,60
 1821 0 1821 0 1806 0 c 2,61,-1
 1629 0 l 2,62,63
 1525 0 1525 0 1525 51 c 0,64,65
 1525 52 1525 52 1527 76 c 2,66,-1
 1616 1146 l 1,67,-1
 1020 30 l 2,68,69
 1004 0 1004 0 971 0 c 2,70,-1
 806 0 l 2,71,72
 772 0 772 0 769 30 c 2,73,-1
 668 1217 l 1,74,-1
 276 76 l 2,75,76
 250 0 250 0 142 0 c 2,8,-1
EndSplineSet
Validated: 1
EndChar

StartChar: p
Encoding: 112 112 95
Width: 1239
Flags: W
HStem: -410 21G<130.5 278> -20 55<568.105 769.104> 1050 50<278.669 396.594> 1065 55<779.177 972.848>
VStem: 407 182<844.617 1046.61> 1085 190<472.141 937.69>
DStem2: 112.623 -410 292.623 -410 0.207912 0.978148<28.1464 643.741 798.126 1360.8 1394.14 1429.17>
LayerCount: 2
Fore
SplineSet
882 1065 m 128,-1,1
 770 1065 770 1065 659 939 c 0,2,3
 581 851 581 851 530 708 c 1,4,-1
 463 391 l 1,5,6
 461 360 461 360 461 331 c 0,7,8
 461 225 461 225 494 153 c 0,9,10
 547 35 547 35 663.5 35 c 128,-1,11
 780 35 780 35 884 153 c 0,12,13
 1004 291 1004 291 1059 550 c 0,14,15
 1085 671 1085 671 1085 764 c 0,16,17
 1085 868 1085 868 1053 939 c 0,18,0
 994 1065 994 1065 882 1065 c 128,-1,1
682 -20 m 0,19,20
 582 -20 582 -20 522 20 c 0,21,22
 466 58 466 58 438 124 c 0,23,24
 426 152 426 152 419 183 c 1,25,-1
 299 -380 l 2,26,27
 293 -410 293 -410 263 -410 c 2,28,-1
 143 -410 l 2,29,30
 118 -410 118 -410 118 -390 c 0,31,32
 118 -386 118 -386 119 -380 c 2,33,-1
 404 960 l 2,34,35
 407 974 407 974 407 989 c 0,36,37
 407 1050 407 1050 333 1050 c 2,38,-1
 288 1050 l 2,39,40
 275 1050 275 1050 275 1059 c 0,41,42
 275 1061 275 1061 276 1065 c 2,43,-1
 281 1085 l 2,44,45
 285 1100 285 1100 299 1100 c 2,46,-1
 474 1100 l 2,47,48
 589 1100 589 1100 589 1005 c 0,49,50
 589 984 589 984 584 960 c 2,51,-1
 575 917 l 1,52,53
 596 948 596 948 619 976 c 0,54,55
 675 1042 675 1042 748 1080 c 0,56,57
 825 1120 825 1120 924 1120 c 0,58,59
 1128 1120 1128 1120 1209 980 c 0,60,61
 1275 867 1275 867 1275 719 c 0,62,63
 1275 639 1275 639 1256 550 c 0,64,65
 1202 295 1202 295 1027 120 c 0,66,67
 886 -20 886 -20 682 -20 c 0,19,20
EndSplineSet
Validated: 1
EndChar

StartChar: b
Encoding: 98 98 96
Width: 1239
Flags: W
HStem: -20 55<571.439 763.388> 0 21G<217.5 365> 1065 55<775.254 978.284> 1460 50<366 484.453>
VStem: 495 181<1183.77 1456.61> 1085 190<472.502 936.916>
DStem2: 195.372 -20 375.372 -20 0.207912 0.978148<48.5932 245.059 404.274 967.786 995.453 1449.79>
LayerCount: 2
Fore
SplineSet
663 35 m 128,-1,1
 775 35 775 35 887 161 c 0,2,3
 1004 294 1004 294 1059 550 c 0,4,5
 1085 672 1085 672 1085 767 c 0,6,7
 1085 874 1085 874 1052 947 c 0,8,9
 999 1065 999 1065 882 1065 c 128,-1,10
 765 1065 765 1065 662 947 c 0,11,12
 581 855 581 855 531 709 c 1,13,-1
 463 392 l 1,14,15
 461 363 461 363 461 336 c 0,16,17
 461 231 461 231 493 161 c 0,18,0
 551 35 551 35 663 35 c 128,-1,1
230 0 m 2,19,20
 205 0 205 0 205 20 c 0,21,22
 205 25.298245614 205 25.298245614 206 30 c 2,23,-1
 491 1370 l 2,24,25
 494 1383 494 1383 495 1399 c 0,26,27
 495 1460 495 1460 420 1460 c 2,28,-1
 375 1460 l 2,29,30
 363 1460 363 1460 363 1469 c 0,31,32
 363 1470 363 1470 364 1475 c 2,33,-1
 368 1495 l 2,34,35
 371 1510 371 1510 386 1510 c 2,36,-1
 561 1510 l 2,37,38
 676 1510 676 1510 676 1415 c 0,39,40
 676 1393.59375 676 1393.59375 671 1370 c 2,41,-1
 575 917 l 1,42,43
 596 948 596 948 619 976 c 0,44,45
 675 1042 675 1042 748 1080 c 0,46,47
 825 1120 825 1120 924 1120 c 0,48,49
 1128 1120 1128 1120 1209 980 c 0,50,51
 1275 866 1275 866 1275 719 c 0,52,53
 1275 640 1275 640 1256 550 c 0,54,55
 1202 294 1202 294 1027 120 c 0,56,57
 886 -20 886 -20 682 -20 c 0,58,59
 582 -20 582 -20 522 20 c 0,60,61
 466 58 466 58 438 124 c 0,62,63
 426 152 426 152 419 183 c 1,64,-1
 386 30 l 2,65,66
 380 0 380 0 350 0 c 2,67,-1
 230 0 l 2,19,20
EndSplineSet
Validated: 1
EndChar

StartChar: q
Encoding: 113 113 97
Width: 1239
Flags: W
HStem: -410 50<988.406 1106.95> -20 55<494.646 697.569> 1065 55<706.235 899.996> 1080 20G<1107.5 1255>
VStem: 198 190<163.084 627.498> 796 182<-356.606 -94.2344>
DStem2: 772.242 -410 952.242 -410 0.207912 0.978148<151.789 606.188 633.856 1197.36 1356.58 1553.05>
LayerCount: 2
Fore
SplineSet
809 1065 m 128,-1,1
 697 1065 697 1065 586 939 c 0,2,3
 469 806 469 806 414 550 c 0,4,5
 388 428 388 428 388 333 c 0,6,7
 388 226 388 226 421 153 c 0,8,9
 474 35 474 35 590.5 35 c 128,-1,10
 707 35 707 35 811 153 c 0,11,12
 892 245 892 245 942 391 c 1,13,-1
 1009 708 l 1,14,15
 1011 737 1011 737 1012 764 c 0,16,17
 1012 869 1012 869 980 939 c 0,18,0
 921 1065 921 1065 809 1065 c 128,-1,1
549 -20 m 0,19,20
 345 -20 345 -20 264 120 c 0,21,22
 198 234 198 234 198 381 c 0,23,24
 198 460 198 460 217 550 c 0,25,26
 271 806 271 806 446 980 c 0,27,28
 587 1120 587 1120 791 1120 c 0,29,30
 891 1120 891 1120 951 1080 c 0,31,32
 1005 1043 1005 1043 1034 976 c 0,33,34
 1046 948 1046 948 1054 917 c 1,35,-1
 1086 1070 l 2,36,37
 1092 1100 1092 1100 1123 1100 c 2,38,-1
 1243 1100 l 2,39,40
 1267 1100 1267 1100 1267 1080 c 0,41,42
 1267 1074.71830986 1267 1074.71830986 1266 1070 c 2,43,-1
 982 -270 l 2,44,45
 979 -285 979 -285 978 -299 c 0,46,47
 978 -360 978 -360 1052 -360 c 2,48,-1
 1097 -360 l 2,49,50
 1110 -360 1110 -360 1110 -368 c 0,51,52
 1110 -370 1110 -370 1109 -375 c 2,53,-1
 1105 -395 l 2,54,55
 1102 -410 1102 -410 1087 -410 c 2,56,-1
 912 -410 l 2,57,58
 797 -410 797 -410 796 -315 c 0,59,60
 796 -298.3125 796 -298.3125 802 -270 c 2,61,-1
 898 183 l 1,62,63
 877 152 877 152 853 124 c 0,64,65
 797 58 797 58 725 20 c 0,66,67
 649 -20 649 -20 549 -20 c 0,19,20
EndSplineSet
Validated: 1
EndChar

StartChar: g
Encoding: 103 103 98
Width: 1239
Flags: W
HStem: -430 50<318.875 570.417> -20 55<496.217 697.569> 1065 55<708.798 899.996> 1080 20G<1107.5 1255>
VStem: 125 87<-298.448 -79.9688> 196 192<161.283 626.346>
DStem2: 768.055 -430 948.055 -430 0.207912 0.978148<337.484 626.621 654.289 1217.79 1377.02 1573.48>
LayerCount: 2
Fore
SplineSet
809 1065 m 128,-1,1
 697 1065 697 1065 586 939 c 0,2,3
 469 806 469 806 414 550 c 0,4,5
 388 428 388 428 388 333 c 0,6,7
 388 226 388 226 421 153 c 0,8,9
 474 35 474 35 590.5 35 c 128,-1,10
 707 35 707 35 811 153 c 0,11,12
 892 245 892 245 942 391 c 1,13,-1
 1009 708 l 1,14,15
 1011 737 1011 737 1012 764 c 0,16,17
 1012 869 1012 869 980 939 c 0,18,0
 921 1065 921 1065 809 1065 c 128,-1,1
549 -20 m 0,19,20
 358 -20 358 -20 264 120 c 0,21,22
 197 220 197 220 196 369 c 0,23,24
 196 452 196 452 217 550 c 0,25,26
 276 828 276 828 446 980 c 0,27,28
 602 1120 602 1120 791 1120 c 0,29,30
 891 1120 891 1120 951 1080 c 0,31,32
 1005 1043 1005 1043 1034 976 c 0,33,34
 1046 948 1046 948 1054 917 c 1,35,-1
 1086 1070 l 2,36,37
 1092 1100 1092 1100 1123 1100 c 2,38,-1
 1243 1100 l 2,39,40
 1267 1100 1267 1100 1267 1081 c 0,41,42
 1267 1075 1267 1075 1266 1070 c 2,43,-1
 1069 139 l 2,44,45
 1009.95560872 -140.037199396 1009.95560872 -140.037199396 831 -290 c 0,46,47
 663 -430 663 -430 471 -430 c 0,48,49
 265 -430 265 -430 146 -322 c 0,50,51
 125 -303 125 -303 125 -272 c 0,52,53
 125 -257.454545455 125 -257.454545455 127 -248 c 2,54,-1
 160 -92 l 2,55,56
 163 -78 163 -78 178 -78 c 2,57,-1
 201 -78 l 2,58,59
 213 -78 213 -78 213 -92 c 0,60,61
 213 -113 213 -113 212 -136 c 0,62,63
 212 -380 212 -380 440 -380 c 0,64,65
 597 -380 597 -380 713 -254 c 0,66,67
 835.766548043 -121.252431791 835.766548043 -121.252431791 889 139 c 2,68,-1
 898 183 l 1,69,70
 877 152 877 152 853 124 c 0,71,72
 797 58 797 58 725 20 c 0,73,74
 649 -20 649 -20 549 -20 c 0,19,20
EndSplineSet
Validated: 1
EndChar

StartChar: f
Encoding: 102 102 99
Width: 875
Flags: W
HStem: -410 50<-103.95 7.11377> 740 60<213.589 357 550 833.417> 1480 50<813.746 1011.05>
VStem: 1067 88<1232.03 1444.4> 1067 53<1232.32 1313.77>
DStem2: 112.56 -410 292.977 -410 0.207912 0.978148<231.306 1175.69 1274.51 1803.07>
LayerCount: 2
Fore
SplineSet
-84 -360 m 16,0,1
 1 -360 1 -360 75 -286 c 0,2,3
 156.837563452 -204.162436548 156.837563452 -204.162436548 198 -10 c 2,4,-1
 357 740 l 1,5,-1
 222 740 l 2,6,7
 210 740 210 740 210 750 c 0,8,9
 210 753 210 753 210 755 c 2,10,-1
 217 785 l 2,11,12
 220 800 220 800 235 800 c 2,13,-1
 370 800 l 1,14,-1
 440 1130 l 2,15,16
 482 1329 482 1329 614 1431 c 0,17,18
 743 1530 743 1530 902 1530 c 0,19,20
 1052 1530 1052 1530 1140 1454 c 0,21,22
 1155 1441 1155 1441 1155 1419 c 0,23,24
 1155 1411.45454545 1155 1411.45454545 1153 1402 c 2,25,-1
 1120 1246 l 2,26,27
 1117 1231 1117 1231 1106 1231 c 2,28,-1
 1079 1231 l 2,29,30
 1067 1231 1067 1231 1067 1244 c 0,31,32
 1067 1245 1067 1245 1067 1246 c 0,33,34
 1069 1271 1069 1271 1069 1294 c 0,35,36
 1069 1480 1069 1480 931 1480 c 0,37,38
 817 1480 817 1480 743 1406 c 0,39,40
 661.192307692 1324.19230769 661.192307692 1324.19230769 620 1130 c 2,41,-1
 550 800 l 1,42,-1
 825 800 l 2,43,44
 838 800 838 800 838 790 c 0,45,46
 838 789.285714286 838 789.285714286 837 785 c 2,47,-1
 830 755 l 2,48,49
 826 740 826 740 812 740 c 2,50,-1
 537 740 l 1,51,-1
 378 -10 l 2,52,53
 338 -200 338 -200 194 -311 c 0,54,55
 65 -410 65 -410 -94 -410 c 0,56,57
 -107 -410 -107 -410 -107 -402 c 0,58,59
 -107 -400 -107 -400 -106 -395 c 2,60,-1
 -102 -375 l 2,61,62
 -99 -360 -99 -360 -84 -360 c 16,0,1
EndSplineSet
Validated: 1
EndChar

StartChar: a
Encoding: 97 97 100
Width: 1239
Flags: W
HStem: -20 55<494.646 697.569> 0 50<1075.41 1193.95> 1065 55<706.235 899.996> 1080 20G<1107.5 1255>
VStem: 198 190<163.084 627.498> 883 182<53.3942 255.617>
DStem2: 854.991 -20 1034.99 -20 0.207912 0.978148<172.109 207.506 235.174 798.679 957.901 1154.37>
LayerCount: 2
Fore
SplineSet
809 1065 m 128,-1,1
 697 1065 697 1065 586 939 c 0,2,3
 469 806 469 806 414 550 c 0,4,5
 388 428 388 428 388 333 c 0,6,7
 388 226 388 226 421 153 c 0,8,9
 474 35 474 35 590.5 35 c 128,-1,10
 707 35 707 35 811 153 c 0,11,12
 892 245 892 245 942 391 c 1,13,-1
 1009 708 l 1,14,15
 1011 737 1011 737 1012 764 c 0,16,17
 1012 869 1012 869 980 939 c 0,18,0
 921 1065 921 1065 809 1065 c 128,-1,1
999 0 m 2,19,20
 884 0 884 0 883 95 c 0,21,22
 883 111.333333333 883 111.333333333 889 140 c 2,23,-1
 898 183 l 1,24,25
 877 152 877 152 853 124 c 0,26,27
 797 58 797 58 725 20 c 0,28,29
 649 -20 649 -20 549 -20 c 0,30,31
 345 -20 345 -20 264 120 c 0,32,33
 198 234 198 234 198 381 c 0,34,35
 198 460 198 460 217 550 c 0,36,37
 271 806 271 806 446 980 c 0,38,39
 587 1120 587 1120 791 1120 c 0,40,41
 891 1120 891 1120 951 1080 c 0,42,43
 1005 1043 1005 1043 1034 976 c 0,44,45
 1046 948 1046 948 1054 917 c 1,46,-1
 1086 1070 l 2,47,48
 1092 1100 1092 1100 1123 1100 c 2,49,-1
 1243 1100 l 2,50,51
 1267 1100 1267 1100 1267 1080 c 0,52,53
 1267 1074.72081218 1267 1074.72081218 1266 1070 c 2,54,-1
 1069 140 l 2,55,56
 1065 121 1065 121 1065 111 c 0,57,58
 1065 50 1065 50 1139 50 c 2,59,-1
 1184 50 l 2,60,61
 1197 50 1197 50 1197 42 c 0,62,63
 1197 40 1197 40 1196 35 c 2,64,-1
 1192 15 l 2,65,66
 1189 0 1189 0 1174 0 c 2,67,-1
 999 0 l 2,19,20
EndSplineSet
Validated: 1
EndChar

StartChar: s
Encoding: 115 115 101
Width: 956
Flags: W
HStem: -20 50<316.62 534.677> 1070 50<609.245 780>
VStem: 111 90<121.125 330.524> 326 179<736.828 946.323> 730 184<232.22 466.936> 852 88<792.937 1015.79>
DStem2: 616 693 527 544 0.921071 -0.389396<-122.937 200.343>
LayerCount: 2
Fore
SplineSet
422 -20 m 0,0,1
 251 -20 251 -20 133 88 c 0,2,3
 111 107 111 107 111 139 c 0,4,5
 111 150 111 150 114 162 c 2,6,-1
 148 318 l 2,7,8
 151 333 151 333 166 333 c 2,9,-1
 189 333 l 2,10,11
 201 333 201 333 201 318 c 0,12,13
 201 30 201 30 427 30 c 0,14,15
 536 30 536 30 624 118 c 0,16,17
 704 199 704 199 724 298 c 0,18,19
 730 328 730 328 730 354 c 0,20,21
 730 462 730 462 626 504 c 2,22,-1
 527 544 l 2,23,24
 326 625 326 625 326 797 c 0,25,26
 326 820 326 820 330 845 c 0,27,28
 348 958 348 958 471 1050 c 0,29,30
 566 1120 566 1120 701 1120 c 0,31,32
 854 1120 854 1120 920 1036 c 16,33,34
 940 1010 940 1010 940 982 c 0,35,36
 940 972 940 972 938 962 c 2,37,-1
 905 806 l 2,38,39
 902 791 902 791 887 791 c 2,40,-1
 864 791 l 2,41,42
 852 791 852 791 852 806 c 0,43,44
 852 1070 852 1070 706 1070 c 0,45,46
 620 1070 620 1070 567 1011 c 0,47,48
 525 965 525 965 511 900 c 0,49,50
 505 872 505 872 505 848 c 0,51,52
 505 740 505 740 616 693 c 2,53,-1
 739 641 l 2,54,55
 914 567 914 567 914 404 c 0,56,57
 914 378 914 378 910 350 c 0,58,59
 888 203 888 203 748 92 c 0,60,61
 605 -20 605 -20 422 -20 c 0,0,1
EndSplineSet
Validated: 1
EndChar

StartChar: x
Encoding: 120 120 102
Width: 1052
Flags: W
HStem: 0 50<57.05 169.543 912.83 1006.33> 1050 50<279 372.17 1115.5 1227.95>
VStem: 375 173<775.336 1048.58> 737 173<51.416 333.028>
LayerCount: 2
Fore
SplineSet
119 0 m 2,0,1
 67 0 l 2,2,3
 54 0 54 0 54 8 c 0,4,5
 54 10 54 10 55 15 c 2,6,-1
 59 35 l 2,7,8
 62 50 62 50 78 50 c 2,9,-1
 113 50 l 2,10,11
 157 50 157 50 181 90 c 0,12,13
 322 324 322 324 561 522 c 1,14,15
 382 723 382 723 375 1010 c 0,16,17
 374 1050 374 1050 323 1050 c 2,18,-1
 288 1050 l 2,19,20
 276 1050 276 1050 276 1059 c 0,21,22
 276 1060 276 1060 277 1065 c 2,23,-1
 281 1085 l 2,24,25
 284 1100 284 1100 299 1100 c 2,26,-1
 446 1100 l 2,27,28
 548 1100 548 1100 548 996 c 0,29,30
 548 784 548 784 681 629 c 1,31,32
 904 813 904 813 1032 1024 c 0,33,34
 1078 1100 1078 1100 1166 1100 c 2,35,-1
 1218 1100 l 2,36,37
 1231 1100 1231 1100 1231 1091 c 0,38,39
 1231 1090 1231 1090 1230 1085 c 2,40,-1
 1226 1065 l 2,41,42
 1223 1050 1223 1050 1208 1050 c 2,43,-1
 1173 1050 l 2,44,45
 1128 1050 1128 1050 1104 1010 c 0,46,47
 967 782 967 782 725 581 c 1,48,49
 903 381 903 381 910 90 c 8,50,51
 911 50 911 50 962 50 c 2,52,-1
 997 50 l 2,53,54
 1010 50 1010 50 1010 41 c 0,55,56
 1010 39 1010 39 1009 35 c 2,57,-1
 1004 15 l 2,58,59
 1000 0 1000 0 986 0 c 2,60,-1
 839 0 l 2,61,62
 737 0 737 0 737 104 c 0,63,64
 737 320 737 320 605 474 c 1,65,66
 384 292 384 292 253 76 c 0,67,68
 207 0 207 0 119 0 c 2,0,1
EndSplineSet
Validated: 1
EndChar

StartChar: K
Encoding: 75 75 103
Width: 1271
Flags: W
HStem: 0 50<55.05 194.887 1125.91 1226> 1460 50<366 483.594 1409.12 1516.95>
VStem: 494 202<1190.14 1456.58>
DStem2: 200.242 0 400.242 0 0.207912 0.978148<59.7273 513.812 678.362 1428.1> 532 623 498 462 0.682671 0.730725<0 227.058 471.864 1252.25> 916 910 749 731 0.241422 -0.97042<133.388 892.567>
LayerCount: 2
Fore
SplineSet
260 0 m 2,0,1
 65 0 l 2,2,3
 52 0 52 0 52 7 c 0,4,5
 52 10 52 10 53 15 c 2,6,-1
 57 35 l 2,7,8
 60 50 60 50 76 50 c 2,9,-1
 121 50 l 2,10,11
 210.902439024 50 210.902439024 50 230 140 c 2,12,-1
 491 1370 l 2,13,14
 494 1384 494 1384 494 1398 c 0,15,16
 494 1460 494 1460 420 1460 c 2,17,-1
 375 1460 l 2,18,19
 363 1460 363 1460 363 1468 c 0,20,21
 363 1470 363 1470 364 1475 c 2,22,-1
 368 1495 l 2,23,24
 371 1510 371 1510 386 1510 c 2,25,-1
 581 1510 l 2,26,27
 696 1510 696 1510 696 1415 c 0,28,29
 696 1393.49056604 696 1393.49056604 691 1370 c 2,30,-1
 532 623 l 1,31,-1
 1289 1434 l 2,32,33
 1360 1510 1360 1510 1423 1510 c 2,34,-1
 1507 1510 l 2,35,36
 1520 1510 1520 1510 1520 1501 c 0,37,38
 1520 1500 1520 1500 1519 1495 c 2,39,-1
 1515 1475 l 2,40,41
 1512 1460 1512 1460 1496 1460 c 2,42,-1
 1461 1460 l 2,43,44
 1430.41176471 1460 1430.41176471 1460 1393 1420 c 2,45,-1
 916 910 l 1,46,-1
 1120 90 l 2,47,48
 1130 50 1130 50 1172 50 c 2,49,-1
 1217 50 l 2,50,51
 1229 50 1229 50 1229 41 c 0,52,53
 1229 40 1229 40 1228 35 c 2,54,-1
 1224 15 l 2,55,56
 1221 0 1221 0 1206 0 c 2,57,-1
 1012 0 l 2,58,59
 928.680916031 -5.55111512313e-17 928.680916031 -5.55111512313e-17 910 76 c 2,60,-1
 749 731 l 1,61,-1
 498 462 l 1,62,-1
 430 140 l 2,63,64
 400 0 400 0 260 0 c 2,0,1
EndSplineSet
Validated: 1
EndChar

StartChar: D
Encoding: 68 68 104
Width: 1447
Flags: W
HStem: 0 61<56.125 209.844 413 852.213> 1449 61<364.98 492.363 708 1133.82>
VStem: 1313 216<686.671 1195.55>
DStem2: 200.242 0 400.034 0 0.207912 0.978148<104.028 1429.25>
LayerCount: 2
Fore
SplineSet
413 61 m 1,0,-1
 703 61 l 2,1,2
 902 61 902 61 1060 258 c 0,3,4
 1223.67590338 462.845915882 1223.67590338 462.845915882 1286 756 c 0,5,6
 1313 883 1313 883 1313 1000 c 0,7,8
 1313 1140 1313 1140 1271 1252 c 0,9,10
 1197 1449 1197 1449 998 1449 c 2,11,-1
 708 1449 l 1,12,-1
 413 61 l 1,0,-1
65 0 m 2,13,14
 52 0 52 0 52 8 c 0,15,16
 52 10 52 10 53 15 c 2,17,-1
 57 35 l 2,18,19
 60 50 60 50 76 50 c 2,20,-1
 121 50 l 2,21,22
 210.902439024 50 210.902439024 50 230 140 c 2,23,-1
 491 1370 l 2,24,25
 494 1384 494 1384 495 1399 c 0,26,27
 495 1460 495 1460 420 1460 c 2,28,-1
 375 1460 l 2,29,30
 363 1460 363 1460 363 1468 c 0,31,32
 363 1470 363 1470 364 1475 c 2,33,-1
 368 1495 l 2,34,35
 371 1510 371 1510 386 1510 c 2,36,-1
 1011 1510 l 2,37,38
 1310 1510 1310 1510 1442 1284 c 0,39,40
 1529 1134 1529 1134 1529 949 c 0,41,42
 1529 857 1529 857 1507 755 c 0,43,44
 1442 450 1442 450 1217 226 c 0,45,46
 989 0 989 0 690 0 c 2,47,-1
 65 0 l 2,13,14
EndSplineSet
Validated: 1
EndChar

StartChar: C
Encoding: 67 67 105
Width: 1359
Flags: W
HStem: -20 61<629.721 950.697> 1099 21G<1399 1435.5> 1469 61<923.586 1238.56>
VStem: 237 215<291.408 813.635> 1393 102<1134.34 1350.25> 1393 53<1101.29 1181.63>
LayerCount: 2
Fore
SplineSet
753 -20 m 0,0,1
 453 -20 453 -20 322 206 c 0,2,3
 237 352 237 352 237 542 c 0,4,5
 237 642 237 642 260 755 c 0,6,7
 328 1077 328 1077 555 1304 c 0,8,9
 781 1530 781 1530 1082 1530 c 0,10,11
 1336 1530 1336 1530 1474 1405 c 0,12,13
 1495 1386 1495 1386 1495 1355 c 0,14,15
 1495 1345 1495 1345 1492 1331 c 2,16,-1
 1446 1114 l 2,17,18
 1443 1099 1443 1099 1428 1099 c 2,19,-1
 1405 1099 l 2,20,21
 1393 1099 1393 1099 1393 1112 c 0,22,23
 1393 1113 1393 1113 1393 1114 c 0,24,25
 1395 1141 1395 1141 1395 1165 c 0,26,27
 1395 1469 1395 1469 1069 1469 c 0,28,29
 870 1469 870 1469 712 1272 c 0,30,31
 549 1068 549 1068 482 755 c 0,32,33
 452 614 452 614 452 488 c 0,34,35
 452 348 452 348 493 238 c 0,36,37
 567 41 567 41 766 41 c 0,38,39
 1122 41 1122 41 1240 396 c 0,40,41
 1245 411 1245 411 1258 411 c 2,42,-1
 1281 411 l 2,43,44
 1294 411 1294 411 1294 402 c 0,45,46
 1294 401 1294 401 1293 396 c 2,47,-1
 1247 179 l 2,48,49
 1237 131 1237 131 1197 105 c 0,50,51
 1003 -20 1003 -20 753 -20 c 0,0,1
EndSplineSet
Validated: 1
EndChar

StartChar: G
Encoding: 71 71 106
Width: 1462
Flags: W
HStem: -20 61<629.721 962.305> 745 50<1096 1214.45> 1099 21G<1399 1435.5> 1469 61<923.586 1238.78>
VStem: 237 215<291.408 813.55> 1225 201<469.859 741.606> 1393 102<1134.34 1350.25> 1393 53<1101.29 1181.63>
DStem2: 1077.43 -20 1278.1 -20 0.207912 0.978148<220.468 718.833>
LayerCount: 2
Fore
SplineSet
753 -20 m 0,0,1
 453 -20 453 -20 322 206 c 0,2,3
 237 352 237 352 237 542 c 0,4,5
 237 642 237 642 260 755 c 0,6,7
 328 1077 328 1077 555 1304 c 0,8,9
 781 1530 781 1530 1082 1530 c 0,10,11
 1337 1530 1337 1530 1474 1405 c 0,12,13
 1495 1386 1495 1386 1495 1355 c 0,14,15
 1495 1345 1495 1345 1492 1331 c 2,16,-1
 1446 1114 l 2,17,18
 1443 1099 1443 1099 1428 1099 c 2,19,-1
 1405 1099 l 2,20,21
 1393 1099 1393 1099 1393 1112 c 0,22,23
 1393 1113 1393 1113 1393 1114 c 0,24,25
 1395 1141 1395 1141 1395 1165 c 0,26,27
 1395 1469 1395 1469 1069 1469 c 0,28,29
 870 1469 870 1469 712 1272 c 0,30,31
 548 1067 548 1067 482 755 c 0,32,33
 452 614 452 614 452 488 c 0,34,35
 452 348 452 348 493 238 c 0,36,37
 567 41 567 41 766 41 c 0,38,39
 935 41 935 41 1072 117 c 0,40,41
 1111 139 1111 139 1121 185 c 2,42,-1
 1221 655 l 2,43,44
 1224 669 1224 669 1225 684 c 0,45,46
 1225 745 1225 745 1150 745 c 2,47,-1
 1105 745 l 2,48,49
 1093 745 1093 745 1093 753 c 0,50,51
 1093 755 1093 755 1094 760 c 2,52,-1
 1098 780 l 2,53,54
 1101 795 1101 795 1116 795 c 2,55,-1
 1311 795 l 2,56,57
 1426 795 1426 795 1426 700 c 0,58,59
 1426 679 1426 679 1421 655 c 2,60,-1
 1334 243 l 2,61,62
 1325 200 1325 200 1284 169 c 0,63,64
 1035 -20 1035 -20 753 -20 c 0,0,1
EndSplineSet
Validated: 1
EndChar

StartChar: T
Encoding: 84 84 107
Width: 1278
Flags: W
HStem: 0 21G<556.5 724> 1430 80<458.514 843 1043 1409.5>
DStem2: 538.623 0 738.623 0 0.207912 0.978148<32.2397 1462.03>
LayerCount: 2
Fore
SplineSet
569 0 m 2,0,1
 544 0 544 0 544 20 c 0,2,3
 544 24 544 24 545 30 c 2,4,-1
 843 1430 l 1,5,-1
 621 1430 l 2,6,7
 449 1430 449 1430 333 1284 c 0,8,9
 325 1274 325 1274 318 1274 c 0,10,11
 315 1274 315 1274 311 1276 c 2,12,-1
 293 1287 l 2,13,14
 286 1291 286 1291 286 1297 c 0,15,16
 286 1302 286 1302 290 1306 c 2,17,-1
 402 1447 l 2,18,19
 452 1510 452 1510 522 1510 c 2,20,-1
 1398 1510 l 2,21,22
 1468 1510 1468 1510 1492 1447 c 2,23,-1
 1544 1306 l 2,24,25
 1545 1302 1545 1302 1545 1301 c 0,26,27
 1545 1293 1545 1293 1533 1287 c 2,28,-1
 1509 1276 l 2,29,30
 1505 1274 1505 1274 1502 1274 c 0,31,32
 1495 1274 1495 1274 1491 1284 c 0,33,34
 1434 1430 1434 1430 1265 1430 c 2,35,-1
 1043 1430 l 1,36,-1
 745 30 l 2,37,38
 739 0 739 0 709 0 c 2,39,-1
 569 0 l 2,0,1
EndSplineSet
Validated: 1
EndChar

StartChar: S
Encoding: 83 83 108
Width: 1160
Flags: W
HStem: -20 61<364.124 661.271> 1469 61<759.468 995.747>
VStem: 112 101<139 381> 422 183<1059.34 1283.03> 944 204<357.585 635.148> 1110 102<1160.34 1364.9>
DStem2: 767 964 619 815 0.888744 -0.458405<-177.107 290.2>
LayerCount: 2
Fore
SplineSet
502 -20 m 0,0,1
 254 -20 254 -20 133 89 c 0,2,3
 112 108 112 108 112 139 c 0,4,5
 112 149 112 149 115 163 c 2,6,-1
 161 380 l 2,7,8
 164 395 164 395 179 395 c 2,9,-1
 202 395 l 2,10,11
 213 395 213 395 213 381 c 0,12,13
 213 41 213 41 515 41 c 0,14,15
 663 41 663 41 779 149 c 0,16,17
 907 268 907 268 935 402 c 0,18,19
 944 446 944 446 944 486 c 0,20,21
 944 646 944 646 794 724 c 2,22,-1
 619 815 l 2,23,24
 422 917 422 917 422 1105 c 0,25,26
 422 1132 422 1132 426 1162 c 0,27,28
 449 1332 449 1332 627 1456 c 0,29,30
 735 1530 735 1530 890 1530 c 0,31,32
 1082 1530 1082 1530 1191 1431 c 0,33,34
 1212 1412 1212 1412 1212 1381 c 0,35,36
 1212 1371 1212 1371 1209 1357 c 2,37,-1
 1163 1140 l 2,38,39
 1160 1125 1160 1125 1145 1125 c 2,40,-1
 1122 1125 l 2,41,42
 1110 1125 1110 1125 1110 1140 c 0,43,44
 1110 1469 1110 1469 877 1469 c 0,45,46
 788 1469 788 1469 715 1408 c 0,47,48
 636 1341 636 1341 611 1231 c 0,49,50
 605 1204 605 1204 605 1180 c 0,51,52
 605 1048 605 1048 767 964 c 2,53,-1
 957 866 l 2,54,55
 1148 767 1148 767 1148 562 c 0,56,57
 1148 519 1148 519 1140 472 c 0,58,59
 1111 303 1111 303 947 149 c 0,60,61
 767 -20 767 -20 502 -20 c 0,0,1
EndSplineSet
Validated: 1
EndChar

StartChar: U
Encoding: 85 85 109
Width: 1450
Flags: W
HStem: -20 91<606.83 963.726> 1460 50<366 483.594 1576.13 1715.95>
VStem: 297 195<190.962 633.25> 494 202<1185.81 1456.58>
DStem2: 195.519 -20 395.519 -20 0.207912 0.978148<434.658 1448.64> 1155.52 -20 1245.52 -20 0.207912 0.978148<326.04 1532.91>
LayerCount: 2
Fore
SplineSet
718 -20 m 0,0,1
 497 -20 497 -20 390 114 c 0,2,3
 297 231 297 231 297 391 c 0,4,5
 297 457.441340782 297 457.441340782 312 528 c 2,6,-1
 491 1370 l 2,7,8
 494 1384 494 1384 494 1398 c 0,9,10
 494 1460 494 1460 420 1460 c 2,11,-1
 375 1460 l 2,12,13
 363 1460 363 1460 363 1469 c 0,14,15
 363 1470 363 1470 364 1475 c 2,16,-1
 368 1495 l 2,17,18
 371 1510 371 1510 386 1510 c 2,19,-1
 581 1510 l 2,20,21
 696 1510 696 1510 696 1415 c 0,22,23
 696 1393.51955307 696 1393.51955307 691 1370 c 2,24,-1
 512 528 l 2,25,26
 492 434 492 434 492 359 c 0,27,28
 492 246 492 246 538 180 c 0,29,30
 614 71 614 71 786 71 c 0,31,32
 931 71 931 71 1065 179 c 0,33,34
 1225.02146537 307.017172295 1225.02146537 307.017172295 1272 528 c 2,35,-1
 1451 1370 l 2,36,37
 1481 1510 1481 1510 1621 1510 c 2,38,-1
 1706 1510 l 2,39,40
 1719 1510 1719 1510 1719 1501 c 0,41,42
 1719 1500 1719 1500 1718 1495 c 2,43,-1
 1714 1475 l 2,44,45
 1711 1460 1711 1460 1695 1460 c 2,46,-1
 1650 1460 l 2,47,48
 1560.13301663 1460 1560.13301663 1460 1541 1370 c 2,49,-1
 1362 528 l 2,50,51
 1307 271 1307 271 1114 113 c 0,52,53
 952 -20 952 -20 718 -20 c 0,0,1
EndSplineSet
Validated: 1
EndChar

StartChar: J
Encoding: 74 74 110
Width: 1171
Flags: W
HStem: -20 61<266.87 549.124> 1430 80<550.514 1075> 1460 50<1297.13 1436.95>
VStem: 52 99<140.416 359.656>
DStem2: 766.519 -20 966.519 -20 0.207912 0.978148<352.467 1481.89>
LayerCount: 2
Fore
SplineSet
442 -20 m 0,0,1
 194 -20 194 -20 73 89 c 0,2,3
 52 108 52 108 52 139 c 0,4,5
 52 148.847826087 52 148.847826087 55 163 c 2,6,-1
 101 380 l 2,7,8
 104 395 104 395 119 395 c 2,9,-1
 142 395 l 2,10,11
 154 395 154 395 154 382 c 0,12,13
 154 381 154 381 154 380 c 0,14,15
 152 350 152 350 151 323 c 0,16,17
 151 41 151 41 406 41 c 0,18,19
 558 41 558 41 708 175 c 0,20,21
 831.07651803 284.06780866 831.07651803 284.06780866 883 528 c 2,22,-1
 1075 1430 l 1,23,-1
 713 1430 l 2,24,25
 541 1430 541 1430 425 1284 c 0,26,27
 417 1274 417 1274 410 1274 c 0,28,29
 406.272727273 1274 406.272727273 1274 403 1276 c 2,30,-1
 385 1287 l 2,31,32
 377 1292 377 1292 377 1297 c 0,33,34
 377 1299.70535714 377 1299.70535714 382 1306 c 2,35,-1
 494 1447 l 2,36,37
 544 1510 544 1510 614 1510 c 2,38,-1
 1427 1510 l 2,39,40
 1440 1510 1440 1510 1440 1502 c 0,41,42
 1440 1500 1440 1500 1439 1495 c 2,43,-1
 1435 1475 l 2,44,45
 1432 1460 1432 1460 1416 1460 c 2,46,-1
 1371 1460 l 2,47,48
 1281.13301663 1460 1281.13301663 1460 1262 1370 c 2,49,-1
 1083 528 l 2,50,51
 1030 278 1030 278 829 114 c 0,52,53
 666 -20 666 -20 442 -20 c 0,0,1
EndSplineSet
Validated: 1
EndChar

StartChar: M
Encoding: 77 77 111
Width: 1871
Flags: W
HStem: 0 50<55.05 179.617 1721.54 1826> 1460 50<529 631.145 1848.77 1971.86>
VStem: 1525 195<50.2197 251.584>
DStem2: 635 1420 668 1217 0.317938 0.948111<-1458.84 -181.975> 845 1434 668 1217 0.0878281 -0.996136<200.616 1332.15> 962 107 1020 30 0.472793 0.881174<0 1224.75> 1527 76 1720 90 0.0883747 0.996087<27.0172 1073.68>
LayerCount: 2
Fore
SplineSet
142 0 m 2,0,1
 65 0 l 2,2,3
 52 0 52 0 52 8 c 0,4,5
 52 10 52 10 53 15 c 2,6,-1
 57 35 l 2,7,8
 60 50 60 50 76 50 c 2,9,-1
 121 50 l 2,10,11
 176 50 176 50 189 90 c 2,12,-1
 635 1420 l 1,13,14
 631 1460 631 1460 583 1460 c 2,15,-1
 538 1460 l 2,16,17
 526 1460 526 1460 526 1468 c 0,18,19
 526 1470 526 1470 527 1475 c 2,20,-1
 531 1495 l 2,21,22
 534 1510 534 1510 549 1510 c 2,23,-1
 743 1510 l 2,24,25
 838 1510 838 1510 845 1434 c 2,26,-1
 962 107 l 1,27,-1
 1674 1434 l 2,28,29
 1715 1510 1715 1510 1808 1510 c 2,30,-1
 1962 1510 l 2,31,32
 1974 1510 1974 1510 1974 1500 c 0,33,34
 1974 1498 1974 1498 1974 1495 c 2,35,-1
 1970 1475 l 2,36,37
 1967 1460 1967 1460 1951 1460 c 2,38,-1
 1906 1460 l 2,39,40
 1860 1460 1860 1460 1838 1420 c 1,41,-1
 1720 90 l 2,42,43
 1720 88 1720 88 1720 86 c 0,44,45
 1720 50 1720 50 1772 50 c 2,46,-1
 1817 50 l 2,47,48
 1829 50 1829 50 1829 42 c 0,49,50
 1829 40 1829 40 1828 35 c 2,51,-1
 1824 15 l 2,52,53
 1821 0 1821 0 1806 0 c 2,54,-1
 1629 0 l 2,55,56
 1525 0 1525 0 1525 51 c 0,57,58
 1525 52 1525 52 1527 76 c 2,59,-1
 1616 1146 l 1,60,-1
 1020 30 l 2,61,62
 1004 0 1004 0 971 0 c 2,63,-1
 806 0 l 2,64,65
 772 0 772 0 769 30 c 2,66,-1
 668 1217 l 1,67,-1
 276 76 l 2,68,69
 250 0 250 0 142 0 c 2,0,1
EndSplineSet
Validated: 1
EndChar

StartChar: Y
Encoding: 89 89 112
Width: 1321
Flags: W
HStem: 0 21G<579.5 747> 1460 50<326 424.727 1507.61 1626.95>
DStem2: 622 1434 432 1420 0.322773 -0.946476<-89.1443 752.971> 561.623 0 761.623 0 0.207912 0.978148<32.2397 654.369> 867 722 898 640 0.606504 0.795081<0 1012.17>
LayerCount: 2
Fore
SplineSet
592 0 m 2,0,1
 567 0 567 0 567 20 c 0,2,3
 567 25 567 25 568 30 c 2,4,-1
 698 640 l 1,5,-1
 432 1420 l 2,6,7
 418 1460 418 1460 380 1460 c 2,8,-1
 335 1460 l 2,9,10
 323 1460 323 1460 323 1467 c 0,11,12
 323 1470 323 1470 324 1475 c 2,13,-1
 328 1495 l 2,14,15
 331 1510 331 1510 346 1510 c 2,16,-1
 505 1510 l 2,17,18
 596 1510 596 1510 622 1434 c 2,19,-1
 867 722 l 1,20,-1
 1406 1434 l 2,21,22
 1464 1510 1464 1510 1540 1510 c 2,23,-1
 1617 1510 l 2,24,25
 1630 1510 1630 1510 1630 1502 c 0,26,27
 1630 1500 1630 1500 1629 1495 c 2,28,-1
 1625 1475 l 2,29,30
 1622 1460 1622 1460 1606 1460 c 2,31,-1
 1561 1460 l 2,32,33
 1524 1460 1524 1460 1493 1420 c 2,34,-1
 898 640 l 1,35,-1
 768 30 l 2,36,37
 762 0 762 0 732 0 c 2,38,-1
 592 0 l 2,0,1
EndSplineSet
Validated: 1
EndChar

StartChar: X
Encoding: 88 88 113
Width: 1259
Flags: W
HStem: 0 50<55.05 169.286 1119.93 1214> 1460 50<366 455.068 1416.81 1524.95>
DStem2: 184 90 274 76 0.642537 0.766255<-84.3774 758.349 1031.34 1882.94> 660 1434 462 1420 0.319399 -0.94762<-91.2579 584.709 675.467 701.387 793.093 1462.6>
LayerCount: 2
Fore
SplineSet
160 0 m 2,0,-1
 65 0 l 2,1,2
 52 0 52 0 52 8 c 0,3,4
 52 10 52 10 53 15 c 2,5,-1
 57 35 l 2,6,7
 60 50 60 50 76 50 c 2,8,-1
 116 50 l 2,9,10
 150.472491909 50 150.472491909 50 184 90 c 2,11,-1
 702 708 l 1,12,-1
 462 1420 l 2,13,14
 449 1460 449 1460 410 1460 c 2,15,-1
 375 1460 l 2,16,17
 363 1460 363 1460 363 1468 c 0,18,19
 363 1470 363 1470 364 1475 c 2,20,-1
 368 1495 l 2,21,22
 371 1510 371 1510 386 1510 c 2,23,-1
 558 1510 l 2,24,25
 634.346570397 1510 634.346570397 1510 660 1434 c 2,26,-1
 847 880 l 1,27,-1
 1311 1434 l 2,28,29
 1375 1510 1375 1510 1445 1510 c 2,30,-1
 1515 1510 l 2,31,32
 1528 1510 1528 1510 1528 1501 c 0,33,34
 1528 1500 1528 1500 1527 1495 c 2,35,-1
 1523 1475 l 2,36,37
 1520 1460 1520 1460 1504 1460 c 2,38,-1
 1469 1460 l 2,39,40
 1434.54632588 1460 1434.54632588 1460 1401 1420 c 2,41,-1
 876 794 l 1,42,-1
 1113 90 l 2,43,44
 1126 50 1126 50 1165 50 c 2,45,-1
 1205 50 l 2,46,47
 1217 50 1217 50 1217 41 c 0,48,49
 1217 40 1217 40 1216 35 c 2,50,-1
 1212 15 l 2,51,52
 1209 0 1209 0 1194 0 c 2,53,-1
 997 0 l 2,54,55
 940.658715596 5.55111512313e-17 940.658715596 5.55111512313e-17 915 76 c 2,56,-1
 731 621 l 1,57,-1
 274 76 l 2,58,59
 210.271559633 0 210.271559633 0 160 0 c 2,0,-1
EndSplineSet
Validated: 1
EndChar

StartChar: Q
Encoding: 81 81 114
Width: 1514
Flags: W
HStem: -195 50<1183.57 1276.95> -20 61<629.721 904.929> 320 50<732.05 821.385> 1469 61<919.406 1205.28>
VStem: 237 215<291.408 813.805> 1383 215<696.606 1218.59>
DStem2: 1026 294 829 280 0.351895 -0.93604<-94.8815 123.128 234.446 467.798>
LayerCount: 2
Fore
SplineSet
753 -20 m 0,0,1
 453 -20 453 -20 322 206 c 0,2,3
 237 352 237 352 237 542 c 0,4,5
 237 642 237 642 260 755 c 0,6,7
 329 1080 329 1080 555 1304 c 0,8,9
 782 1530 782 1530 1082 1530 c 128,-1,10
 1382 1530 1382 1530 1513 1304 c 0,11,12
 1598 1158 1598 1158 1598 968 c 0,13,14
 1598 868 1598 868 1574 755 c 0,15,16
 1505 430 1505 430 1280 206 c 0,17,18
 1199 126 1199 126 1109 74 c 1,19,-1
 1176 -105 l 2,20,21
 1191 -145 1191 -145 1227 -145 c 2,22,-1
 1267 -145 l 2,23,24
 1280 -145 1280 -145 1280 -154 c 0,25,26
 1280 -155 1280 -155 1279 -160 c 2,27,-1
 1275 -180 l 2,28,29
 1272 -195 1272 -195 1257 -195 c 2,30,-1
 1060 -195 l 2,31,32
 1006.89256198 -195 1006.89256198 -195 978 -119 c 2,33,-1
 932 2 l 1,34,35
 846 -20 846 -20 753 -20 c 0,0,1
1070 179 m 1,36,37
 1097 206 1097 206 1123 238 c 0,38,39
 1287 443 1287 443 1353 756 c 0,40,41
 1382 893 1382 893 1383 1022 c 0,42,43
 1383 1162 1383 1162 1342 1272 c 0,44,45
 1268 1469 1268 1469 1069 1469 c 128,-1,46
 870 1469 870 1469 712 1272 c 0,47,48
 548 1067 548 1067 482 755 c 0,49,50
 452 614 452 614 452 488 c 0,51,52
 452 348 452 348 493 238 c 0,53,54
 567 41 567 41 766 41 c 0,55,56
 840 41 840 41 907 68 c 1,57,-1
 829 280 l 2,58,59
 814 320 814 320 777 320 c 2,60,-1
 742 320 l 2,61,62
 729 320 729 320 729 329 c 0,63,64
 729 330 729 330 730 335 c 2,65,-1
 734 355 l 2,66,67
 737 370 737 370 753 370 c 2,68,-1
 925 370 l 2,69,70
 996.92173913 370 996.92173913 370 1026 294 c 2,71,-1
 1070 179 l 1,36,37
EndSplineSet
Validated: 1
EndChar

StartChar: N
Encoding: 78 78 115
Width: 1399
Flags: W
HStem: 0 50<55.05 194.875> 1460 50<366 463.359 1525.14 1664.95>
DStem2: 200.242 0 290.242 0 0.207912 0.978148<49.992 1286.45> 677 1434 492 1375 0.413359 -0.910568<-98.6242 -22.7478 125.807 1206.73> 1110.16 0 1198.62 0 0.207912 0.978148<345.551 1509.49>
LayerCount: 2
Fore
SplineSet
150 0 m 2,0,-1
 65 0 l 2,1,2
 52 0 52 0 52 8 c 0,3,4
 52 10 52 10 53 15 c 2,5,-1
 57 35 l 2,6,7
 60 50 60 50 76 50 c 2,8,-1
 121 50 l 2,9,10
 210.906882591 50 210.906882591 50 230 140 c 2,11,-1
 492 1375 l 1,12,-1
 472 1420 l 2,13,14
 454 1460 454 1460 420 1460 c 2,15,-1
 375 1460 l 2,16,17
 363 1460 363 1460 363 1468 c 0,18,19
 363 1470 363 1470 364 1475 c 2,20,-1
 368 1495 l 2,21,22
 371 1510 371 1510 386 1510 c 2,23,-1
 560 1510 l 2,24,25
 641.981751825 1510 641.981751825 1510 677 1434 c 2,26,-1
 1182 338 l 1,27,-1
 1400 1370 l 2,28,29
 1430 1510 1430 1510 1570 1510 c 2,30,-1
 1655 1510 l 2,31,32
 1668 1510 1668 1510 1668 1503 c 0,33,34
 1668 1500 1668 1500 1667 1495 c 2,35,-1
 1663 1475 l 2,36,37
 1660 1460 1660 1460 1644 1460 c 2,38,-1
 1599 1460 l 2,39,40
 1509.14179104 1460 1509.14179104 1460 1490 1370 c 2,41,-1
 1205 30 l 2,42,43
 1199 0 1199 0 1169 0 c 2,44,-1
 1137 0 l 2,45,46
 1116.61157025 1.11022302463e-16 1116.61157025 1.11022302463e-16 1103 30 c 2,47,-1
 554 1240 l 1,48,-1
 320 140 l 2,49,50
 290 0 290 0 150 0 c 2,0,-1
EndSplineSet
Validated: 1
EndChar

StartChar: B
Encoding: 66 66 116
Width: 1270
Flags: W
HStem: 0 61<56.125 209.844 413 780.141> 806 60<584 920.051> 1449 61<364.98 492.363 708 1030.9>
VStem: 1066 214<358.22 703.827> 1127 206<1057.36 1378.36>
DStem2: 200.242 0 400.034 0 0.207912 0.978148<104.028 865.472 926.864 1429.28>
LayerCount: 2
Fore
SplineSet
708 1449 m 1,0,-1
 584 866 l 1,1,-1
 759 866 l 2,2,3
 921 866 921 866 1016 958 c 0,4,5
 1089 1028 1089 1028 1116 1158 c 0,6,7
 1127 1208 1127 1208 1127 1249 c 0,8,9
 1127 1314 1127 1314 1100 1357 c 0,10,11
 1044 1449 1044 1449 883 1449 c 2,12,-1
 708 1449 l 1,0,-1
413 61 m 1,13,-1
 588 61 l 2,14,15
 785 61 785 61 904 161 c 0,16,17
 1014 253 1014 253 1052 435 c 0,18,19
 1065 498 1065 498 1066 550 c 0,20,21
 1066 646 1066 646 1020 706 c 0,22,23
 943 806 943 806 746 806 c 2,24,-1
 571 806 l 1,25,-1
 413 61 l 1,13,-1
65 0 m 2,26,27
 52 0 52 0 52 8 c 0,28,29
 52 10 52 10 53 15 c 2,30,-1
 57 35 l 2,31,32
 60 50 60 50 76 50 c 2,33,-1
 121 50 l 2,34,35
 210.902439024 50 210.902439024 50 230 140 c 2,36,-1
 491 1370 l 2,37,38
 494 1385 494 1385 495 1399 c 0,39,40
 495 1460 495 1460 420 1460 c 2,41,-1
 375 1460 l 2,42,43
 363 1460 363 1460 363 1469 c 0,44,45
 363 1470 363 1470 364 1475 c 2,46,-1
 368 1495 l 2,47,48
 371 1510 371 1510 386 1510 c 2,49,-1
 986 1510 l 2,50,51
 1156 1510 1156 1510 1250 1422 c 0,52,53
 1333 1344 1333 1344 1333 1232 c 0,54,55
 1333 1197 1333 1197 1325 1158 c 0,56,57
 1283 959 1283 959 1059 855 c 1,58,59
 1132 833 1132 833 1185 785 c 0,60,61
 1280 699 1280 699 1280 563 c 0,62,63
 1280 516 1280 516 1268 463 c 0,64,65
 1226 264 1226 264 1071 137 c 0,66,67
 905 0 905 0 665 0 c 2,68,-1
 65 0 l 2,26,27
EndSplineSet
Validated: 1
EndChar

StartChar: P
Encoding: 80 80 117
Width: 1208
Flags: W
HStem: 0 21G<229 375> 548 61<529 814.405> 1449 61<364.98 492.363 708 977.992>
VStem: 1132 208<926.396 1325.32>
DStem2: 199.585 0 399.585 0 0.207912 0.978148<33.2952 601.811 664.181 1429.39>
LayerCount: 2
Fore
SplineSet
250 0 m 2,0,1
 208 0 208 0 208 32 c 0,2,3
 208 40 208 40 210 49 c 2,4,-1
 491 1370 l 2,5,6
 494.010020733 1384.15031099 494.010020733 1384.15031099 495 1399 c 0,7,8
 495 1460 495 1460 420 1460 c 2,9,-1
 375 1460 l 2,10,11
 363 1460 363 1460 363 1469 c 0,12,13
 363 1470 363 1470 364 1475 c 2,14,-1
 368 1495 l 2,15,16
 371 1510 371 1510 386 1510 c 2,17,-1
 944 1510 l 2,18,19
 1166 1510 1166 1510 1274 1361 c 0,20,21
 1340 1270 1340 1270 1340 1146 c 0,22,23
 1340 1091 1340 1091 1327 1029 c 0,24,25
 1284 829 1284 829 1133 697 c 0,26,27
 963 548 963 548 739 548 c 2,28,-1
 516 548 l 1,29,-1
 410 49 l 2,30,31
 400 0 400 0 350 0 c 2,32,-1
 250 0 l 2,0,1
708 1449 m 1,33,-1
 529 609 l 1,34,-1
 632 609 l 2,35,36
 853 609 853 609 987 755 c 0,37,38
 1081.4199881 860.587943684 1081.4199881 860.587943684 1117 1029 c 0,39,40
 1132 1099 1132 1099 1132 1163 c 0,41,42
 1132 1245 1132 1245 1104 1303 c 0,43,44
 1032 1449 1032 1449 811 1449 c 2,45,-1
 708 1449 l 1,33,-1
EndSplineSet
Validated: 1
EndChar

StartChar: R
Encoding: 82 82 118
Width: 1301
Flags: W
HStem: 0 50<1198.3 1296> 548 61<529 785.25> 1449 61<364.98 491.398 708 978.28>
VStem: 1132 209<930.623 1325.03>
DStem2: 199.585 0 399.585 0 0.207912 0.978148<32.3474 601.811 664.181 1428.24> 978 595 786 550 0.387077 -0.922047<-2.64354 579.445>
LayerCount: 2
Fore
SplineSet
708 1449 m 1,0,-1
 529 609 l 1,1,-1
 632 609 l 2,2,3
 853 609 853 609 987 755 c 0,4,5
 1082.06425234 861.308411215 1082.06425234 861.308411215 1117 1029 c 0,6,7
 1132 1100 1132 1100 1132 1163 c 0,8,9
 1132 1245 1132 1245 1104 1303 c 0,10,11
 1032 1449 1032 1449 811 1449 c 2,12,-1
 708 1449 l 1,0,-1
250 0 m 2,13,14
 208 0 208 0 208 31 c 0,15,16
 208 40 208 40 210 49 c 2,17,-1
 491 1370 l 2,18,19
 494 1384.10320285 494 1384.10320285 494 1398 c 0,20,21
 494 1460 494 1460 420 1460 c 2,22,-1
 375 1460 l 2,23,24
 363 1460 363 1460 363 1468 c 0,25,26
 363 1470 363 1470 364 1475 c 2,27,-1
 368 1495 l 2,28,29
 371 1510 371 1510 386 1510 c 2,30,-1
 944 1510 l 2,31,32
 1168 1510 1168 1510 1274 1361 c 0,33,34
 1340 1268 1340 1268 1341 1147 c 0,35,36
 1341 1091 1341 1091 1327 1029 c 0,37,38
 1284 838 1284 838 1133 697 c 0,39,40
 1068 636 1068 636 978 595 c 1,41,-1
 1190 90 l 2,42,43
 1207 50 1207 50 1242 50 c 2,44,-1
 1287 50 l 2,45,46
 1299 50 1299 50 1299 42 c 0,47,48
 1299 40 1299 40 1298 35 c 2,49,-1
 1294 15 l 2,50,51
 1291 0 1291 0 1276 0 c 2,52,-1
 1086 0 l 2,53,54
 1015.74683544 5.55111512313e-17 1015.74683544 5.55111512313e-17 984 76 c 2,55,-1
 786 550 l 1,56,57
 762 548 762 548 739 548 c 2,58,-1
 516 548 l 1,59,-1
 410 49 l 2,60,61
 400 0 400 0 350 0 c 2,62,-1
 250 0 l 2,13,14
EndSplineSet
Validated: 1
EndChar

StartChar: grave
Encoding: 96 96 119
Width: 421
Flags: W
HStem: 1199 331<510 586.969>
VStem: 371 214<1422.66 1530>
LayerCount: 2
Fore
SplineSet
399 1530 m 2,0,1
 549 1530 l 2,2,3
 580 1530 580 1530 585 1500 c 2,4,-1
 627 1229 l 2,5,6
 629 1218 629 1218 629 1215 c 0,7,8
 629 1199 629 1199 603 1199 c 2,9,-1
 562 1199 l 2,10,11
 533 1199 533 1199 519 1225 c 2,12,-1
 375 1500 l 2,13,14
 371 1507 371 1507 371 1512 c 0,15,16
 371 1530 371 1530 399 1530 c 2,0,1
EndSplineSet
Validated: 1
EndChar

StartChar: asciitilde
Encoding: 126 126 120
Width: 1128
Flags: W
HStem: 576 147<823.139 1019.36> 790 147<430.041 627.625>
LayerCount: 2
Fore
SplineSet
580 937 m 0,0,1
 700 937 700 937 788 810 c 0,2,3
 848 723 848 723 912 723 c 0,4,5
 1060 723 1060 723 1094 886 c 8,6,7
 1100 916 1100 916 1131 916 c 2,8,-1
 1143 916 l 2,9,10
 1167 916 1167 916 1167 896 c 0,11,12
 1167 892 1167 892 1166 886 c 0,13,14
 1100 576 1100 576 869 576 c 0,15,16
 746 576 746 576 661 703 c 0,17,18
 603 790 603 790 538 790 c 0,19,20
 390 790 390 790 355 627 c 8,21,22
 349 597 349 597 319 597 c 2,23,-1
 307 597 l 2,24,25
 282 597 282 597 282 617 c 0,26,27
 282 621 282 621 283 627 c 0,28,29
 349 937 349 937 580 937 c 0,0,1
EndSplineSet
Validated: 1
EndChar

StartChar: braceleft
Encoding: 123 123 121
Width: 765
Flags: W
HStem: -205 80<520.277 679.771> 715 80<210.516 386.556> 1630 80<872.301 1069.77>
VStem: 280 165<-63.6189 164.802> 388 174<439.938 712.768>
DStem2: 206.277 -205 385.958 -205 0.207912 0.978148<306.452 884.491 1048.13 1762.55>
LayerCount: 2
Fore
SplineSet
641 -205 m 0,0,1
 428 -205 428 -205 342 -99 c 0,2,3
 280 -23 280 -23 280 91 c 0,4,5
 280 143 280 143 293 203 c 2,6,-1
 385 635 l 2,7,8
 388 649 388 649 388 661 c 0,9,10
 388 715 388 715 322 715 c 2,11,-1
 232 715 l 2,12,13
 207 715 207 715 207 736 c 0,14,15
 207 740 207 740 208 745 c 2,16,-1
 213 765 l 2,17,18
 219 795 219 795 249 795 c 2,19,-1
 339 795 l 2,20,21
 419 795 419 795 436 875 c 2,22,-1
 527 1302 l 2,23,24
 568 1494 568 1494 704 1604 c 0,25,26
 836 1710 836 1710 1048 1710 c 0,27,28
 1073 1710 1073 1710 1073 1690 c 0,29,30
 1073 1686 1073 1686 1072 1681 c 2,31,-1
 1068 1659 l 2,32,33
 1062 1630 1062 1630 1031 1630 c 0,34,35
 926 1630 926 1630 838.5 1570 c 128,-1,36
 751 1510 751 1510 728 1404 c 2,37,-1
 624 915 l 2,38,39
 596 783 596 783 470 755 c 1,40,41
 562 733 562 733 562 643 c 0,42,43
 562 621 562 621 556 595 c 2,44,-1
 451 101 l 2,45,46
 445 73 445 73 445 48 c 0,47,48
 445 -21 445 -21 491 -65 c 0,49,50
 553 -125 553 -125 658 -125 c 0,51,52
 683 -125 683 -125 683 -145 c 0,53,54
 683 -149 683 -149 682 -154 c 2,55,-1
 678 -176 l 2,56,57
 671 -205 671 -205 641 -205 c 0,0,1
EndSplineSet
Validated: 1
EndChar

StartChar: bar
Encoding: 124 124 122
Width: 655
Flags: W
DStem2: 218.372 -150 373.372 -150 0.207912 0.978148<35.2654 1847.3>
LayerCount: 2
Fore
SplineSet
653 1660 m 2,0,-1
 708 1660 l 2,1,2
 749 1660 749 1660 749 1626 c 0,3,4
 749 1619 749 1619 747 1610 c 2,5,-1
 384 -100 l 2,6,7
 373 -150 373 -150 323 -150 c 2,8,-1
 268 -150 l 2,9,10
 227 -150 227 -150 227 -116 c 0,11,12
 227 -109 227 -109 229 -100 c 2,13,-1
 592 1610 l 2,14,15
 603 1660 603 1660 653 1660 c 2,0,-1
EndSplineSet
Validated: 1
EndChar

StartChar: bracketleft
Encoding: 91 91 123
Width: 765
Flags: W
HStem: -205 80<403 679.771> 1630 80<776 1069.77>
DStem2: 206.372 -205 385.995 -205 0.207912 0.978148<119.133 1913.33>
LayerCount: 2
Fore
SplineSet
256 -205 m 2,0,1
 215 -205 215 -205 215 -171 c 0,2,3
 215 -164 215 -164 217 -155 c 2,4,-1
 603 1660 l 2,5,6
 614 1710 614 1710 663 1710 c 2,7,-1
 1048 1710 l 2,8,9
 1073 1710 1073 1710 1073 1689 c 0,10,11
 1073 1685 1073 1685 1072 1680 c 2,12,-1
 1068 1660 l 2,13,14
 1062 1630 1062 1630 1031 1630 c 2,15,-1
 776 1630 l 1,16,-1
 403 -125 l 1,17,-1
 658 -125 l 2,18,19
 683 -125 683 -125 683 -146 c 0,20,21
 683 -150 683 -150 682 -155 c 2,22,-1
 678 -175 l 2,23,24
 672 -205 672 -205 641 -205 c 2,25,-1
 256 -205 l 2,0,1
EndSplineSet
Validated: 1
EndChar

StartChar: backslash
Encoding: 92 92 124
Width: 1147
Flags: W
DStem2: 1115.43 -45 965.068 -122 0.34252 -0.93951<-1793.34 27.349>
LayerCount: 2
Fore
SplineSet
470.268554688 1662 m 0,0,1
 493.10935348 1662 493.10935348 1662 503.317382812 1634 c 2,2,-1
 1115.43457031 -45 l 2,3,4
 1122 -63.0085720029 1122 -63.0085720029 1122 -72 c 0,5,6
 1122 -93 1122 -93 1103 -103 c 2,7,-1
 1029.02929688 -141 l 2,8,9
 1011.50991982 -150 1011.50991982 -150 999.116210938 -150 c 0,10,11
 975.276404994 -150 975.276404994 -150 965.068359375 -122 c 2,12,-1
 352.950195312 1557 l 2,13,14
 347 1573 347 1573 347 1584 c 0,15,16
 347 1603.73005167 347 1603.73005167 370 1616 c 2,17,-1
 439.356445312 1653 l 2,18,19
 456 1662 456 1662 470.268554688 1662 c 0,0,1
EndSplineSet
Validated: 1
EndChar

StartChar: asciicircum
Encoding: 94 94 125
Width: 887
Flags: W
HStem: 1042 488
DStem2: 871.622 1499 725.004 1402 0.504424 -0.863456<9.79747 419.788>
LayerCount: 2
Fore
SplineSet
752.211914062 1530 m 2,0,1
 813.211914062 1530 l 2,2,3
 854 1530 854 1530 871.622070312 1499 c 2,4,-1
 1072 1156 l 2,5,6
 1078.00018315 1145.72909429 1078.00018315 1145.72909429 1078.00878906 1133 c 0,7,8
 1077.9998432 1114.67886444 1077.9998432 1114.67886444 1065.00878906 1106 c 2,9,-1
 981.184570312 1050 l 2,10,11
 970.706542969 1043 970.706542969 1043 953.696289062 1043 c 0,12,13
 931.382511344 1043 931.382511344 1043 917.010742188 1068 c 2,14,15
 725.00390625 1402 l 1,16,-1
 351 1049 l 2,17,18
 344 1042 344 1042 330 1042 c 0,19,20
 319.847528872 1042 319.847528872 1042 309.822265625 1053 c 2,21,-1
 288.860351562 1076 l 2,22,23
 282 1084 282 1084 282 1093.08300781 c 128,-1,24
 282 1102.02899349 282 1102.02899349 289 1109 c 2,25,-1
 680.622070312 1499 l 2,26,27
 712 1530 712 1530 752.211914062 1530 c 2,0,1
EndSplineSet
Validated: 1
EndChar

StartChar: underscore
Encoding: 95 95 126
Width: 1233
Flags: W
HStem: -200 113<122.031 1049.97>
LayerCount: 2
Fore
SplineSet
172 -87 m 2,0,-1
 1025 -87 l 2,1,2
 1057 -87 1057 -87 1057 -114 c 0,3,4
 1057 -120 1057 -120 1056 -127 c 2,5,-1
 1049 -160 l 2,6,7
 1040 -200 1040 -200 1000 -200 c 2,8,-1
 147 -200 l 2,9,10
 115 -200 115 -200 115 -173 c 0,11,12
 115 -167 115 -167 116 -160 c 2,13,-1
 123 -127 l 2,14,15
 132 -87 132 -87 172 -87 c 2,0,-1
EndSplineSet
Validated: 1
EndChar

StartChar: bracketright
Encoding: 93 93 127
Width: 765
Flags: W
HStem: -205 80<15.0996 308> 1630 80<405.1 681>
DStem2: 290.995 -205 471.372 -205 0.207912 0.978148<81.7872 1875.99>
LayerCount: 2
Fore
SplineSet
421 -205 m 2,0,1
 36 -205 l 2,2,3
 12 -205 12 -205 12 -185 c 0,4,5
 12 -180 12 -180 13 -175 c 2,6,-1
 17 -155 l 2,7,8
 23 -125 23 -125 53 -125 c 2,9,-1
 308 -125 l 1,10,-1
 681 1630 l 1,11,-1
 426 1630 l 2,12,13
 402 1630 402 1630 402 1650 c 0,14,15
 402 1655 402 1655 403 1660 c 2,16,-1
 407 1680 l 2,17,18
 413 1710 413 1710 443 1710 c 2,19,-1
 828 1710 l 2,20,21
 870 1710 870 1710 870 1676 c 0,22,23
 870 1669 870 1669 868 1660 c 2,24,-1
 482 -155 l 2,25,26
 471 -205 471 -205 421 -205 c 2,0,1
EndSplineSet
Validated: 1
EndChar

StartChar: braceright
Encoding: 125 125 128
Width: 765
Flags: W
HStem: -205 80<15.2483 212.4> 715 80<699.444 875.484> 1630 80<405.096 569.203>
VStem: 524 174<797.232 1068.15> 639 166<1221.28 1569.46>
DStem2: 290.958 -205 471.277 -205 0.207912 0.978148<232.81 952.117 1115.96 1688.9>
LayerCount: 2
Fore
SplineSet
36 -205 m 0,0,1
 12 -205 12 -205 11.6756756757 -185.934989043 c 0,2,3
 12 -181 12 -181 13 -176 c 2,4,-1
 17 -154 l 2,5,6
 23 -125 23 -125 53 -125 c 0,7,8
 158 -125 158 -125 246 -65 c 128,-1,9
 334 -5 334 -5 356 101 c 2,10,-1
 461 595 l 2,11,12
 489 727 489 727 615 755 c 1,13,14
 524 777 524 777 524 867 c 0,15,16
 524 889 524 889 529 915 c 2,17,-1
 633 1404 l 2,18,19
 639 1432 639 1432 639 1457 c 0,20,21
 639 1526 639 1526 594 1570 c 0,22,23
 532 1630 532 1630 426 1630 c 0,24,25
 401.675675676 1630 401.675675676 1630 401.675675676 1649.06501096 c 0,26,27
 401.675675676 1653.51351351 401.675675676 1653.51351351 403 1659 c 2,28,-1
 407 1681 l 2,29,30
 413 1710 413 1710 443 1710 c 0,31,32
 656 1710 656 1710 743 1604 c 0,33,34
 805 1528 805 1528 805 1414 c 0,35,36
 805 1362 805 1362 792 1302 c 2,37,-1
 701 875 l 2,38,39
 698 861 698 861 698 849 c 0,40,41
 698 795 698 795 764 795 c 2,42,-1
 854 795 l 2,43,44
 879 795 879 795 879 774.166666667 c 0,45,46
 879 770 879 770 878 765 c 2,47,-1
 873 745 l 2,48,49
 867 715 867 715 837 715 c 2,50,-1
 747 715 l 2,51,52
 667 715 667 715 650 635 c 2,53,-1
 558 203 l 2,54,55
 517 11 517 11 381 -99 c 0,56,57
 249 -205 249 -205 36 -205 c 0,0,1
EndSplineSet
Validated: 1
EndChar

StartChar: parenleft
Encoding: 40 40 129
Width: 699
Flags: W
VStem: 330 166<121.169 754.965>
LayerCount: 2
Fore
SplineSet
540 -250 m 2,0,1
 520 -250 520 -250 509 -228 c 0,2,3
 330 119 330 119 330 467 c 0,4,5
 330 611 330 611 360 755 c 0,6,7
 467 1257 467 1257 926 1738 c 0,8,9
 947 1760 947 1760 967 1760 c 2,10,-1
 999 1760 l 2,11,12
 1020 1760 1020 1760 1020 1745 c 0,13,14
 1020 1736 1020 1736 1010 1726 c 0,15,16
 663 1332 663 1332 540 755 c 0,17,18
 496 547 496 547 496 351 c 0,19,20
 496 54 496 54 597 -216 c 0,21,22
 600 -224 600 -224 600 -234 c 0,23,24
 600 -250 600 -250 572 -250 c 2,25,-1
 540 -250 l 2,0,1
EndSplineSet
Validated: 1
EndChar

StartChar: asterisk
Encoding: 42 42 130
Width: 732
Flags: W
HStem: 1490 20G<641 729.5>
DStem2: 475.498 827 607.498 827 0.207912 0.978148<28.1836 252.518 473.149 697.722>
LayerCount: 2
Fore
SplineSet
661 1510 m 2,0,-1
 713 1510 l 2,1,2
 746 1510 746 1510 746 1483 c 0,3,4
 746 1477 746 1477 744 1470 c 2,5,-1
 700 1263 l 1,6,-1
 886 1376 l 2,7,8
 898 1383 898 1383 912 1384 c 0,9,10
 930 1384 930 1384 939 1362 c 2,11,-1
 955 1317 l 2,12,13
 958 1309 958 1309 958 1300 c 0,14,15
 958 1276 958 1276 928 1262 c 2,16,-1
 726 1168 l 1,17,-1
 888 1075 l 2,18,19
 905 1066 905 1066 905 1051 c 0,20,21
 905 1037 905 1037 892 1020 c 2,22,-1
 856 975 l 2,23,24
 839 953 839 953 821 953 c 0,25,26
 808 953 808 953 798 961 c 2,27,-1
 660 1074 l 1,28,-1
 616 867 l 2,29,30
 608 827 608 827 568 827 c 2,31,-1
 516 827 l 2,32,33
 483 827 483 827 483 854 c 0,34,35
 483 861 483 861 484 867 c 2,36,-1
 528 1074 l 1,37,-1
 342 961 l 2,38,39
 329 953 329 953 317 953 c 0,40,41
 299 953 299 953 290 975 c 2,42,-1
 274 1020 l 2,43,44
 270 1030 270 1030 270 1037 c 0,45,46
 270 1061 270 1061 300 1075 c 2,47,-1
 502 1168 l 1,48,-1
 340 1262 l 2,49,50
 324 1271 324 1271 324 1287 c 0,51,52
 324 1301 324 1301 337 1317 c 2,53,-1
 373 1362 l 2,54,55
 390 1384 390 1384 408 1384 c 0,56,57
 421 1384 421 1384 430 1376 c 2,58,-1
 568 1263 l 1,59,-1
 612 1470 l 2,60,61
 621 1510 621 1510 661 1510 c 2,0,-1
EndSplineSet
Validated: 1
EndChar

StartChar: plus
Encoding: 43 43 131
Width: 1133
Flags: W
HStem: 680 150<317.807 637 818 1136.19>
DStem2: 563.372 338 713.372 338 0.207912 0.978148<35.4733 349.835 534.189 848.55>
LayerCount: 2
Fore
SplineSet
791 1172 m 2,0,-1
 841 1172 l 2,1,2
 882 1172 882 1172 882 1138 c 0,3,4
 882 1131 882 1131 880 1122 c 2,5,-1
 818 830 l 1,6,-1
 1109 830 l 2,7,8
 1151 830 1151 830 1151 796 c 0,9,10
 1151 789 1151 789 1149 780 c 2,11,-1
 1138 730 l 2,12,13
 1127 680 1127 680 1078 680 c 2,14,-1
 787 680 l 1,15,-1
 724 388 l 2,16,17
 713 338 713 338 664 338 c 2,18,-1
 614 338 l 2,19,20
 573 338 573 338 573 372 c 0,21,22
 573 379 573 379 574 388 c 2,23,-1
 637 680 l 1,24,-1
 345 680 l 2,25,26
 303 680 303 680 303 714 c 0,27,28
 303 721 303 721 305 730 c 2,29,-1
 316 780 l 2,30,31
 327 830 327 830 376 830 c 2,32,-1
 668 830 l 1,33,-1
 730 1122 l 2,34,35
 741 1172 741 1172 791 1172 c 2,0,-1
EndSplineSet
Validated: 1
EndChar

StartChar: comma
Encoding: 44 44 132
Width: 336
Flags: W
HStem: -280 566
VStem: 152 145<-84.1277 147.93>
LayerCount: 2
Fore
SplineSet
217 286 m 0,0,1
 236 286 236 286 248 268 c 0,2,3
 297 198 297 198 297 96 c 0,4,5
 297 66 297 66 293 34 c 0,6,7
 271 -137 271 -137 72 -271 c 24,8,9
 59 -280 59 -280 47 -280 c 0,10,11
 39 -280 39 -280 34 -273 c 2,12,-1
 24 -260 l 2,13,14
 21 -256 21 -256 21 -249 c 128,-1,15
 21 -242 21 -242 28 -237 c 0,16,17
 121 -160 121 -160 145 -47 c 0,18,19
 152 -13 152 -13 152 17 c 0,20,21
 152 102 152 102 96 162 c 0,22,23
 88 171 88 171 88 182 c 0,24,25
 88 202 88 202 117 223 c 2,26,-1
 196 280 l 2,27,28
 204 286 204 286 217 286 c 0,0,1
EndSplineSet
Validated: 1
EndChar

StartChar: hyphen
Encoding: 45 45 133
Width: 1133
Flags: W
HStem: 680 150<317.807 1136.19>
LayerCount: 2
Fore
SplineSet
376 830 m 2,0,-1
 1109 830 l 2,1,2
 1151 830 1151 830 1151 796 c 0,3,4
 1151 789 1151 789 1149 780 c 2,5,-1
 1138 730 l 2,6,7
 1127 680 1127 680 1078 680 c 2,8,-1
 345 680 l 2,9,10
 303 680 303 680 303 714 c 0,11,12
 303 721 303 721 305 730 c 2,13,-1
 316 780 l 2,14,15
 326 830 326 830 376 830 c 2,0,-1
EndSplineSet
Validated: 1
EndChar

StartChar: period
Encoding: 46 46 134
Width: 340
Flags: W
HStem: -20 245<108.097 275.903>
VStem: 72 240<17.1285 187.871>
LayerCount: 2
Fore
SplineSet
192 -20 m 128,-1,1
 142 -20 142 -20 107 16 c 128,-1,2
 72 52 72 52 72 102.5 c 128,-1,3
 72 153 72 153 107 189 c 128,-1,4
 142 225 142 225 192 225 c 128,-1,5
 242 225 242 225 277 189 c 128,-1,6
 312 153 312 153 312 102.5 c 128,-1,7
 312 52 312 52 277 16 c 128,-1,0
 242 -20 242 -20 192 -20 c 128,-1,1
EndSplineSet
Validated: 1
EndChar

StartChar: slash
Encoding: 47 47 135
Width: 1141
Flags: W
DStem2: 9 -45 127 -122 0.619781 0.784775<-37.3073 2188.88>
LayerCount: 2
Fore
SplineSet
1380 1662 m 0,0,1
 1394 1662 1394 1662 1407 1653 c 2,2,-1
 1449 1625 l 2,3,4
 1470 1611 1470 1611 1470 1593 c 0,5,6
 1470 1579 1470 1579 1453 1557 c 2,7,-1
 127 -122 l 2,8,9
 105 -150 105 -150 81 -150 c 0,10,11
 68 -150 68 -150 55 -141 c 2,12,-1
 13 -113 l 2,13,14
 -7 -100 -7 -100 -7 -82 c 0,15,16
 -7 -66 -7 -66 9 -45 c 2,17,-1
 1335 1634 l 2,18,19
 1357 1662 1357 1662 1380 1662 c 0,0,1
EndSplineSet
Validated: 1
EndChar

StartChar: colon
Encoding: 58 58 136
Width: 340
Flags: W
HStem: -20 245<108.097 275.903> 632 245<246.097 413.903>
VStem: 72 240<17.1285 187.871> 210 240<669.129 839.871>
LayerCount: 2
Fore
SplineSet
330 877 m 128,-1,1
 380 877 380 877 415 841 c 128,-1,2
 450 805 450 805 450 754.5 c 128,-1,3
 450 704 450 704 415 668 c 128,-1,4
 380 632 380 632 330 632 c 128,-1,5
 280 632 280 632 245 668 c 128,-1,6
 210 704 210 704 210 754.5 c 128,-1,7
 210 805 210 805 245 841 c 128,-1,0
 280 877 280 877 330 877 c 128,-1,1
192 -20 m 128,-1,9
 142 -20 142 -20 107 16 c 128,-1,10
 72 52 72 52 72 102.5 c 128,-1,11
 72 153 72 153 107 189 c 128,-1,12
 142 225 142 225 192 225 c 128,-1,13
 242 225 242 225 277 189 c 128,-1,14
 312 153 312 153 312 102.5 c 128,-1,15
 312 52 312 52 277 16 c 128,-1,8
 242 -20 242 -20 192 -20 c 128,-1,9
EndSplineSet
Validated: 1
EndChar

StartChar: semicolon
Encoding: 59 59 137
Width: 389
Flags: W
HStem: 631.5 245<265.097 432.903>
VStem: 162 145<-84.1277 147.93> 229 240<668.629 839.371>
LayerCount: 2
Fore
SplineSet
227 286 m 0,0,1
 246 286 246 286 258 268 c 0,2,3
 307 198 307 198 307 96 c 0,4,5
 307 66 307 66 303 34 c 0,6,7
 281 -137 281 -137 82 -271 c 24,8,9
 69 -280 69 -280 57 -280 c 0,10,11
 49 -280 49 -280 44 -273 c 2,12,-1
 34 -260 l 2,13,14
 31 -256 31 -256 31 -249 c 128,-1,15
 31 -242 31 -242 38 -237 c 0,16,17
 131 -160 131 -160 155 -47 c 0,18,19
 162 -13 162 -13 162 17 c 0,20,21
 162 102 162 102 106 162 c 0,22,23
 98 171 98 171 98 182 c 0,24,25
 98 202 98 202 127 223 c 2,26,-1
 206 280 l 2,27,28
 214 286 214 286 227 286 c 0,0,1
349 876.5 m 128,-1,30
 399 876.5 399 876.5 434 840.5 c 128,-1,31
 469 804.5 469 804.5 469 754 c 128,-1,32
 469 703.5 469 703.5 434 667.5 c 128,-1,33
 399 631.5 399 631.5 349 631.5 c 128,-1,34
 299 631.5 299 631.5 264 667.5 c 128,-1,35
 229 703.5 229 703.5 229 754 c 128,-1,36
 229 804.5 229 804.5 264 840.5 c 128,-1,29
 299 876.5 299 876.5 349 876.5 c 128,-1,30
EndSplineSet
Validated: 1
EndChar

StartChar: less
Encoding: 60 60 138
Width: 1124
Flags: W
DStem2: 452 795 342 669 0.851441 -0.52445<0 632.844> 381 850 452 795 0.898341 0.439299<39.6208 834.736>
LayerCount: 2
Fore
SplineSet
316 780 m 2,0,1
 325.397237652 822.809638192 325.397237652 822.809638192 381 850 c 2,2,-1
 1109 1206 l 2,3,4
 1123 1213 1123 1213 1133 1213 c 0,5,6
 1147 1213 1147 1213 1153 1198 c 2,7,-1
 1163 1173 l 2,8,9
 1169 1158 1169 1158 1169 1153 c 0,10,11
 1169 1138.75319149 1169 1138.75319149 1157 1133 c 2,12,-1
 452 795 l 1,13,-1
 989 475 l 2,14,15
 1010 462.48603352 1010 462.48603352 1010 444 c 0,16,17
 1010 428.56097561 1010 428.56097561 993 407 c 2,18,-1
 952 355 l 2,19,20
 931 328 931 328 908 328 c 0,21,22
 895.611445783 328 895.611445783 328 881 337 c 2,23,-1
 342 669 l 2,24,25
 306 691 306 691 306 725 c 0,26,27
 306 734.444444444 306 734.444444444 307 739 c 2,28,-1
 316 780 l 2,0,1
EndSplineSet
Validated: 1
EndChar

StartChar: equal
Encoding: 61 61 139
Width: 1133
Flags: W
HStem: 490 150<276.703 1096.3> 870 150<357.703 1177.3>
LayerCount: 2
Fore
SplineSet
336 640 m 2,0,-1
 1069 640 l 2,1,2
 1110 640 1110 640 1110 606 c 0,3,4
 1110 599 1110 599 1108 590 c 2,5,-1
 1098 540 l 2,6,7
 1087 490 1087 490 1037 490 c 2,8,-1
 304 490 l 2,9,10
 263 490 263 490 263 524 c 0,11,12
 263 531 263 531 265 540 c 2,13,-1
 275 590 l 2,14,15
 286 640 286 640 336 640 c 2,0,-1
417 1020 m 2,16,-1
 1150 1020 l 2,17,18
 1191 1020 1191 1020 1191 986 c 0,19,20
 1191 979 1191 979 1189 970 c 2,21,-1
 1179 920 l 2,22,23
 1168 870 1168 870 1118 870 c 2,24,-1
 385 870 l 2,25,26
 344 870 344 870 344 904 c 0,27,28
 344 911 344 911 346 920 c 2,29,-1
 356 970 l 2,30,31
 367 1020 367 1020 417 1020 c 2,16,-1
EndSplineSet
Validated: 1
EndChar

StartChar: greater
Encoding: 62 62 140
Width: 1123
Flags: W
DStem2: 294 408 342 335 0.898341 0.439299<-13.3013 781.813> 1109 872 462 1066 0.851441 -0.52445<-660.422 -27.5779>
LayerCount: 2
Fore
SplineSet
1135 761 m 2,0,1
 1125.60253906 718.190429688 1125.60253906 718.190429688 1070 691 c 2,2,-1
 342 335 l 2,3,4
 328 328 328 328 318 328 c 0,5,6
 304 328 304 328 298 343 c 2,7,-1
 288 368 l 2,8,9
 282 383 282 383 282 388 c 0,10,11
 282 402.247070312 282 402.247070312 294 408 c 2,12,-1
 999 746 l 1,13,-1
 462 1066 l 2,14,15
 441 1078.51367188 441 1078.51367188 441 1097 c 0,16,17
 441 1112.43945312 441 1112.43945312 458 1134 c 2,18,-1
 499 1186 l 2,19,20
 520 1213 520 1213 543 1213 c 0,21,22
 555.388671875 1213 555.388671875 1213 570 1204 c 2,23,-1
 1109 872 l 2,24,25
 1145 850 1145 850 1145 816 c 0,26,27
 1145 806.555664062 1145 806.555664062 1144 802 c 2,28,-1
 1135 761 l 2,0,1
EndSplineSet
Validated: 1
EndChar

StartChar: question
Encoding: 63 63 141
Width: 1230
Flags: W
HStem: -20 245<485.097 652.903> 1115 21G<395.5 431.5> 1469 61<699.896 992.775>
VStem: 449 240<17.1285 187.871> 1104 210<976.499 1337.46>
LayerCount: 2
Fore
SplineSet
569 -20 m 128,-1,1
 519 -20 519 -20 484 16 c 128,-1,2
 449 52 449 52 449 102.5 c 128,-1,3
 449 153 449 153 484 189 c 128,-1,4
 519 225 519 225 569 225 c 128,-1,5
 619 225 619 225 654 189 c 128,-1,6
 689 153 689 153 689 102.5 c 128,-1,7
 689 52 689 52 654 16 c 128,-1,0
 619 -20 619 -20 569 -20 c 128,-1,1
901 1530 m 0,8,9
 1134 1530 1134 1530 1240 1385 c 0,10,11
 1314 1285 1314 1285 1314 1154 c 0,12,13
 1314 1099 1314 1099 1301 1038 c 0,14,15
 1249 794 1249 794 970 626 c 0,16,17
 693 460 693 460 668 335 c 0,18,19
 661 300 661 300 633 300 c 2,20,-1
 596 300 l 2,21,22
 571 300 571 300 571 320 c 0,23,24
 571 324 571 324 572 329 c 0,25,26
 611 514 611 514 835 694 c 0,27,28
 1044 862 1044 862 1085 1060 c 0,29,30
 1104 1150 1104 1150 1104 1218 c 0,31,32
 1104 1292 1104 1292 1082 1340 c 0,33,34
 1022 1469 1022 1469 868 1469 c 0,35,36
 556 1469 556 1469 443 1130 c 0,37,38
 438 1115 438 1115 425 1115 c 2,39,-1
 402 1115 l 2,40,41
 389 1115 389 1115 389 1123 c 0,42,43
 389 1125 389 1125 390 1130 c 2,44,-1
 436 1347 l 2,45,46
 446.203099947 1395.13201497 446.203099947 1395.13201497 486 1421 c 0,47,48
 653 1530 653 1530 901 1530 c 0,8,9
EndSplineSet
Validated: 1
EndChar

StartChar: exclam
Encoding: 33 33 142
Width: 692
Flags: W
HStem: -20 245<284.097 451.903> 1490 20G<582 748>
VStem: 248 240<17.1285 187.871>
LayerCount: 2
Fore
SplineSet
368 -20 m 128,-1,1
 318 -20 318 -20 283 16 c 128,-1,2
 248 52 248 52 248 102.5 c 128,-1,3
 248 153 248 153 283 189 c 128,-1,4
 318 225 318 225 368 225 c 128,-1,5
 418 225 418 225 453 189 c 128,-1,6
 488 153 488 153 488 102.5 c 128,-1,7
 488 52 488 52 453 16 c 128,-1,0
 418 -20 418 -20 368 -20 c 128,-1,1
607 1510 m 2,8,-1
 727 1510 l 2,9,10
 769 1510 769 1510 769 1480 c 0,11,12
 769 1470 769 1470 767 1461 c 2,13,-1
 465 329 l 2,14,15
 457 300 457 300 430 300 c 2,16,-1
 390 300 l 2,17,18
 367 300 367 300 366 321 c 0,19,20
 366 325 366 325 367 329 c 2,21,-1
 547 1461 l 2,22,-1
 548 1466 l 0,23,24
 557 1510 557 1510 607 1510 c 2,8,-1
EndSplineSet
Validated: 1
EndChar

StartChar: quotedbl
Encoding: 34 34 143
Width: 541
Flags: W
HStem: 1149 381<369.437 452.25 619.437 702.25>
VStem: 370 192<1378.12 1530> 620 192<1378.12 1530>
LayerCount: 2
Fore
SplineSet
647 1530 m 2,0,-1
 794 1530 l 2,1,2
 812 1530 812 1530 812 1516 c 0,3,4
 812 1509 812 1509 809 1500 c 2,5,-1
 697 1175 l 2,6,7
 688 1149 688 1149 657 1149 c 2,8,-1
 622 1149 l 2,9,10
 594 1149 594 1149 594 1171 c 0,11,12
 594 1173 594 1173 594 1175 c 2,13,-1
 620 1500 l 2,14,15
 620 1502 620 1502 621 1509 c 0,16,17
 625 1530 625 1530 647 1530 c 2,0,-1
397 1530 m 2,18,-1
 544 1530 l 2,19,20
 562 1530 562 1530 562 1516 c 0,21,22
 562 1509 562 1509 559 1500 c 2,23,-1
 447 1175 l 2,24,25
 438 1149 438 1149 407 1149 c 2,26,-1
 372 1149 l 2,27,28
 344 1149 344 1149 344 1171 c 0,29,30
 344 1173 344 1173 344 1175 c 2,31,-1
 370 1500 l 2,32,33
 370 1502 370 1502 371 1509 c 0,34,35
 375 1530 375 1530 397 1530 c 2,18,-1
EndSplineSet
Validated: 1
EndChar

StartChar: numbersign
Encoding: 35 35 144
Width: 1254
Flags: W
HStem: 517 131<278.03 500 660 842 1002 1222.75> 859 131<351.03 573 732 915 1074 1295.97>
DStem2: 448.498 276 580.498 276 0.207912 0.978148<28.1535 246.441 407.845 596.146 757.341 974.651> 790.498 276 922.498 276 0.207912 0.978148<28.1535 246.441 407.845 596.146 757.341 974.651>
LayerCount: 2
Fore
SplineSet
660 648 m 1,0,-1
 870 648 l 1,1,-1
 915 859 l 1,2,-1
 705 859 l 1,3,-1
 660 648 l 1,0,-1
691 1230 m 2,4,-1
 743 1230 l 2,5,6
 776 1230 776 1230 776 1203 c 0,7,8
 776 1197 776 1197 775 1190 c 2,9,-1
 732 990 l 1,10,-1
 942 990 l 1,11,-1
 985 1190 l 2,12,13
 994 1230 994 1230 1033 1230 c 2,14,-1
 1085 1230 l 2,15,16
 1118 1230 1118 1230 1118 1203 c 0,17,18
 1118 1197 1118 1197 1117 1190 c 2,19,-1
 1074 990 l 1,20,-1
 1274 990 l 2,21,22
 1307 990 1307 990 1307 963 c 0,23,24
 1307 957 1307 957 1306 950 c 2,25,-1
 1295 899 l 2,26,27
 1286 859 1286 859 1247 859 c 2,28,-1
 1047 859 l 1,29,-1
 1002 648 l 1,30,-1
 1202 648 l 2,31,32
 1235 648 1235 648 1235 621 c 0,33,34
 1235 615 1235 615 1233 608 c 2,35,-1
 1222 557 l 2,36,37
 1213 517 1213 517 1174 517 c 2,38,-1
 974 517 l 1,39,-1
 931 316 l 2,40,41
 922 276 922 276 883 276 c 2,42,-1
 831 276 l 2,43,44
 798 276 798 276 798 303 c 0,45,46
 798 309 798 309 799 316 c 2,47,-1
 842 517 l 1,48,-1
 632 517 l 1,49,-1
 589 316 l 2,50,51
 580 276 580 276 541 276 c 2,52,-1
 489 276 l 2,53,54
 456 276 456 276 456 303 c 0,55,56
 456 309 456 309 457 316 c 2,57,-1
 500 517 l 1,58,-1
 300 517 l 2,59,60
 267 517 267 517 267 544 c 0,61,62
 267 550 267 550 268 557 c 2,63,-1
 279 608 l 2,64,65
 288 648 288 648 328 648 c 2,66,-1
 528 648 l 1,67,-1
 573 859 l 1,68,-1
 373 859 l 2,69,70
 340 859 340 859 340 886 c 0,71,72
 340 892 340 892 341 899 c 2,73,-1
 352 950 l 2,74,75
 361 990 361 990 400 990 c 2,76,-1
 600 990 l 1,77,-1
 643 1190 l 2,78,79
 651 1230 651 1230 691 1230 c 2,4,-1
EndSplineSet
Validated: 1
EndChar

StartChar: parenright
Encoding: 41 41 145
Width: 699
Flags: W
VStem: 524 166<755.035 1388.83>
LayerCount: 2
Fore
SplineSet
480 1760 m 2,0,1
 500 1760 500 1760 511 1738 c 0,2,3
 690 1391 690 1391 690 1043 c 0,4,5
 690 899 690 899 660 755 c 0,6,7
 553 253 553 253 94 -228 c 0,8,9
 73 -250 73 -250 53 -250 c 2,10,-1
 21 -250 l 2,11,12
 0 -250 0 -250 0 -235 c 0,13,14
 0 -226 0 -226 10 -216 c 0,15,16
 357 178 357 178 480 755 c 0,17,18
 524 963 524 963 524 1159 c 0,19,20
 524 1456 524 1456 423 1726 c 0,21,22
 420 1734 420 1734 420 1744 c 0,23,24
 420 1760 420 1760 448 1760 c 2,25,-1
 480 1760 l 2,0,1
EndSplineSet
Validated: 1
EndChar

StartChar: quotesingle
Encoding: 39 39 146
Width: 291
Flags: W
HStem: 1149 381<369.648 452.462>
VStem: 370.212 192<1378.12 1530>
LayerCount: 2
Fore
SplineSet
397.211914062 1530 m 2,0,-1
 544.211914062 1530 l 2,1,2
 562.211914062 1530 562.211914062 1530 562.211914062 1516 c 0,3,4
 562.211914062 1509 562.211914062 1509 559.211914062 1500 c 2,5,-1
 447.211914062 1175 l 2,6,7
 438.211914062 1149 438.211914062 1149 407.211914062 1149 c 2,8,-1
 372.211914062 1149 l 2,9,10
 344.211914062 1149 344.211914062 1149 344.211914062 1171 c 0,11,12
 344.211914062 1173 344.211914062 1173 344.211914062 1175 c 2,13,-1
 370.211914062 1500 l 2,14,15
 370.211914062 1502 370.211914062 1502 371.211914062 1509 c 0,16,17
 375.211914062 1530 375.211914062 1530 397.211914062 1530 c 2,0,-1
EndSplineSet
Validated: 1
EndChar

StartChar: dollar
Encoding: 36 36 147
Width: 1160
Flags: W
HStem: -20 61<373.853 518> 1464 64<947 1006.25>
VStem: 112 101<139 381> 422 183<1054.46 1283.97> 944 204<357.585 635.148> 1110 102<1160.34 1364.5>
DStem2: 483.749 -180 583.749 -180 0.207912 0.978148<14.4618 163.625 264.038 953.249 1189.97 1681.67 1766.99 1918.11>
LayerCount: 2
Fore
SplineSet
518 -20 m 1,0,1
 254 -20 254 -20 133 89 c 0,2,3
 112 108 112 108 112 139 c 0,4,5
 112 149 112 149 115 163 c 2,6,-1
 161 380 l 2,7,8
 164 395 164 395 179 395 c 2,9,-1
 202 395 l 2,10,11
 213 395 213 395 213 381 c 0,12,13
 213 42 213 42 531 41 c 1,14,-1
 688 779 l 1,15,-1
 619 815 l 2,16,17
 422 917 422 917 422 1105 c 0,18,19
 422 1132 422 1132 426 1162 c 0,20,21
 449 1334 449 1334 627 1456 c 0,22,23
 720 1519 720 1519 847 1529 c 1,24,-1
 877 1670 l 2,25,26
 881 1690 881 1690 901 1690 c 2,27,-1
 961 1690 l 2,28,29
 977 1690 977 1690 978 1676 c 0,30,31
 978 1673 978 1673 977 1670 c 2,32,-1
 947 1528 l 1,33,34
 1099 1515 1099 1515 1191 1431 c 0,35,36
 1212 1412 1212 1412 1212 1381 c 0,37,38
 1212 1371 1212 1371 1209 1357 c 2,39,-1
 1163 1140 l 2,40,41
 1160 1125 1160 1125 1145 1125 c 2,42,-1
 1122 1125 l 2,43,44
 1110 1125 1110 1125 1110 1140 c 0,45,46
 1110 1427 1110 1427 933 1464 c 1,47,-1
 821 936 l 1,48,-1
 957 866 l 2,49,50
 1148 767 1148 767 1148 562 c 0,51,52
 1148 519 1148 519 1140 472 c 0,53,54
 1111 303 1111 303 947 149 c 0,55,56
 804 15 804 15 619 -13 c 1,57,-1
 588 -160 l 2,58,59
 584 -180 584 -180 564 -180 c 2,60,-1
 504 -180 l 2,61,62
 488 -180 488 -180 487 -166 c 0,63,64
 487 -163 487 -163 488 -160 c 2,65,-1
 518 -20 l 1,0,1
731 984 m 1,66,-1
 833 1465 l 1,67,68
 769 1454 769 1454 715 1408 c 0,69,70
 636 1341 636 1341 611 1231 c 0,71,72
 605 1204 605 1204 605 1180 c 0,73,74
 605 1063 605 1063 731 984 c 1,66,-1
778 732 m 1,75,-1
 634 58 l 1,76,77
 709 84 709 84 779 149 c 0,78,79
 907 268 907 268 935 402 c 0,80,81
 944 446 944 446 944 486 c 0,82,83
 944 646 944 646 794 724 c 2,84,-1
 778 732 l 1,75,-1
EndSplineSet
Validated: 1
EndChar

